<svg width="80" height="80" viewBox="0 0 80 80" fill="none" xmlns="http://www.w3.org/2000/svg">
<path d="M40.267 59.4325C50.8518 59.4325 59.4325 50.8518 59.4325 40.267C59.4325 29.6822 50.8518 21.1016 40.267 21.1016C29.6822 21.1016 21.1016 29.6822 21.1016 40.267C21.1016 50.8518 29.6822 59.4325 40.267 59.4325Z" fill="#D60623"/>
<path fill-rule="evenodd" clip-rule="evenodd" d="M13.7422 40.0003C13.7422 25.5213 25.5213 13.7422 40.0003 13.7422C54.4792 13.7422 66.2583 25.5213 66.2583 40.0003C66.2583 54.4792 54.4792 66.2583 40.0003 66.2583C25.5213 66.2583 13.7422 54.4792 13.7422 40.0003ZM16.1289 40.0008C16.1289 53.1633 26.8374 63.8718 39.9998 63.8718C53.1623 63.8718 63.8708 53.1633 63.8708 40.0008C63.8708 26.8384 53.1623 16.1299 39.9998 16.1299C26.8374 16.1299 16.1289 26.8384 16.1289 40.0008Z" fill="#333333"/>
<path d="M38.8062 38.8071H23.29V41.1942H41.1933V23.291H38.8062V38.8071Z" fill="#333333"/>
<path d="M40.0002 20.9027C40.6594 20.9027 41.1937 20.3684 41.1937 19.7092C41.1937 19.05 40.6594 18.5156 40.0002 18.5156C39.341 18.5156 38.8066 19.05 38.8066 19.7092C38.8066 20.3684 39.341 20.9027 40.0002 20.9027Z" fill="#333333"/>
<path d="M40.0002 61.4848C40.6594 61.4848 41.1937 60.9504 41.1937 60.2912C41.1937 59.632 40.6594 59.0977 40.0002 59.0977C39.341 59.0977 38.8066 59.632 38.8066 60.2912C38.8066 60.9504 39.341 61.4848 40.0002 61.4848Z" fill="#333333"/>
<path d="M60.2912 41.1937C60.9504 41.1937 61.4848 40.6594 61.4848 40.0002C61.4848 39.341 60.9504 38.8066 60.2912 38.8066C59.632 38.8066 59.0977 39.341 59.0977 40.0002C59.0977 40.6594 59.632 41.1937 60.2912 41.1937Z" fill="#333333"/>
<path d="M19.7101 41.1937C20.3693 41.1937 20.9037 40.6594 20.9037 40.0002C20.9037 39.341 20.3693 38.8066 19.7101 38.8066C19.051 38.8066 18.5166 39.341 18.5166 40.0002C18.5166 40.6594 19.051 41.1937 19.7101 41.1937Z" fill="#333333"/>
<path d="M11.4396 53.8798L10.0598 57.3303C7.00197 52.068 5.3871 46.1253 5.3871 40C5.3871 20.9152 20.9152 5.3871 40 5.3871C47.8929 5.3871 55.6176 8.12032 61.7524 13.0831L63.2539 11.2271C56.6954 5.92181 48.4372 3 40 3C19.5975 3 3 19.5975 3 40C3 46.5991 4.7569 52.9977 8.07616 58.6564L4.42748 57.9271L3.95961 60.2664L10.9001 61.6545L13.6572 54.7654L11.4396 53.8798Z" fill="#333333"/>
<path d="M13.7414 65.0648C14.4006 65.0648 14.9349 64.5305 14.9349 63.8713C14.9349 63.2121 14.4006 62.6777 13.7414 62.6777C13.0822 62.6777 12.5479 63.2121 12.5479 63.8713C12.5479 64.5305 13.0822 65.0648 13.7414 65.0648Z" fill="#333333"/>
<path d="M71.9238 21.3431L75.5725 22.0724L76.0416 19.7318L69.1011 18.3438L66.344 25.2329L68.5604 26.1185L69.9402 22.668C72.998 27.9315 74.6129 33.8742 74.6129 39.9995C74.6129 59.0843 59.0848 74.6124 40 74.6124C32.1071 74.6124 24.3824 71.8792 18.2476 66.9164L16.7461 68.7724C23.3046 74.0777 31.5628 76.9995 40 76.9995C60.4025 76.9995 77 60.402 77 39.9995C77 33.4004 75.2431 27.0017 71.9238 21.3431Z" fill="#333333"/>
<path d="M66.258 17.3246C66.9172 17.3246 67.4515 16.7902 67.4515 16.131C67.4515 15.4719 66.9172 14.9375 66.258 14.9375C65.5988 14.9375 65.0645 15.4719 65.0645 16.131C65.0645 16.7902 65.5988 17.3246 66.258 17.3246Z" fill="#333333"/>
</svg>
