<svg width="212" height="150" viewBox="0 0 212 150" fill="none" xmlns="http://www.w3.org/2000/svg">
<path d="M69.5 59C75.8513 59 81 53.8513 81 47.5C81 41.1487 75.8513 36 69.5 36C63.1487 36 58 41.1487 58 47.5C58 53.8513 63.1487 59 69.5 59Z" fill="#D60623"/>
<path d="M80 42.6669L77.1197 39L65.2206 49.5397L62.1764 46.3073L59 49.6833L64.9421 56L80 42.6669Z" fill="#333333"/>
<path d="M88 40H122V45H88V40Z" fill="#333333"/>
<path d="M88 49H127V54H88V49Z" fill="#333333"/>
<path d="M80 64.6669L77.1197 61L65.2206 71.5397L62.1764 68.3073L59 71.6833L64.9421 78L80 64.6669Z" fill="#333333"/>
<path d="M88 63H136V68H88V63Z" fill="#333333"/>
<path d="M88 72H97V77H88V72Z" fill="#333333"/>
<path d="M102 72H136V77H102V72Z" fill="#333333"/>
<path d="M80 87.6669L77.1197 84L65.2206 94.5397L62.1764 91.3073L59 94.6833L64.9421 101L80 87.6669Z" fill="#333333"/>
<path d="M88 86H136V91H88V86Z" fill="#333333"/>
<path d="M88 95H122V100H88V95Z" fill="#333333"/>
<path d="M127 95H136V100H127V95Z" fill="#333333"/>
<path d="M127 40H136V45H127V40Z" fill="#333333"/>
<path fill-rule="evenodd" clip-rule="evenodd" d="M173.129 113.354H168.549H163.968H159.387H154.807V19.4518C154.807 13.1371 149.669 8 143.355 8H49.4519C43.1372 8 38 13.1371 38 19.4518C38 25.7665 43.1372 30.9036 49.4514 30.9036V150H145.645V136.258H154.807V127.096H159.387H163.968H168.549H173.129C176.917 127.096 180 124.014 180 120.225C180 116.437 176.917 113.354 173.129 113.354ZM150.226 19.4518V113.355H145.645V26.3225H143.355C139.567 26.3225 136.484 23.2399 136.484 19.4513C136.484 15.6627 139.567 12.5801 143.355 12.5801C147.143 12.5801 150.226 15.6632 150.226 19.4518ZM49.4514 12.5806C45.6633 12.5806 42.5807 15.6637 42.5807 19.4518C42.5807 23.2399 45.6638 26.3225 49.4519 26.323H134.253C132.799 24.4033 131.903 22.0399 131.903 19.4518C131.903 16.8637 132.798 14.4998 134.253 12.5806H49.4514ZM54.0326 145.419V30.9031H141.065V113.354H76.5646L55.9518 120.226L76.5646 127.097H141.065V145.419H54.0326V145.419ZM74.6452 118.821L70.4359 120.226L74.6452 121.627V118.821ZM150.226 131.677H145.646V127.096H150.226V131.677ZM79.226 122.516H154.807V117.935H79.226V122.516ZM163.968 122.516H159.387V117.935H163.968V122.516ZM168.549 122.516H173.129C174.394 122.516 175.419 121.488 175.419 120.226C175.419 118.964 174.393 117.935 173.129 117.935H168.549V122.516Z" fill="#333333"/>
</svg>
