<svg width="212" height="150" viewBox="0 0 212 150" fill="none" xmlns="http://www.w3.org/2000/svg">
<path d="M107 117C126.882 117 143 100.882 143 81C143 61.1177 126.882 45 107 45C87.1177 45 71 61.1177 71 81C71 100.882 87.1177 117 107 117Z" fill="#D60623"/>
<path fill-rule="evenodd" clip-rule="evenodd" d="M57.1777 80.5003C57.1777 53.3034 79.3034 31.1777 106.5 31.1777C133.697 31.1777 155.823 53.3034 155.823 80.5003C155.823 107.697 133.697 129.823 106.5 129.823C79.3034 129.823 57.1777 107.697 57.1777 80.5003ZM61.6616 80.5003C61.6616 105.224 81.7762 125.339 106.5 125.339C131.224 125.339 151.339 105.224 151.339 80.5003C151.339 55.7763 131.224 35.6616 106.5 35.6616C81.7762 35.6616 61.6616 55.7763 61.6616 80.5003Z" fill="#333333"/>
<path d="M104.258 78.2584H75.1133V82.7423H108.742V49.1133H104.258V78.2584Z" fill="#333333"/>
<path d="M106.5 44.6294C107.738 44.6294 108.742 43.6256 108.742 42.3874C108.742 41.1493 107.738 40.1455 106.5 40.1455C105.262 40.1455 104.258 41.1493 104.258 42.3874C104.258 43.6256 105.262 44.6294 106.5 44.6294Z" fill="#333333"/>
<path d="M106.5 120.855C107.738 120.855 108.742 119.851 108.742 118.613C108.742 117.375 107.738 116.371 106.5 116.371C105.262 116.371 104.258 117.375 104.258 118.613C104.258 119.851 105.262 120.855 106.5 120.855Z" fill="#333333"/>
<path d="M144.613 82.7417C145.851 82.7417 146.855 81.7379 146.855 80.4997C146.855 79.2616 145.851 78.2578 144.613 78.2578C143.375 78.2578 142.371 79.2616 142.371 80.4997C142.371 81.7379 143.375 82.7417 144.613 82.7417Z" fill="#333333"/>
<path d="M68.3874 82.7417C69.6256 82.7417 70.6294 81.7379 70.6294 80.4997C70.6294 79.2616 69.6256 78.2578 68.3874 78.2578C67.1493 78.2578 66.1455 79.2616 66.1455 80.4997C66.1455 81.7379 67.1493 82.7417 68.3874 82.7417Z" fill="#333333"/>
<path d="M52.8527 106.571L50.261 113.053C44.5172 103.168 41.4839 92.0056 41.4839 80.5C41.4839 44.6515 70.6515 15.4839 106.5 15.4839C121.326 15.4839 135.836 20.6179 147.359 29.9399L150.18 26.4537C137.86 16.4883 122.348 11 106.5 11C68.1764 11 37 42.1764 37 80.5C37 92.8957 40.3001 104.915 46.535 115.544L39.6814 114.174L38.8025 118.568L51.8394 121.175L57.0182 108.235L52.8527 106.571Z" fill="#333333"/>
<path d="M57.1775 127.581C58.4157 127.581 59.4194 126.577 59.4194 125.339C59.4194 124.1 58.4157 123.097 57.1775 123.097C55.9393 123.097 54.9355 124.1 54.9355 125.339C54.9355 126.577 55.9393 127.581 57.1775 127.581Z" fill="#333333"/>
<path d="M166.465 45.4562L173.319 46.8261L174.2 42.4296L161.163 39.8223L155.984 52.7627L160.147 54.4262L162.739 47.9448C168.483 57.8317 171.516 68.9943 171.516 80.4999C171.516 116.348 142.348 145.516 106.5 145.516C91.674 145.516 77.1642 140.382 65.6407 131.06L62.8203 134.546C75.1397 144.512 90.6517 150 106.5 150C144.824 150 176 118.824 176 80.4999C176 68.1043 172.7 56.0853 166.465 45.4562Z" fill="#333333"/>
<path d="M155.823 37.9028C157.061 37.9028 158.065 36.8991 158.065 35.6609C158.065 34.4227 157.061 33.4189 155.823 33.4189C154.585 33.4189 153.581 34.4227 153.581 35.6609C153.581 36.8991 154.585 37.9028 155.823 37.9028Z" fill="#333333"/>
</svg>
