<svg width="14" height="10" viewBox="0 0 14 10" fill="none" xmlns="http://www.w3.org/2000/svg">
<path d="M5.83709 4.6098L1.29221 0.159755C1.1871 0.0567475 1.04677 0 0.897152 0C0.74753 0 0.607207 0.0567475 0.50209 0.159755L0.167391 0.487394C-0.0503999 0.700889 -0.0503999 1.04788 0.167391 1.26105L3.98384 4.99793L0.163156 8.73895C0.0580388 8.84196 0 8.97928 0 9.1257C0 9.27228 0.0580388 9.4096 0.163156 9.51269L0.497855 9.84025C0.603055 9.94325 0.743295 10 0.892917 10C1.04254 10 1.18286 9.94325 1.28798 9.84025L5.83709 5.38614C5.94246 5.2828 6.00033 5.14484 6 4.99817C6.00033 4.85094 5.94246 4.71305 5.83709 4.6098Z" fill="#D60724"/>
<path d="M13.8371 4.6098L9.29221 0.159755C9.1871 0.0567475 9.04677 0 8.89715 0C8.74753 0 8.60721 0.0567475 8.50209 0.159755L8.16739 0.487394C7.9496 0.700889 7.9496 1.04788 8.16739 1.26105L11.9838 4.99793L8.16316 8.73895C8.05804 8.84196 8 8.97928 8 9.1257C8 9.27228 8.05804 9.4096 8.16316 9.51269L8.49785 9.84025C8.60306 9.94325 8.7433 10 8.89292 10C9.04254 10 9.18286 9.94325 9.28798 9.84025L13.8371 5.38614C13.9425 5.2828 14.0003 5.14484 14 4.99817C14.0003 4.85094 13.9425 4.71305 13.8371 4.6098Z" fill="#D60724"/>
</svg>
