<svg width="80" height="80" viewBox="0 0 80 80" fill="none" xmlns="http://www.w3.org/2000/svg">
<path d="M40.5002 45.1601C35.1895 45.1601 34.0655 42.2749 34.0194 42.1523L31.5947 42.9872C31.6601 43.182 33.253 47.7407 40.5002 47.7407C47.7473 47.7407 49.3403 43.182 49.4044 42.9872L46.9746 42.1704C46.9643 42.2014 45.8353 45.1601 40.5002 45.1601Z" fill="#333333"/>
<path d="M48.1904 29.6777H50.7535V32.2584H48.1904V29.6777Z" fill="#333333"/>
<path d="M30.2471 29.6777H32.8102V32.2584H30.2471V29.6777Z" fill="#333333"/>
<path d="M46.9082 19.3555H50.7528V21.9361H46.9082V19.3555Z" fill="#333333"/>
<path fill-rule="evenodd" clip-rule="evenodd" d="M68.7747 66.3884C66.987 60.6297 62.0082 56.3174 56.0887 55.4013L49.4708 54.3768V53.0529C53.7832 50.5316 56.9653 46.2568 58.0392 41.2013C61.1534 40.7639 63.5678 38.0929 63.5678 34.8387V19.7729C63.5678 14.5484 60.3909 9.90581 55.5979 8.02452C53.7294 3.19871 49.1184 0 43.9294 0H40.5C27.7807 0 17.4322 10.4194 17.4322 23.2258V34.8387C17.4322 38.0929 19.8466 40.7639 22.9608 41.2013C24.0347 46.2568 27.2168 50.5316 31.5292 53.0529V54.3768L24.9113 55.4026C18.9918 56.3187 14.0117 60.631 12.2253 66.3897L8 80H73L68.7747 66.3884ZM58.4067 38.1926L58.4068 38.192L58.4068 38.1919C58.4242 37.9357 58.4415 37.6796 58.4415 37.4189V31.2047C59.9294 31.7389 61.0046 33.1582 61.0046 34.8382C61.0046 36.5376 59.9038 37.9699 58.3877 38.4886C58.3934 38.3897 58.4001 38.2912 58.4067 38.1926ZM22.5592 31.2047C21.0713 31.7389 19.9961 33.1582 19.9961 34.8382C19.9961 36.5376 21.0969 37.9699 22.613 38.4886C22.6073 38.3896 22.6006 38.2909 22.5939 38.1922L22.5939 38.1921L22.5939 38.192C22.5765 37.9358 22.5592 37.6797 22.5592 37.4189V31.2047ZM25.1223 37.4183V24.5151H22.5592V28.5164C21.607 28.7125 20.7445 29.1383 19.9961 29.7086V23.2247C19.9961 22.889 20.0189 22.5594 20.0416 22.23C20.0484 22.1315 20.0553 22.033 20.0615 21.9344H34.0931V19.3538H20.3703C20.715 17.5357 21.3058 15.8093 22.0914 14.1925H34.0931V11.6118H23.5614C27.2561 6.1641 33.469 2.57958 40.5008 2.57958H43.9302C48.226 2.57958 52.0232 5.337 53.3829 9.43894L53.5841 10.0518L54.1929 10.2544C55.1502 10.577 56.0268 11.0441 56.8187 11.6118H46.9086V14.1925H59.3011C60.302 15.6944 60.8941 17.4673 60.9722 19.3538H53.3163V21.9344H61.0056V29.7099C60.2571 29.1396 59.3946 28.7125 58.4425 28.5176V24.5151H55.8794V37.4183C55.8794 45.9564 48.9808 52.9022 40.5008 52.9022C32.0208 52.9022 25.1223 45.9564 25.1223 37.4183ZM21.4273 77.4194L22.5691 68.2272L25.1117 68.5472L24.0109 77.4194H39.219V74.8388H41.7821V77.4194H56.9902L55.8893 68.5472L58.4319 68.2272L59.5738 77.4194H69.5147L66.3301 67.1575C64.8319 62.3343 60.6592 58.7201 55.6984 57.9523L46.9082 56.591V54.2814C44.9167 55.0517 42.7586 55.4839 40.5005 55.4839C38.2424 55.4839 36.0843 55.0517 34.0928 54.2814V56.591L25.3014 57.9523C20.3405 58.7201 16.1678 62.3343 14.6697 67.1575L11.4863 77.4194H21.4273Z" fill="#333333"/>
<path d="M55.0414 61.8648L52.4456 55.4648H47.2541L40.7646 74.6648L53.7435 69.5448L48.552 65.7048L55.0414 61.8648Z" fill="#D60623"/>
<path d="M40.765 74.6648L34.2756 55.4648H29.0841L26.4883 61.8648L32.9777 65.7048L27.7862 69.5448L40.765 74.6648Z" fill="#D60623"/>
<path d="M40.7644 26.1333C35.8089 26.1333 31.7754 22.065 31.7754 17.0667C31.7754 12.0683 35.8089 8 40.7644 8C45.72 8 49.7535 12.0683 49.7535 17.0667C49.7535 22.065 45.72 26.1333 40.7644 26.1333Z" fill="#D60623"/>
<path fill-rule="evenodd" clip-rule="evenodd" d="M37.0635 16.7988C37.0635 19.0042 38.8428 20.7988 41.0292 20.7988C43.2157 20.7988 44.995 19.0042 44.995 16.7988C44.995 14.5935 43.2157 12.7988 41.0292 12.7988C38.8428 12.7988 37.0635 14.5935 37.0635 16.7988ZM39.708 16.799C39.708 16.063 40.3002 15.4657 41.0299 15.4657C41.7596 15.4657 42.3518 16.063 42.3518 16.799C42.3518 17.535 41.7596 18.1324 41.0299 18.1324C40.3002 18.1324 39.708 17.535 39.708 16.799Z" fill="#333333"/>
</svg>
