<svg width="80" height="80" viewBox="0 0 80 80" fill="none" xmlns="http://www.w3.org/2000/svg">
<path d="M62.3682 13.9473H73.9471V62.3681H62.3682V13.9473Z" fill="#D60623"/>
<path fill-rule="evenodd" clip-rule="evenodd" d="M39.6658 10.6451H50.1613V23.0645H14.0322V10.6451H24.5277C25.5089 7.32354 28.5539 5 32.0968 5C35.6397 5 38.6847 7.32354 39.6658 10.6451ZM16.2891 12.9036V20.8068H47.902V12.9036H37.813L37.6549 11.962C37.1965 9.23653 34.8572 7.25847 32.0955 7.25847C29.3339 7.25847 26.9946 9.23653 26.5373 11.962L26.3781 12.9036H16.2891Z" fill="#3F3A34"/>
<path d="M52.4194 15.1604H56.9356V72.7408H7.25807V15.1604H11.7742V12.9023H5V74.9989H59.1936V12.9023H52.4194V15.1604Z" fill="#3F3A34"/>
<path d="M11.7737 17.4199H9.51562V70.4842H54.677V17.4199H52.4189V68.2262H11.7737V17.4199Z" fill="#3F3A34"/>
<path fill-rule="evenodd" clip-rule="evenodd" d="M61.4512 13.6231L68.2254 5.49414L74.9996 13.6231V68.2252C74.9996 71.9612 71.9614 74.9994 68.2254 74.9994C64.4894 74.9994 61.4512 71.9612 61.4512 68.2252V13.6231ZM68.2249 9.02218L64.9902 12.9038H71.4596L68.2249 9.02218ZM67.0961 15.1631V61.4533H63.709V15.1631H67.0961ZM72.7413 65.9686V63.7106H63.709V65.9686H72.7413ZM69.3555 61.4533V15.1631H72.7426V61.4533H69.3555ZM63.709 68.2256C63.709 70.7162 65.7345 72.7417 68.2251 72.7417C70.7158 72.7417 72.7413 70.7162 72.7413 68.2256H63.709Z" fill="#3F3A34"/>
<path d="M46.2295 33.7383L37.9498 38.7061L36.788 36.7698L45.0677 31.802L46.2295 33.7383Z" fill="#3F3A34"/>
<path d="M35.1924 36.8398L33.5047 38.3401L26.7309 30.7202L28.4186 29.2199L35.1924 36.8398Z" fill="#3F3A34"/>
<path d="M26.2471 30.9336L19.4727 40.2475L17.6466 38.9193L24.421 29.6054L26.2471 30.9336Z" fill="#3F3A34"/>
<path d="M33.2266 47.9023H50.1621V50.1604H33.2266V47.9023Z" fill="#3F3A34"/>
<rect x="14.0322" y="47.9023" width="16.9355" height="2.25806" fill="#3F3A34"/>
<path d="M33.2266 52.4199H50.1621V54.678H33.2266V52.4199Z" fill="#3F3A34"/>
<path d="M18.5488 52.4199H30.9682V54.678H18.5488V52.4199Z" fill="#3F3A34"/>
<path d="M14.0322 52.4199H16.2903V54.678H14.0322V52.4199Z" fill="#3F3A34"/>
<path d="M33.2266 56.9355H50.1621V59.1936H33.2266V56.9355Z" fill="#3F3A34"/>
<rect x="14.0322" y="56.9355" width="16.9355" height="2.25806" fill="#3F3A34"/>
<rect x="47.9033" y="61.4512" width="2.25807" height="2.25806" fill="#3F3A34"/>
<path d="M33.2266 61.4512H45.6459V63.7092H33.2266V61.4512Z" fill="#3F3A34"/>
<rect x="14.0322" y="61.4512" width="16.9355" height="2.25806" fill="#3F3A34"/>
<path fill-rule="evenodd" clip-rule="evenodd" d="M13.9473 41.1327C13.9473 42.9762 15.4748 44.4763 17.3519 44.4763C19.229 44.4763 20.7565 42.9762 20.7565 41.1327C20.7565 39.2892 19.229 37.7891 17.3519 37.7891C15.4748 37.7891 13.9473 39.2892 13.9473 41.1327ZM16.2178 41.1325C16.2178 40.5184 16.7262 40.018 17.3526 40.018C17.9791 40.018 18.4875 40.5184 18.4875 41.1325C18.4875 41.7466 17.9791 42.2471 17.3526 42.2471C16.7262 42.2471 16.2178 41.7466 16.2178 41.1325Z" fill="#D60623"/>
<path fill-rule="evenodd" clip-rule="evenodd" d="M23.0264 28.871C23.0264 30.7144 24.5539 32.2146 26.431 32.2146C28.3081 32.2146 29.8356 30.7144 29.8356 28.871C29.8356 27.0275 28.3081 25.5273 26.431 25.5273C24.5539 25.5273 23.0264 27.0275 23.0264 28.871ZM25.2949 28.872C25.2949 28.2578 25.8033 27.7574 26.4298 27.7574C27.0562 27.7574 27.5647 28.2578 27.5647 28.872C27.5647 29.4861 27.0562 29.9865 26.4298 29.9865C25.8033 29.9865 25.2949 29.4861 25.2949 28.872Z" fill="#D60623"/>
<path fill-rule="evenodd" clip-rule="evenodd" d="M43.4541 32.2147C43.4541 34.0582 44.9816 35.5584 46.8587 35.5584C48.7358 35.5584 50.2633 34.0582 50.2633 32.2147C50.2633 30.3713 48.7358 28.8711 46.8587 28.8711C44.9816 28.8711 43.4541 30.3713 43.4541 32.2147ZM45.7246 32.215C45.7246 31.6009 46.233 31.1005 46.8595 31.1005C47.4859 31.1005 47.9943 31.6009 47.9943 32.215C47.9943 32.8292 47.4859 33.3296 46.8595 33.3296C46.233 33.3296 45.7246 32.8292 45.7246 32.215Z" fill="#D60623"/>
<path fill-rule="evenodd" clip-rule="evenodd" d="M32.1055 38.9022C32.1055 40.7457 33.633 42.2459 35.5101 42.2459C37.3872 42.2459 38.9147 40.7457 38.9147 38.9022C38.9147 37.0588 37.3872 35.5586 35.5101 35.5586C33.633 35.5586 32.1055 37.0588 32.1055 38.9022ZM34.376 38.9031C34.376 38.289 34.8844 37.7886 35.5108 37.7886C36.1373 37.7886 36.6457 38.289 36.6457 38.9031C36.6457 39.5173 36.1373 40.0177 35.5108 40.0177C34.8844 40.0177 34.376 39.5173 34.376 38.9031Z" fill="#D60623"/>
</svg>
