<svg width="80" height="80" viewBox="0 0 80 80" fill="none" xmlns="http://www.w3.org/2000/svg">
<path d="M61.8946 24.516C61.6437 24.516 61.3915 24.4424 61.1729 24.2966C60.75 24.0128 60.534 23.5095 60.6194 23.0076L61.4691 18.0644H58.0147C55.8756 18.0644 54.1348 16.3277 54.1348 14.1935V3.87095C54.1348 1.73676 55.8756 0 58.0147 0H76.1209C78.26 0 80.0008 1.73676 80.0008 3.87095V14.1935C80.0008 16.3277 78.26 18.0644 76.1209 18.0644H72.6122L62.58 24.3199C62.3705 24.4502 62.1326 24.516 61.8946 24.516Z" fill="#D60623"/>
<path d="M12.8412 54.2838L16.1855 50.9473L8.42617 43.2058L5.08186 46.5424L12.8412 54.2838Z" fill="#D60623"/>
<path d="M33.5985 74.996L37.3207 71.5935L29.5608 63.8516L25.8154 67.2309L33.5985 74.996Z" fill="#D60623"/>
<path d="M61.9864 60.7156C60.9401 57.5866 58.2708 55.277 55.0168 54.686L46.3737 53.117V52.4486C47.8778 51.5776 49.1866 50.4125 50.229 49.0331H52.8402C54.9793 49.0331 56.7201 47.2964 56.7201 45.1622V29.6784C56.7201 20.4294 49.1775 12.9043 39.9071 12.9043C30.6367 12.9043 23.0942 20.4294 23.0942 29.6784V38.7106C23.0942 41.1983 24.8673 43.2796 27.2185 43.7648C27.9441 47.4731 30.2669 50.6112 33.4406 52.4486V53.117L24.7962 54.686C21.5435 55.277 18.8729 57.5866 17.8279 60.7156L17.3105 62.2653L12.9056 57.8705C12.4012 57.3673 12.4012 56.5479 12.9056 56.0447L18.0141 50.9492L8.42555 41.3828L2.65225 47.1428C0.942501 48.8486 0.000976562 51.117 0.000976562 53.5299C0.000976562 55.9428 0.942501 58.2098 2.65225 59.9156L20.1312 77.3543C21.841 79.0601 24.1146 80.0007 26.5331 80.0007C28.9516 80.0007 31.2239 79.0601 32.8936 77.393L39.1932 71.6343L37.2287 69.6782H64.9804L61.9864 60.7156ZM39.9071 57.5311L36.0272 53.6602V53.5996C37.2533 53.9841 38.5556 54.1944 39.9071 54.1944C41.2586 54.1944 42.561 53.9841 43.7871 53.5996V53.6602L39.9071 57.5311ZM52.8402 46.4525H51.7525C52.1276 45.5996 52.4121 44.7002 52.5957 43.7648C53.1493 43.6499 53.6588 43.4306 54.1335 43.1545V45.1622C54.1335 45.8744 53.5528 46.4525 52.8402 46.4525ZM52.8402 36.4887C53.6097 36.9364 54.1335 37.7596 54.1335 38.7106C54.1335 39.6616 53.6097 40.4848 52.8402 40.9325V36.4887ZM25.6808 38.7106C25.6808 37.7596 26.2046 36.9364 26.9741 36.4887V40.9325C26.2046 40.4848 25.6808 39.6616 25.6808 38.7106ZM26.9741 32.259V33.7326C26.5137 33.8526 26.0817 34.0332 25.6808 34.2668V29.6784C25.6808 21.8526 32.0633 15.4849 39.9071 15.4849C47.751 15.4849 54.1335 21.8526 54.1335 29.6784V34.2668C53.7326 34.0332 53.3006 33.8513 52.8402 33.7326V32.259H51.5469C47.7226 32.259 44.1272 30.7726 41.4216 28.0745L39.9071 26.5636L38.3927 28.0745C35.6871 30.7726 32.0917 32.259 28.2674 32.259H26.9741ZM29.5607 41.2912V34.7906C33.4445 34.499 37.0658 32.9003 39.9071 30.2048C42.7485 32.9003 46.3698 34.5003 50.2536 34.7906V41.2912C50.2536 43.1725 49.7388 44.9325 48.8542 46.4525H39.9071V49.0331H46.728C44.9045 50.6344 42.5209 51.6138 39.9071 51.6138C34.2024 51.6138 29.5607 46.9828 29.5607 41.2912ZM14.3553 50.9492L12.9508 52.3505L7.01973 46.4331L8.42426 45.0319L14.3553 50.9492ZM26.5305 77.4201C24.8039 77.4201 23.1796 76.7478 21.9574 75.5298L4.47839 58.0924C3.25751 56.8744 2.585 55.2537 2.585 53.5312C2.585 51.8073 3.25751 50.1867 4.47839 48.9686L5.18971 48.2589L11.1208 54.1763L11.0742 54.2228C9.56237 55.7324 9.56237 58.1879 11.0742 59.6976L20.3485 68.9504C21.0818 69.6808 22.0557 70.0846 23.0929 70.0846C24.1301 70.0846 25.104 69.682 25.7894 68.9956L25.8864 68.9091L31.8447 74.8536L31.1023 75.5323C29.8815 76.7478 28.2571 77.4201 26.5305 77.4201ZM33.7536 73.1065L27.8083 67.175L29.5167 65.6343L35.4517 71.5556L33.7536 73.1065ZM34.6421 67.0975L29.6047 62.0718L24.0073 67.1233C23.5197 67.6124 22.6674 67.6124 22.1785 67.1233L19.354 64.3053L20.28 61.5311C21.0262 59.2963 22.9338 57.646 25.2579 57.2228L34.2981 55.5841L39.9071 61.1802L45.5149 55.5854L54.5538 57.224C56.8779 57.6473 58.7855 59.2963 59.5317 61.5324L61.3928 67.0975H34.6421Z" fill="black"/>
<path d="M74.8263 5.16016H59.3066V7.74079H74.8263V5.16016Z" fill="black"/>
<path d="M69.6531 10.3242H59.3066V12.9048H69.6531V10.3242Z" fill="black"/>
<path d="M74.8268 10.3242H72.2402V12.9048H74.8268V10.3242Z" fill="black"/>
<path d="M12.1208 32.0735L10.79 29.8606L7.28518 31.9587C10.9504 17.0775 24.3632 6.45172 39.9075 6.45172C43.305 6.45172 46.6572 6.95495 49.8711 7.94849L50.6367 5.48399C47.1745 4.41303 43.5649 3.87109 39.9075 3.87109C23.0092 3.87109 8.45303 15.533 4.66883 31.8L2.21802 27.7239L0 29.0516L4.54596 36.609L12.1208 32.0735Z" fill="black"/>
<path d="M79.3723 28.5726L71.7975 24.0371L67.2515 31.5945L69.4695 32.9222L71.7328 29.1584C72.9239 32.6358 73.5331 36.2732 73.5331 40.0009C73.5331 47.6744 70.8689 55.1763 66.0332 61.1233L68.0417 62.7491C73.2511 56.344 76.1197 48.2641 76.1197 40.0009C76.1197 36.0538 75.4821 32.1996 74.2392 28.5093L78.0402 30.7842L79.3723 28.5726Z" fill="black"/>
</svg>
