<svg width="84" height="80" viewBox="0 0 84 80" fill="none" xmlns="http://www.w3.org/2000/svg">
<path d="M78.208 43.6831L77.7981 42.8293C76.2952 39.5935 74.7924 36.223 74.8379 28.8527V13.483C74.8379 12.719 74.2003 12.0899 73.4261 12.0899C72.6519 12.0899 72.0144 12.719 72.0144 13.483V28.8527C71.9233 36.8072 73.6994 40.6272 75.2022 43.9977L75.5666 44.8516C78.1169 50.5141 78.5723 55.0082 76.8873 57.8844C75.1567 60.8504 71.6045 61.3448 71.65 61.3448H14.5868C7.66455 61.165 5.88844 57.1653 5.88844 54.8733C5.88844 53.5701 6.43494 52.7162 6.84481 52.7162C10.3515 52.7162 16.4085 52.0421 19.3231 51.5028C28.2492 49.7951 45.6915 40.6721 50.5644 32.1334C52.0217 29.5718 52.6138 23.6396 52.3405 14.0223V13.3932C52.3405 12.6292 51.703 12 50.9287 12C50.1545 12 49.517 12.6292 49.517 13.3932V14.1122C49.8813 25.8866 48.7883 29.6167 48.1052 30.7852C43.7332 38.4251 27.2473 47.1436 18.7766 48.7614C15.9986 49.3007 10.1693 49.9299 6.84481 49.9299C4.70437 49.9299 3.11043 51.9971 3.06489 54.8733C3.01934 59.2326 6.57156 63.9963 14.5413 64.221H71.8777C72.1054 64.176 76.9328 63.6368 79.392 59.4123C81.578 55.5025 81.1682 50.2894 78.208 43.6831Z" fill="black"/>
<path d="M55.4824 49.2993C56.8486 49.4791 58.0782 49.6139 59.2623 49.6139C62.9967 49.6139 65.6836 48.5803 67.3231 46.513C70.7843 42.1088 67.8241 35.0082 67.6874 34.6936C67.3687 33.9746 66.5489 33.66 65.8203 33.9297C65.0916 34.2442 64.7728 35.0532 65.0461 35.7722C65.7292 37.3901 67.0954 42.1987 65.0461 44.7603C63.5887 46.6029 60.4919 47.1871 55.8923 46.513C55.1181 46.3782 54.3894 46.9175 54.2983 47.6815C54.1617 48.4455 54.7082 49.1645 55.4824 49.2993Z" fill="black"/>
<path d="M2 64.3555C2 64.3555 4.76958 67.7172 10.672 67.9662C13.2599 68.0493 66.9716 67.9663 75.1441 67.8417C80.1385 67.7587 82 64.397 82 64.397" stroke="#D60623" stroke-width="3" stroke-linecap="round" stroke-linejoin="round"/>
</svg>
