<svg xmlns="http://www.w3.org/2000/svg" xmlns:xlink="http://www.w3.org/1999/xlink" width="24" height="40" viewBox="0 0 24 40"><defs><path id="fsyna" d="M726.35 375.44l-18.18-17.8a2.24 2.24 0 0 0-1.58-.64c-.6 0-1.16.23-1.58.64l-1.34 1.31a2.16 2.16 0 0 0 0 3.1l15.27 14.94-15.29 14.97a2.15 2.15 0 0 0 0 3.1l1.34 1.3c.42.41.98.64 1.58.64.6 0 1.16-.23 1.58-.64l18.2-17.82c.42-.4.65-.96.65-1.55 0-.59-.23-1.14-.65-1.55z"/></defs><g><g transform="translate(-703 -357)"><use fill="#d60724" xlink:href="#fsyna"/></g></g></svg>