<svg id="Слой_1" data-name="Слой 1" xmlns="http://www.w3.org/2000/svg" viewBox="0 0 52 52"><defs><style>.cls-1{fill:#e8e8e8;}.cls-2{fill:none;stroke:#000;stroke-linecap:round;stroke-miterlimit:10;stroke-width:2px;}.cls-3{isolation:isolate;font-size:26.79px;fill:#6cb615;font-family:Roboto-Medium, Roboto;letter-spacing:-0.04em;}</style></defs><title>30min</title><path class="cls-1" d="M26,52A26,26,0,0,0,26,0Z"/><path d="M26,2A24,24,0,1,1,2,26,24,24,0,0,1,26,2m0-2A26,26,0,1,0,52,26,26,26,0,0,0,26,0Z"/><line class="cls-2" x1="26.01" y1="6.91" x2="26.01" y2="2"/><line class="cls-2" x1="26" y1="50" x2="26" y2="45.09"/><line class="cls-2" x1="45.09" y1="26" x2="50" y2="26"/><line class="cls-2" x1="2" y1="26" x2="6.91" y2="26"/><text class="cls-3" transform="translate(11.58 35.99) scale(1.02 1)">30</text></svg>