<svg id="Слой_1" data-name="Слой 1" xmlns="http://www.w3.org/2000/svg" viewBox="0 0 52 52"><defs><style>.cls-1,.cls-2{stroke:#fff;}.cls-1{stroke-miterlimit:10;stroke-width:0.5px;}.cls-2,.cls-3,.cls-7{fill:none;stroke-linecap:round;stroke-linejoin:round;}.cls-2{stroke-width:4px;}.cls-3{stroke:#6cb615;stroke-width:2px;}.cls-4,.cls-5,.cls-6{isolation:isolate;}.cls-5{font-size:9.04px;}.cls-5,.cls-6{font-family:Roboto-Black, Roboto;}.cls-6{font-size:6.54px;}.cls-7{stroke:#000;stroke-width:1.5px;}</style></defs><title>2mm</title><g id="source"><path class="cls-1" d="M45.9,28.9a5.74,5.74,0,0,1-4.1,2.7H10.9c-4.4-.1-6.4-2.8-6.4-5.2,0-1.6,1-2.9,2.2-2.9a60.62,60.62,0,0,0,6.4-.6c4.5-.9,12.3-4.4,15.6-9.7,1.1-1.6.7-2.4.8-6.6V6.2a1,1,0,0,1,1-1,.94.94,0,0,1,1,1v.4c0,5.7-.2,6.1-1,7.6-2.8,4.7-12.2,9.7-17,10.6a43.13,43.13,0,0,1-6.7.7c-.2-.1-.4.3-.4,1,0,1.1,1,3.3,4.5,3.4H41.6a4.23,4.23,0,0,0,2.7-1.8c.9-1.5.7-3.9-.7-6.9l-.3-.6a16.39,16.39,0,0,1-1.5-5.1v-.4a1,1,0,0,1,1-.9,1,1,0,0,1,1,.8v.2a16.57,16.57,0,0,0,1.4,4.7l.2.5C46.9,23.9,47,26.8,45.9,28.9Z"/><path class="cls-1" d="M39.8,20.3a4.31,4.31,0,0,1-3.6,1.4c-.5,0-1-.1-1.7-.1h0a.78.78,0,0,1-.6-.9.55.55,0,0,1,.3-.5.66.66,0,0,1,.6-.1c1.9.3,3.2,0,3.8-.7.8-1.1.3-3.1,0-3.8a.73.73,0,0,1,.4-1,.82.82,0,0,1,1,.4C40.1,15.2,41.4,18.3,39.8,20.3Z"/><polyline class="cls-2" points="19.5 28.5 15.6 32.4 11.7 28.5"/><path class="cls-3" d="M4.5,32.46a6.53,6.53,0,0,0,4.7,2.2c1.4,0,30.3,0,34.7-.1a4.1,4.1,0,0,0,3.7-2.1"/><path d="M26,2A24,24,0,1,1,2,26,24.07,24.07,0,0,1,26,2m0-2A26,26,0,1,0,52,26,25.95,25.95,0,0,0,26,0Z"/><g class="cls-4"><text class="cls-5" transform="translate(22.38 45.05) scale(1.02 1)">2</text><text class="cls-6" transform="translate(27.67 45.05) scale(1.02 1)">m</text><text class="cls-6" transform="translate(33.17 45.05) scale(1.02 1)">m</text></g><polyline class="cls-7" points="11.7 40.9 15.6 36.9 19.5 40.9"/><polyline class="cls-7" points="19.5 28.5 15.6 32.4 11.7 28.5"/></g></svg>