<svg width="212" height="150" viewBox="0 0 212 150" fill="none" xmlns="http://www.w3.org/2000/svg">
<path fill-rule="evenodd" clip-rule="evenodd" d="M139.401 95.375L130.308 101.087L176 128.442V132.694L163.612 150H159.541L158.99 149.655L106 116.36L52.4568 150H48.3855L36 132.697V128.445L81.6874 101.085L72.5965 95.3727C62.7694 89.1987 56.1623 79.5274 53.9923 68.1436C51.8223 56.7598 54.4077 45.3445 61.2745 36L64.9168 38.6657C58.7997 46.9917 56.4942 57.1609 58.4294 67.3031C60.3645 77.4431 66.249 86.0598 75.0035 91.5579L160.844 145.493H161.289L171.484 131.25V130.995L104.837 91.0937L107.161 87.2292L125.966 98.4891L136.994 91.5601C145.749 86.062 151.635 77.4453 153.568 67.3054C155.504 57.1632 153.198 46.994 147.081 38.6679L150.723 36.0023C157.59 45.3468 160.175 56.7621 158.005 68.1459C155.835 79.5296 149.228 89.2009 139.401 95.375ZM50.7113 145.493H51.1539L101.759 113.699L85.9732 103.78L40.5161 130.998V131.252L50.7113 145.493Z" fill="#333333"/>
<path d="M105.162 91L104.395 90.7192C78.1317 81.1535 67.5362 66.4264 63.2756 55.7534C58.6786 44.2426 60.2259 34.9913 60.3448 34.3175C62.8854 19.0918 72.0951 10 84.9801 10C93.0416 10 100.417 13.8699 105.009 20.3069C109.6 13.8699 116.973 10 125.034 10C139.083 10 147.652 22.6091 149.667 34.3243C149.732 34.6522 156.478 72.3087 105.927 90.7192L105.162 91Z" fill="#D60623"/>
<path d="M71.8686 53.6857C68.1233 44.3273 69.4268 37.0932 69.44 37.021C71.2257 26.0638 76.7413 20 84.963 20C90.811 20 96.0866 23.342 98.7288 28.7202L94.7941 30.7452C92.905 26.9004 89.1376 24.5101 84.963 24.5101C77.5075 24.5101 74.7641 31.7465 73.7732 37.8193C73.7578 37.9095 72.7802 44.0702 75.942 51.9741L71.8686 53.6857Z" fill="#333333"/>
<path d="M76.3337 61.9049C75.3804 60.5428 74.5084 59.1267 73.7422 57.6947L77.602 55.5254C78.2846 56.7972 79.0618 58.0623 79.9139 59.2778L76.3337 61.9049Z" fill="#333333"/>
</svg>
