<svg width="212" height="150" viewBox="0 0 212 150" fill="none" xmlns="http://www.w3.org/2000/svg">
<path d="M106.464 84.6776C96.4204 84.6776 94.2949 79.2679 94.2076 79.0381L89.6221 80.6034C89.7457 80.9687 92.7583 89.5163 106.464 89.5163C120.17 89.5163 123.182 80.9687 123.303 80.6034L118.708 79.072C118.689 79.13 116.554 84.6776 106.464 84.6776Z" fill="#333333"/>
<path d="M121.006 55.6455H125.853V60.4842H121.006V55.6455Z" fill="#333333"/>
<path d="M87.0742 55.6455H91.9215V60.4842H87.0742V55.6455Z" fill="#333333"/>
<path d="M118.582 36.29H125.853V41.1287H118.582V36.29Z" fill="#333333"/>
<path fill-rule="evenodd" clip-rule="evenodd" d="M159.937 124.478C156.556 113.681 147.14 105.595 135.945 103.877L123.429 101.956V99.4742C131.585 94.7468 137.603 86.7314 139.634 77.2524C145.523 76.4323 150.089 71.4242 150.089 65.3226V37.0742C150.089 27.2782 144.081 18.5734 135.017 15.046C131.483 5.99757 122.763 0 112.949 0H106.464C82.409 0 62.838 19.5363 62.838 43.5484V65.3226C62.838 71.4242 67.4042 76.4323 73.2936 77.2524C75.3247 86.7314 81.3426 94.7468 89.4981 99.4742V101.956L76.9824 103.88C65.7876 105.598 56.3693 113.683 52.9908 124.481L45 150H167.927L159.937 124.478ZM140.293 72.1668C140.304 71.9811 140.316 71.7959 140.329 71.6108C140.362 71.1303 140.395 70.6501 140.395 70.1612V58.5096C143.209 59.5112 145.242 62.1725 145.242 65.3224C145.242 68.5087 143.16 71.1942 140.293 72.1668ZM72.5326 58.5096C69.7187 59.5113 67.6853 62.1725 67.6853 65.3225C67.6853 68.5088 69.7672 71.1943 72.6344 72.1669C72.6236 71.9811 72.6109 71.7959 72.5983 71.6108C72.5654 71.1304 72.5326 70.6502 72.5326 70.1613V58.5096ZM77.3799 70.1613V45.9678H72.5326V53.4702C70.7318 53.8379 69.1007 54.6363 67.6853 55.7057V43.5484C67.6853 42.919 67.7284 42.301 67.7714 41.6834C67.7843 41.4987 67.7972 41.314 67.8089 41.1291H94.3454V36.2904H68.393C69.045 32.8815 70.1623 29.6444 71.648 26.6129H94.3454V21.7742H74.4279C81.4153 11.5597 93.1651 4.83875 106.464 4.83875H112.949C121.073 4.83875 128.255 10.0089 130.826 17.7L131.207 18.8492L132.358 19.2291C134.168 19.8339 135.826 20.7097 137.324 21.7742H118.582V26.6129H142.019C143.911 29.4291 145.031 32.7533 145.179 36.2904H130.7V41.1291H145.242V55.7081C143.827 54.6387 142.195 53.8379 140.395 53.4726V45.9678H135.547V70.1613C135.547 86.1702 122.501 99.1936 106.464 99.1936C90.4264 99.1936 77.3799 86.1702 77.3799 70.1613ZM70.3925 145.161L72.552 127.926L77.3605 128.526L75.2786 145.161H104.04V140.323H108.887V145.161H137.649L135.567 128.526L140.375 127.926L142.535 145.161H161.335L155.312 125.92C152.479 116.877 144.588 110.1 135.206 108.661L118.582 106.108V101.777C114.815 103.222 110.734 104.032 106.464 104.032C102.193 104.032 98.1117 103.222 94.3454 101.777V106.108L77.7192 108.661C68.3372 110.1 60.4459 116.877 57.6126 125.92L51.5923 145.161H70.3925Z" fill="#333333"/>
<path d="M133.964 116L129.055 104H119.237L106.964 140L131.509 130.4L121.691 123.2L133.964 116Z" fill="#D60623"/>
<path d="M106.964 140L94.6911 104H84.873L79.9639 116L92.2366 123.2L82.4184 130.4L106.964 140Z" fill="#D60623"/>
<path d="M106.964 49C97.592 49 89.9639 41.3719 89.9639 32C89.9639 22.6281 97.592 15 106.964 15C116.336 15 123.964 22.6281 123.964 32C123.964 41.3719 116.336 49 106.964 49Z" fill="#D60623"/>
<path fill-rule="evenodd" clip-rule="evenodd" d="M99.9639 31.5C99.9639 35.635 103.329 39 107.464 39C111.599 39 114.964 35.635 114.964 31.5C114.964 27.365 111.599 24 107.464 24C103.329 24 99.9639 27.365 99.9639 31.5ZM104.964 31.5C104.964 30.12 106.084 29 107.464 29C108.844 29 109.964 30.12 109.964 31.5C109.964 32.88 108.844 34 107.464 34C106.084 34 104.964 32.88 104.964 31.5Z" fill="#333333"/>
</svg>
