<svg width="212" height="150" viewBox="0 0 212 150" fill="none" xmlns="http://www.w3.org/2000/svg">
<path d="M115.739 99.0345C134.38 99.0345 149.492 83.9226 149.492 65.2812C149.492 46.6397 134.38 31.5278 115.739 31.5278C97.0972 31.5278 81.9854 46.6397 81.9854 65.2812C81.9854 83.9226 97.0972 99.0345 115.739 99.0345Z" fill="#D60623"/>
<path d="M165.817 9.82948C148.892 9.82948 132.346 6.64214 116.636 0.359521L115.739 0L114.845 0.359007C99.1329 6.64214 82.5861 9.82897 65.6614 9.82897H60.2871V60.4592H48.2326C44.2449 60.4592 41 63.7042 41 67.6918V108.678C41 112.666 44.2449 115.911 48.2326 115.911H69.9309C69.9355 115.911 69.9381 115.911 69.9427 115.911C75.6375 124.96 83.5284 132.433 92.9361 137.562L115.739 150L138.541 137.562C158.682 126.578 171.19 105.503 171.19 82.5633V9.82948H165.817ZM45.8214 108.678V67.6918C45.8214 66.3633 46.9015 65.2811 48.2321 65.2811H69.9304C71.261 65.2811 72.3411 66.3638 72.3411 67.6918V108.678C72.3411 110.007 71.261 111.089 69.9304 111.089H48.2326C46.9015 111.089 45.8214 110.007 45.8214 108.678ZM77.164 72.4926C85.2144 72.0565 91.6297 65.368 91.6297 57.2122V44.7884C91.6297 41.4663 94.3326 38.7609 97.6572 38.7609C100.982 38.7609 103.685 41.4658 103.685 44.7884V59.9629C103.685 64.2252 107.152 67.6923 111.414 67.6923H129.089C133.691 67.6923 137.438 71.4367 137.438 76.0415V102.74C137.438 107.345 133.692 111.089 129.089 111.089H93.5657C91.6513 111.089 89.8769 110.137 88.8137 108.546C86.8562 105.61 83.5793 103.857 80.05 103.857H77.164V72.4926ZM166.369 82.5628C166.369 103.736 154.823 123.19 136.235 133.328L115.739 144.507L95.244 133.328C86.8562 128.752 79.7681 122.163 74.5558 114.192C76.0191 112.962 76.9814 111.178 77.1162 109.153C81.9813 117.545 88.9876 124.422 97.5538 129.094L115.74 139.015L133.926 129.094C150.964 119.802 161.548 101.973 161.548 82.5649V45.9935H156.726V82.5654C156.726 100.206 147.107 116.415 131.618 124.861L115.74 133.521L99.8612 124.861C93.0673 121.155 87.3602 115.919 83.0712 109.582C83.7439 110.004 84.3467 110.54 84.8024 111.222C86.76 114.158 90.0368 115.911 93.5662 115.911H129.089C136.353 115.911 142.26 110.002 142.26 102.74V76.0415C142.26 68.7796 136.354 62.8704 129.089 62.8704H111.415C109.812 62.8704 108.507 61.5661 108.507 59.9629V44.7884C108.507 38.8067 103.639 33.939 97.6577 33.939C91.676 33.939 86.8083 38.8067 86.8083 44.7884V57.2096C86.8083 62.7069 82.5435 67.1764 77.1548 67.608C77.1306 65.5131 76.2022 63.6465 74.7533 62.3401V24.018C88.7561 23.1575 102.53 20.2957 115.739 15.4975C128.949 20.2952 142.72 23.157 156.725 24.018V26.7064H161.547V19.4301L159.247 19.3241C144.651 18.6565 130.294 15.7438 116.576 10.6689L115.739 10.3577L114.902 10.6663C101.181 15.7413 86.8238 18.6539 72.2305 19.3216L69.9304 19.4301V60.4597H65.1085V14.6514H65.6604C82.8819 14.6514 99.7223 11.4687 115.738 5.19068C131.754 11.4687 148.595 14.6514 165.816 14.6514H166.368V82.5628H166.369Z" fill="black"/>
<path d="M161.547 36.3496H156.726V41.1715H161.547V36.3496Z" fill="black"/>
<path d="M67.52 101.445H50.6436V106.267H67.52V101.445Z" fill="black"/>
</svg>
