<svg width="212" height="150" viewBox="0 0 212 150" fill="none" xmlns="http://www.w3.org/2000/svg">
<path fill-rule="evenodd" clip-rule="evenodd" d="M54 68.5C54 45.0282 72.8043 26 96 26C119.196 26 138 45.0282 138 68.5C138 91.9718 119.196 111 96 111C72.8043 111 54 91.9718 54 68.5ZM72.6667 68.5C72.6667 81.5405 83.113 92.1111 96 92.1111C108.887 92.1111 119.333 81.5405 119.333 68.5C119.333 55.4596 108.887 44.8889 96 44.8889C83.113 44.8889 72.6667 55.4596 72.6667 68.5Z" fill="#D60623"/>
<path fill-rule="evenodd" clip-rule="evenodd" d="M166.306 112.581C172.754 112.581 178 117.826 178 124.274C178 126.816 177.151 129.277 175.617 131.29C177.151 133.306 178 135.767 178 138.306C178 144.754 172.754 150 166.306 150L163.441 149.942L133.298 142.984H58.7258C53.0778 142.984 48.3559 138.959 47.2684 133.629H33V128.952H47.2684C48.3559 123.622 53.0801 119.597 58.7258 119.597H59.5139C42.9722 107.84 33 88.8194 33 68.1452C33 33.3264 61.3264 5 96.1451 5C124.918 5 149.669 24.1213 157.075 51.704C159.739 50.2283 162.742 49.4355 165.787 49.4355C171.898 49.4355 177.102 53.7668 177.89 59.5107C178.313 62.6094 177.478 65.6989 175.619 68.1452C177.478 70.5914 178.316 73.6809 177.892 76.7773C177.104 82.5212 171.9 86.8548 165.787 86.8548C162.751 86.8548 159.76 86.069 157.108 84.6027C153.298 98.8197 144.704 111.112 132.743 119.597H133.316L163.968 112.581H166.306ZM131.226 124.274H65.7419V138.306H131.226V124.274ZM165.785 54.1129C169.571 54.1129 172.782 56.7065 173.252 60.1468C173.542 62.2563 172.848 64.2629 171.414 65.8065H166.306V70.4839H171.416C172.85 72.0298 173.545 74.034 173.255 76.1436C172.784 79.5838 169.573 82.1774 165.787 82.1774C163.481 82.1774 161.208 81.5741 159.208 80.4328L147.597 73.8049V70.4862H161.629V65.8088H147.597V62.4902L159.208 55.8623C161.206 54.7163 163.481 54.1129 165.785 54.1129ZM96.1451 9.67743C63.906 9.67743 37.6774 35.9061 37.6774 68.1452C37.6774 89.7315 49.4341 109.353 68.3963 119.597H123.913C138.536 111.692 148.965 98.2069 152.901 82.2172L144.638 77.5H139.537C137.224 88.223 130.915 97.9333 121.922 104.346L119.205 100.539C126.981 94.9936 132.519 86.7005 134.755 77.5H120.107C116.277 87.3577 106.861 93.871 96.1474 93.871C81.9632 93.871 70.4216 82.3295 70.4216 68.1452C70.4216 53.9609 81.9632 42.4194 96.1474 42.4194C106.861 42.4194 116.274 48.9327 120.107 58.7903H134.771C130.51 41.0208 114.707 28.3871 96.1474 28.3871C74.2244 28.3871 56.3894 46.2221 56.3894 68.1452C56.3894 90.0682 74.2244 107.903 96.1474 107.903C103.014 107.903 109.78 106.126 115.715 102.763L118.021 106.832C111.384 110.593 103.818 112.581 96.1451 112.581C71.6424 112.581 51.7096 92.6478 51.7096 68.1452C51.7096 43.6425 71.6424 23.7097 96.1451 23.7097C117.264 23.7097 135.18 38.3547 139.547 58.7903H144.636L152.887 54.0802C146.427 27.91 123.195 9.67743 96.1451 9.67743ZM110.177 72.8226C107.598 72.8226 105.5 70.7248 105.5 68.1452C105.5 65.5656 107.598 63.4678 110.177 63.4678H142.919V72.8226H110.177ZM91.4676 65.8065H101.155C102.2 61.7839 105.83 58.7903 110.177 58.7903H115.009C111.506 51.683 104.281 47.0968 96.145 47.0968C84.538 47.0968 75.0967 56.5405 75.0967 68.1452C75.0967 79.7498 84.538 89.1936 96.145 89.1936C104.281 89.1936 111.503 84.605 115.007 77.5H110.177C105.83 77.5 102.2 74.5065 101.155 70.4839H91.4676V65.8065ZM51.7097 131.29C51.7097 127.422 54.8576 124.274 58.7258 124.274H61.0645V138.306H58.7258C54.8576 138.306 51.7097 135.161 51.7097 131.29ZM166.306 128.952H171.435C172.637 127.654 173.322 126.035 173.322 124.274C173.322 120.406 170.174 117.258 166.306 117.258H164.234L135.903 123.795V128.952H161.629V133.629H135.903V138.786L164.234 145.323H166.306C170.174 145.323 173.322 142.175 173.322 138.306C173.322 136.548 172.635 134.927 171.433 133.629H166.306V128.952Z" fill="#333333"/>
</svg>
