<svg width="212" height="150" viewBox="0 0 212 150" fill="none" xmlns="http://www.w3.org/2000/svg">
<path d="M125.862 0.0886608C117.24 0.698427 109.215 4.76516 103.103 10.9236L102.886 11.1398L102.671 10.9236C96.5587 4.76516 88.5342 0.698427 79.9117 0.0886608C59.5948 -1.34951 42.6055 14.898 42.6055 35.0664C42.6055 44.434 46.2247 53.2404 52.8001 59.8628L93.9522 101.325L99.1724 96.0601C102.787 92.4161 108.376 91.6678 112.808 94.2357L116.646 96.4609L152.971 59.8628C159.547 53.2404 163.166 44.434 163.166 35.0664C163.166 14.898 146.177 -1.34951 125.862 0.0886608Z" fill="#D60623"/>
<path fill-rule="evenodd" clip-rule="evenodd" d="M152.932 116.024V108.744H177V150H152.932V145.68L143.543 147.573H91.1454C88.83 147.573 86.5147 147.284 84.2668 146.719L65.465 141.979C60.4734 140.722 55.9173 138.121 52.2807 134.454L38.1962 120.254C36.136 118.177 35 115.413 35 112.471C35 106.402 39.8954 101.463 45.9147 101.463H46.2445C48.8895 101.463 51.4407 102.429 53.4311 104.189L56.6682 107.045C56.714 101.284 61.3663 96.6096 67.0896 96.6096C70.3532 96.6096 73.4724 98.1822 75.4339 100.815L87.4558 116.976L94.4619 116.092L99.9855 113.309L97.326 111.163C94.4258 108.824 92.7627 105.334 92.7627 101.589C92.7627 94.8307 98.2189 89.3291 104.924 89.3291H106.238C108.946 89.3291 111.613 90.2586 113.75 91.9477L144.138 116.024H152.932ZM61.4739 107.124V111.17H61.3463L65.6184 114.939C68.6244 117.591 72.6847 118.839 76.6342 118.341L81.9532 117.671L71.5824 103.729C70.5282 102.309 68.8459 101.463 67.0889 101.463C63.9938 101.463 61.4739 104.003 61.4739 107.124ZM143.067 142.719H91.1455C89.2224 142.719 87.2994 142.481 85.4318 142.01L66.63 137.271C62.4879 136.227 58.7045 134.067 55.684 131.022L41.5995 116.822C40.449 115.66 39.8137 114.114 39.8137 112.471C39.8137 109.078 42.5526 106.316 45.9148 106.316H46.2446C47.7223 106.316 49.1496 106.858 50.2639 107.838L62.447 118.589C66.4784 122.147 71.9177 123.826 77.2319 123.156L95.8772 120.807L104.048 116.689C104.891 117.579 105.533 118.642 105.923 119.822C106.626 121.948 106.467 124.222 105.473 126.224L105.052 127.071L109.353 129.245L109.776 128.396C111.343 125.231 111.596 121.639 110.489 118.286C109.685 115.856 108.214 113.73 106.234 112.131L100.332 107.372C98.58 105.962 97.5764 103.853 97.5764 101.589C97.5764 97.5046 100.871 94.1823 104.924 94.1823H106.238C107.875 94.1823 109.49 94.7453 110.778 95.7646L142.472 120.877H152.932V140.729L143.067 142.719ZM157.746 145.146H172.186V113.597H157.746V145.146Z" fill="#333333"/>
<path d="M162.561 118.449H167.374V123.303H162.561V118.449Z" fill="#333333"/>
<path d="M58.293 42.6354C57.21 40.0945 56.6612 37.3789 56.6612 34.5662C56.6612 23.279 65.7685 14.0959 76.9624 14.0959V9.24219C63.1138 9.24219 51.8477 20.6022 51.8477 34.5662C51.8477 38.0414 52.5264 41.4001 53.8694 44.5502L58.293 42.6354Z" fill="#333333"/>
<path d="M59.2035 52.472L62.6067 49.0404C61.6873 48.1134 60.8522 47.0965 60.1302 46.0166L56.1445 48.7371C57.0374 50.0718 58.0675 51.3289 59.2035 52.472Z" fill="#333333"/>
<path d="M92.1914 73.96L109.348 36.46H86.8164V28.335H119.598V34.3975L102.316 73.96H92.1914Z" fill="white"/>
</svg>
