<svg width="212" height="150" viewBox="0 0 212 150" fill="none" xmlns="http://www.w3.org/2000/svg">
<path fill-rule="evenodd" clip-rule="evenodd" d="M152.595 37H123.786V42.7949H152.595C157.36 42.7949 161.238 46.6946 161.238 51.4874V63.1526C158.824 61.3124 155.851 60.18 152.595 60.18H60.405C55.64 60.18 51.7619 56.2803 51.7619 51.4874C51.7619 46.6946 55.64 42.7949 60.405 42.7949H92.0956V37H60.405C52.4625 37 46 43.4989 46 51.4874V135.513C46 143.5 52.4619 150 60.405 150H152.595C160.537 150 167 143.501 167 135.513V126.82V86.256V74.6663V51.4868C166.999 43.4989 160.537 37 152.595 37ZM161.238 121.026H126.666C118.724 121.026 112.261 114.527 112.261 106.538C112.261 98.5497 118.723 92.0508 126.666 92.0508H161.238V121.026ZM126.666 86.2567H161.237V74.667C161.237 69.8741 157.359 65.9744 152.594 65.9744H60.4044C57.163 65.9744 54.1698 64.8933 51.7612 63.0711V135.513C51.7612 140.306 55.6394 144.205 60.4044 144.205H152.594C157.36 144.205 161.237 140.305 161.237 135.513V126.821H126.666C115.546 126.821 106.499 117.721 106.499 106.539C106.499 95.3573 115.546 86.2567 126.666 86.2567Z" fill="#333333"/>
<path d="M61 49H153V55H61V49Z" fill="#333333"/>
<path d="M107 52C119.703 52 130 41.7025 130 29C130 16.2975 119.703 6 107 6C94.2975 6 84 16.2975 84 29C84 41.7025 94.2975 52 107 52Z" fill="#D60623"/>
<path d="M109.375 37.2498H103.625C102.041 37.2498 100.75 35.9401 100.75 34.3329H95C95 39.1569 98.8694 43.0831 103.625 43.0831V46H109.375V43.0831C114.13 43.0831 118 39.1575 118 34.3329C118 29.5083 114.131 25.5828 109.375 25.5828H103.625C102.041 25.5828 100.75 24.273 100.75 22.6658C100.75 21.0587 102.041 19.7502 103.625 19.7502H109.375C110.959 19.7502 112.25 21.0599 112.25 22.6671H118C118 17.8431 114.131 13.9169 109.375 13.9169V11H103.625V13.9169C98.87 13.9169 95 17.8425 95 22.6671C95 27.4917 98.8694 31.4172 103.625 31.4172H109.375C110.959 31.4172 112.25 32.727 112.25 34.3342C112.25 35.9413 110.959 37.2498 109.375 37.2498Z" fill="#333333"/>
<path fill-rule="evenodd" clip-rule="evenodd" d="M127.5 115C122.813 115 119 111.186 119 106.5C119 101.814 122.813 98 127.5 98C132.187 98 136 101.813 136 106.5C136 111.187 132.187 115 127.5 115ZM127.499 109.334C129.061 109.334 130.333 108.064 130.333 106.5C130.333 104.936 129.061 103.666 127.499 103.666C125.938 103.666 124.666 104.936 124.666 106.5C124.666 108.064 125.938 109.334 127.499 109.334Z" fill="#333333"/>
</svg>
