<svg id="Слой_1" data-name="Слой 1" xmlns="http://www.w3.org/2000/svg" viewBox="0 0 52 52"><defs><style>.cls-1{stroke:#000;stroke-miterlimit:10;stroke-width:0.5px;}</style></defs><title>correction</title><path d="M26,2A24,24,0,1,1,2,26,24.07,24.07,0,0,1,26,2m0-2A26,26,0,1,0,52,26,25.95,25.95,0,0,0,26,0Z"/><path class="cls-1" d="M41.91,12,39.85,10a3.77,3.77,0,0,0-5-.17l-3.6,3.13a.53.53,0,0,0-.12.14l-3.51,5.85-2.26.75a.58.58,0,0,0-.38.42.57.57,0,0,0,.15.54l6.15,6.15a.58.58,0,0,0,.41.17l.13,0a.58.58,0,0,0,.42-.38L33,24.29l5.94-3.58a.53.53,0,0,0,.14-.12l3.05-3.54A3.75,3.75,0,0,0,41.91,12Zm-.7,4.27-3,3.46-6,3.65a.55.55,0,0,0-.25.31l-.52,1.57L30,23.91h0L28,21.86h0l-1.38-1.39L28.16,20a.55.55,0,0,0,.31-.25l3.57-6,3.54-3.06a2.57,2.57,0,0,1,3.45.11l2.06,2.06A2.59,2.59,0,0,1,41.21,16.3Zm-1,15.9a6.38,6.38,0,0,0-6.47-1.56L21.47,18.33a6.37,6.37,0,0,0-8.39-7.9.58.58,0,0,0-.2,1l3.69,3.68-2.46,2.46-3.69-3.69a.6.6,0,0,0-.53-.15.57.57,0,0,0-.42.35,6.38,6.38,0,0,0,7.91,8.4L22,27l-5.73,5.74-3.65,2a.72.72,0,0,0-.24.25l-1.64,3.28a.6.6,0,0,0,.11.67l2.05,2a.58.58,0,0,0,.67.11l3.28-1.64a.62.62,0,0,0,.24-.24l2-3.65,5.74-5.73,4.84,4.84a6.37,6.37,0,0,0,6.07,8.34,6.24,6.24,0,0,0,2.32-.44.57.57,0,0,0,.36-.42.58.58,0,0,0-.16-.53L34.6,38l2.46-2.46,3.68,3.69a.6.6,0,0,0,.53.15.57.57,0,0,0,.42-.35A6.36,6.36,0,0,0,40.26,32.2Zm-22,2.67a.64.64,0,0,0-.1.13l-2,3.56-2.74,1.37L12,38.47l1.37-2.74,3.56-2,.13-.1,5.79-5.79L24,29.08Zm22.63,2.86-3.4-3.41a.57.57,0,0,0-.82,0L33.37,37.6a.57.57,0,0,0-.17.41.58.58,0,0,0,.17.41l3.4,3.4a5.21,5.21,0,0,1-5.87-7,.59.59,0,0,0-.13-.62L17.94,21.35a.58.58,0,0,0-.41-.17.54.54,0,0,0-.22,0,5.22,5.22,0,0,1-7-5.88l3.41,3.41a.57.57,0,0,0,.82,0l3.28-3.28a.59.59,0,0,0,0-.82l-3.41-3.41a5.22,5.22,0,0,1,5.87,7,.59.59,0,0,0,.13.62L33.23,31.72a.55.55,0,0,0,.62.13,5.22,5.22,0,0,1,7,5.88Z"/></svg>