<svg xmlns="http://www.w3.org/2000/svg" xmlns:xlink="http://www.w3.org/1999/xlink" width="26" height="26" viewBox="0 0 26 26"><defs><path id="43apa" d="M796.61 432.57a3.03 3.03 0 0 1-2.15 1.43h-16.11c-2.3-.05-3.35-1.48-3.35-2.75 0-.86.5-1.53 1.15-1.53.95 0 2.55-.2 3.35-.3 2.35-.46 6.4-2.34 8.16-5.14.55-.87.35-1.28.4-3.52v-.25c0-.26.2-.51.5-.51s.5.2.5.5v.21c0 3.06-.1 3.26-.5 4.02-1.45 2.5-6.36 5.15-8.86 5.66-.75.15-2.5.35-3.5.35-.1-.05-.2.15-.2.51 0 .61.5 1.73 2.35 1.78h16.01c.15-.05 1-.2 1.4-.96.45-.82.35-2.1-.35-3.67l-.15-.3c-.3-.72-.65-1.48-.8-2.7v-.2c0-.26.25-.47.5-.47s.45.16.5.41v.1c.15 1.17.45 1.89.75 2.5l.1.25c.8 1.94.9 3.46.3 4.58z"/><path id="43apb" d="M792.65 427.41c-.32.38-.85.59-1.61.59-.23 0-.45-.04-.76-.04-.18-.04-.32-.21-.27-.38 0-.08.04-.17.13-.21.1-.04.18-.08.27-.04.85.12 1.43 0 1.7-.3.36-.46.13-1.3 0-1.6-.09-.16 0-.33.18-.41.18-.05.36 0 .45.16.04.09.62 1.4-.1 2.23z"/><path id="43apc" d="M781.5 441c-.3 0-.5-.2-.5-.5v-4c0-.3.2-.5.5-.5s.5.2.5.5v4c0 .3-.2.5-.5.5z"/><path id="43apd" d="M783.5 439c-.3 0-.5-.2-.5-.5v-2c0-.3.2-.5.5-.5s.5.2.5.5v2c0 .3-.2.5-.5.5z"/><path id="43ape" d="M785.5 439c-.3 0-.5-.2-.5-.5v-2c0-.3.2-.5.5-.5s.5.2.5.5v2c0 .3-.2.5-.5.5z"/><path id="43apf" d="M779.5 439c-.3 0-.5-.2-.5-.5v-2c0-.3.2-.5.5-.5s.5.2.5.5v2c0 .3-.2.5-.5.5z"/><path id="43apg" d="M777.5 439c-.3 0-.5-.2-.5-.5v-2c0-.3.2-.5.5-.5s.5.2.5.5v2c0 .3-.2.5-.5.5z"/><path id="43aph" d="M787.5 439c-.3 0-.5-.2-.5-.5v-2c0-.3.2-.5.5-.5s.5.2.5.5v2c0 .3-.2.5-.5.5z"/><path id="43api" d="M795.5 436c-.3 0-.5.2-.5.5v2.4a11.95 11.95 0 0 1-19-1.3v-1.1c0-.3-.2-.5-.5-.5a.45.45 0 0 0-.35.15A12.04 12.04 0 0 1 786 419c6.6 0 12 5.4 12 12 0 2.45-.75 4.7-2 6.6v-1.1c0-.3-.2-.5-.5-.5zm-9.5-18c-7.2 0-13 5.8-13 13s5.8 13 13 13 13-5.8 13-13-5.8-13-13-13z"/><path id="43apj" d="M789.5 441c-.3 0-.5-.2-.5-.5v-4c0-.3.2-.5.5-.5s.5.2.5.5v4c0 .3-.2.5-.5.5z"/><path id="43apk" d="M791.5 439c-.3 0-.5-.2-.5-.5v-2c0-.3.2-.5.5-.5s.5.2.5.5v2c0 .3-.2.5-.5.5z"/><path id="43apl" d="M793.5 439c-.3 0-.5-.2-.5-.5v-2c0-.3.2-.5.5-.5s.5.2.5.5v2c0 .3-.2.5-.5.5z"/></defs><g><g transform="translate(-773 -418)"><use xlink:href="#43apa"/><use fill="#fff" fill-opacity="0" stroke="#000" stroke-miterlimit="50" stroke-width=".02" xlink:href="#43apa"/></g><g transform="translate(-773 -418)"><use xlink:href="#43apb"/><use fill="#fff" fill-opacity="0" stroke="#000" stroke-miterlimit="50" stroke-width=".02" xlink:href="#43apb"/></g><g transform="translate(-773 -418)"><use xlink:href="#43apc"/></g><g transform="translate(-773 -418)"><use xlink:href="#43apd"/></g><g transform="translate(-773 -418)"><use xlink:href="#43ape"/></g><g transform="translate(-773 -418)"><use xlink:href="#43apf"/></g><g transform="translate(-773 -418)"><use xlink:href="#43apg"/></g><g transform="translate(-773 -418)"><use xlink:href="#43aph"/></g><g transform="translate(-773 -418)"><use xlink:href="#43api"/></g><g transform="translate(-773 -418)"><use xlink:href="#43apj"/></g><g transform="translate(-773 -418)"><use xlink:href="#43apk"/></g><g transform="translate(-773 -418)"><use xlink:href="#43apl"/></g></g></svg>