<svg xmlns="http://www.w3.org/2000/svg" xmlns:xlink="http://www.w3.org/1999/xlink" width="120" height="94" viewBox="0 0 120 94"><defs><path id="hnxea" d="M720.538 497.596l1.475-.233c.967-.135 2.356-.433 4.197-.604 1.83-.246 4.045-.39 6.587-.551l4.053-.078c1.426.052 2.928.065 4.492.155 3.125.202 6.517.481 10.067 1.128a96.806 96.806 0 0 1 11.086 2.555c3.815 1.083 7.695 2.497 11.586 4.126 3.904 1.592 7.759 3.578 11.556 5.71 3.807 2.119 7.451 4.632 10.983 7.205 3.54 2.57 6.833 5.454 9.95 8.345 1.529 1.488 3.041 2.943 4.443 4.476 1.435 1.487 2.777 3.023 4.078 4.527 1.3 1.502 2.473 3.076 3.655 4.537 1.13 1.519 2.211 3 3.206 4.462.967 1.49 1.951 2.863 2.774 4.274.825 1.406 1.638 2.712 2.344 3.986l1.92 3.614c.574 1.13 1.052 2.204 1.508 3.153.458.948.847 1.808 1.152 2.578l.796 1.94.644 1.62c.214.534.023 1.171-.425 1.424-.396.223-.86.073-1.109-.334l-.022-.036-.876-1.426c-.58-.921-1.353-2.325-2.446-4.023l-1.77-2.834-2.156-3.264c-1.542-2.323-3.356-4.866-5.365-7.602-1.012-1.359-2.121-2.717-3.215-4.178-1.16-1.385-2.308-2.88-3.581-4.305-2.468-2.949-5.234-5.85-8.151-8.775-.731-.73-1.495-1.425-2.25-2.148a52.55 52.55 0 0 0-2.319-2.124l-2.375-2.112c-.815-.678-1.634-1.36-2.456-2.042-3.324-2.67-6.785-5.26-10.39-7.55-3.6-2.29-7.274-4.455-11.018-6.237-3.742-1.772-7.485-3.388-11.203-4.56a40.086 40.086 0 0 0-2.765-.867l-2.727-.78c-1.819-.413-3.588-.885-5.337-1.172-3.479-.706-6.806-1.045-9.877-1.304-1.538-.1-3.015-.11-4.416-.166l-3.986.067-3.497.238c-1.081.075-2.059.246-2.948.347-1.77.193-3.188.498-4.144.67l-1.47.279c-.489.092-.947-.305-1.025-.886-.077-.582.256-1.128.745-1.22a.417.417 0 0 1 .022-.005"/><path id="hnxeb" d="M839.561 554.487a93.537 93.537 0 0 0-.058 3.258c-.001 2.175.133 4.346.346 6.502.114 1.078.259 2.15.413 3.219.16 1.067.366 2.124.57 3.178.44 2.102.971 4.169 1.56 6.203.292 1.008-.158 2.108-1.004 2.455a1.379 1.379 0 0 1-1.053.003l-.253-.104-2.325-.949c-.77-.325-1.551-.623-2.318-.96-.767-.332-1.542-.642-2.306-.98l-2.297-1.006a52.461 52.461 0 0 1-4.524-2.256c-1.484-.848-2.955-1.748-4.368-2.914-.427-.351-.532-1.109-.237-1.617.179-.306.463-.542.756-.542.89 0 1.73.174 2.572.291.832.156 1.665.347 2.48.574a32.358 32.358 0 0 1 4.796 1.734 70.459 70.459 0 0 1 4.625 2.281c1.52.82 1.657.943 1.657.943-.168-1.116-.138-1.537-.234-2.658-.1-1.117-.165-2.238-.241-3.354a141.742 141.742 0 0 1-.167-3.352c-.049-1.116-.07-2.233-.092-3.347l-.017-3.346c.006-1.116-.054-2.23-.019-3.345l.03-3.333c0-.61.525-1.069 1.02-1.044.495.025.923.522.903 1.111-.002.032.04.067.036.097-.123 1.101-.184 2.187-.25 3.258z"/></defs><g><g transform="translate(-720 -494)"><use fill="#58b100" xlink:href="#hnxea"/></g><g transform="translate(-720 -494)"><use fill="#58b100" xlink:href="#hnxeb"/></g></g></svg>