<?xml version="1.0" encoding="UTF-8"?>
<svg width="40px" height="40px" viewBox="0 0 40 40" version="1.1" xmlns="http://www.w3.org/2000/svg" xmlns:xlink="http://www.w3.org/1999/xlink">
    <!-- Generator: Sketch 49.3 (51167) - http://www.bohemiancoding.com/sketch -->
    <title>Галочка</title>
    <desc>Created with Sketch.</desc>
    <defs></defs>
    <g id="Галочка" stroke="none" stroke-width="1" fill="none" fill-rule="evenodd">
        <circle id="Oval-9" fill="#5D9D26" cx="20" cy="20" r="20"></circle>
        <path d="M31.0224927,11.3484925 L16.1978837,26.1857329 L9.97736149,19.9842301 C9.55122665,19.536215 8.84080814,19.5176684 8.39141901,19.9430799 C8.37688508,19.9564103 8.36293251,19.9697406 8.34956129,19.9842301 C7.90017216,20.4096416 7.88156873,21.1173084 8.30828493,21.5653235 C8.32165614,21.579813 8.33560872,21.5937229 8.34956129,21.6070533 L15.3845649,28.6199677 C15.8106998,29.0685624 16.5211183,29.0865294 16.9705074,28.6616974 C16.9850414,28.6477875 16.9984126,28.6344572 17.0117838,28.6199677 L32.6508742,12.9713157 C33.099682,12.5459042 33.1182854,11.8382374 32.6921506,11.3902222 C32.6787794,11.3757327 32.6648268,11.3618228 32.6508742,11.3484925 C32.2235767,10.9004774 31.5137395,10.8819308 31.0643504,11.3073423 C31.0503978,11.3206727 31.0358639,11.3345826 31.0224927,11.3484925" id="Fill-1" fill="#ffffff"></path>
    </g>
</svg>