<svg width="42" height="42" viewBox="0 0 42 42" fill="none" xmlns="http://www.w3.org/2000/svg">
<g clip-path="url(#clip0)">
<path d="M31.3429 15.1895L24.98 21.553L31.3429 27.9162C32.2894 28.863 32.2894 30.3967 31.3429 31.3435C30.87 31.8164 30.25 32.0531 29.6304 32.0531C29.0096 32.0531 28.3896 31.8168 27.9171 31.3435L21.5528 24.9796L15.189 31.3435C14.7162 31.8164 14.0961 32.053 13.4759 32.053C12.8558 32.053 12.2362 31.8167 11.7629 31.3435C10.8165 30.3971 10.8165 28.8633 11.7629 27.9162L18.1256 21.5529L11.7626 15.1895C10.8161 14.243 10.8161 12.709 11.7626 11.7625C12.7088 10.8168 14.242 10.8168 15.1886 11.7625L21.5527 18.126L27.9163 11.7625C28.8631 10.8168 30.3965 10.8168 31.3426 11.7625C32.2894 12.709 32.2894 14.243 31.3429 15.1895Z" fill="white"/>
</g>
<circle cx="21" cy="21" r="20" stroke="white" stroke-width="2"/>
<defs>
<clipPath id="clip0">
<rect x="11.0527" y="11.0527" width="21" height="21" fill="white"/>
</clipPath>
</defs>
</svg>
