<svg width="260" height="55" viewBox="0 0 260 55" fill="none" xmlns="http://www.w3.org/2000/svg">
<path d="M76.7542 47.9831C76.7542 48.4376 76.6755 48.8451 76.5025 49.2212C76.3294 49.5973 76.0935 49.9264 75.7946 50.1928C75.4957 50.4592 75.1339 50.6786 74.7249 50.8353C74.3159 50.992 73.8597 51.0547 73.3878 51.0547C72.9002 51.0547 72.4597 50.9763 72.0507 50.8353C71.6417 50.6786 71.2957 50.4748 70.9811 50.1928C70.6822 49.9264 70.4462 49.5973 70.2732 49.2212C70.1001 48.8451 70.0215 48.4376 70.0215 47.9831C70.0215 47.5287 70.1001 47.1212 70.2732 46.7451C70.4462 46.369 70.6822 46.0399 70.9811 45.7735C71.2799 45.5071 71.6417 45.2877 72.0507 45.131C72.4597 44.9743 72.9002 44.9116 73.3878 44.9116C73.8755 44.9116 74.3159 44.99 74.7249 45.131C75.1339 45.2877 75.4957 45.4914 75.7946 45.7735C76.0935 46.0399 76.3294 46.369 76.5025 46.7451C76.6755 47.1212 76.7542 47.5287 76.7542 47.9831ZM75.5272 47.9831C75.5272 47.6854 75.48 47.419 75.3699 47.1683C75.2755 46.9175 75.1339 46.6981 74.9452 46.4944C74.7564 46.3063 74.5362 46.1496 74.2687 46.0399C74.0013 45.9302 73.7024 45.8832 73.3721 45.8832C73.0418 45.8832 72.7429 45.9459 72.4755 46.0399C72.208 46.1496 71.9878 46.3063 71.799 46.4944C71.6103 46.6825 71.4687 46.9018 71.3743 47.1683C71.2799 47.419 71.2327 47.7011 71.2327 47.9831C71.2327 48.2652 71.2799 48.5316 71.3743 48.798C71.4687 49.0488 71.6103 49.2838 71.799 49.4719C71.9878 49.6599 72.208 49.8167 72.4755 49.9264C72.7429 50.0361 73.0418 50.0987 73.3721 50.0987C73.7024 50.0987 74.0013 50.0361 74.2687 49.9264C74.5362 49.8167 74.7564 49.6599 74.9452 49.4719C75.1339 49.2838 75.2755 49.0644 75.3699 48.798C75.48 48.5316 75.5272 48.2652 75.5272 47.9831Z" fill="white"/>
<path d="M79.6484 53.8118H78.4214V45.0517H79.6169V45.9763H79.6484C79.9001 45.6316 80.2147 45.3651 80.6237 45.1771C81.0327 44.989 81.4574 44.895 81.9136 44.895C82.3855 44.895 82.8102 44.9734 83.2035 45.1301C83.5968 45.2868 83.9271 45.5062 84.1945 45.7883C84.4777 46.0703 84.6822 46.3838 84.8237 46.7599C84.9653 47.136 85.044 47.5278 85.044 47.9509C85.044 48.374 84.9653 48.7658 84.8237 49.1419C84.6822 49.518 84.4619 49.8314 84.1945 50.1135C83.9114 50.3956 83.581 50.6149 83.2035 50.7717C82.8102 50.9284 82.3855 51.0224 81.8978 51.0224C81.4731 51.0224 81.0484 50.9284 80.6551 50.756C80.2461 50.5836 79.9315 50.3172 79.6798 49.9724H79.6326V53.8118H79.6484ZM83.8484 47.9665C83.8484 47.6845 83.8012 47.4181 83.7069 47.1516C83.6125 46.9009 83.4709 46.6658 83.2979 46.4778C83.1091 46.2897 82.8889 46.133 82.6215 46.0233C82.354 45.9136 82.0552 45.851 81.7091 45.851C81.3945 45.851 81.0956 45.9136 80.8282 46.0233C80.5607 46.133 80.3248 46.2897 80.136 46.4778C79.9473 46.6658 79.7899 46.8852 79.6956 47.1516C79.5855 47.4024 79.5383 47.6845 79.5383 47.9665C79.5383 48.2643 79.5855 48.5307 79.6956 48.7971C79.8057 49.0478 79.9473 49.2829 80.136 49.471C80.3248 49.659 80.5607 49.8157 80.8282 49.9254C81.0956 50.0351 81.3787 50.0821 81.7091 50.0821C82.0552 50.0821 82.354 50.0195 82.6215 49.9098C82.8889 49.8001 83.1091 49.6433 83.2979 49.4553C83.4866 49.2672 83.6125 49.0478 83.7069 48.7814C83.8012 48.5307 83.8484 48.2486 83.8484 47.9665Z" fill="white"/>
<path d="M85.8467 45.0679H91.3367V45.9925H89.1501V50.8975H87.9231V45.9925H85.8467V45.0679Z" fill="white"/>
<path d="M98.8084 47.9824C98.8084 48.4369 98.7297 48.8443 98.5567 49.2204C98.3837 49.5965 98.1477 49.9256 97.8488 50.192C97.5499 50.4584 97.1881 50.6778 96.7791 50.8345C96.3701 50.9913 95.914 51.0539 95.442 51.0539C94.9544 51.0539 94.5139 50.9756 94.1049 50.8345C93.6959 50.6778 93.3499 50.4741 93.0353 50.192C92.7364 49.9256 92.5004 49.5965 92.3274 49.2204C92.1543 48.8443 92.0757 48.4369 92.0757 47.9824C92.0757 47.528 92.1543 47.1205 92.3274 46.7444C92.5004 46.3683 92.7364 46.0392 93.0353 45.7728C93.3341 45.5064 93.6959 45.287 94.1049 45.1303C94.5139 44.9736 94.9544 44.9109 95.442 44.9109C95.9297 44.9109 96.3701 44.9892 96.7791 45.1303C97.1881 45.287 97.5499 45.4907 97.8488 45.7728C98.1477 46.0392 98.3837 46.3683 98.5567 46.7444C98.7297 47.1205 98.8084 47.528 98.8084 47.9824ZM97.5814 47.9824C97.5814 47.6847 97.5342 47.4183 97.4241 47.1675C97.3297 46.9168 97.1881 46.6974 96.9994 46.4937C96.8106 46.3056 96.5904 46.1489 96.3229 46.0392C96.0555 45.9295 95.7566 45.8825 95.4263 45.8825C95.096 45.8825 94.7971 45.9452 94.5297 46.0392C94.2622 46.1489 94.042 46.3056 93.8532 46.4937C93.6645 46.6817 93.5229 46.9011 93.4285 47.1675C93.3341 47.4183 93.2869 47.7003 93.2869 47.9824C93.2869 48.2645 93.3341 48.5309 93.4285 48.7973C93.5229 49.048 93.6645 49.2831 93.8532 49.4712C94.042 49.6592 94.2622 49.8159 94.5297 49.9256C94.7971 50.0353 95.096 50.098 95.4263 50.098C95.7566 50.098 96.0555 50.0353 96.3229 49.9256C96.5904 49.8159 96.8106 49.6592 96.9994 49.4712C97.1881 49.2831 97.3297 49.0637 97.4241 48.7973C97.5342 48.5309 97.5814 48.2645 97.5814 47.9824Z" fill="white"/>
<path d="M101.719 50.8818H100.492V45.0679H105.997V50.8818H104.77V45.9768H101.719V50.8818Z" fill="white"/>
<path d="M113.909 47.8725C113.909 47.9352 113.909 47.9979 113.909 48.0762C113.909 48.1389 113.909 48.2173 113.894 48.2956H108.891C108.907 48.562 108.954 48.7971 109.064 49.0165C109.174 49.2359 109.316 49.4396 109.505 49.5963C109.694 49.753 109.898 49.8941 110.15 49.9881C110.401 50.0821 110.669 50.1291 110.936 50.1291C111.377 50.1291 111.754 50.0351 112.053 49.8471C112.368 49.659 112.604 49.4553 112.761 49.2202L113.642 49.8001C113.296 50.2388 112.887 50.5523 112.431 50.7403C111.974 50.9284 111.471 51.0381 110.921 51.0381C110.449 51.0381 110.024 50.9597 109.615 50.8187C109.206 50.6776 108.86 50.4582 108.577 50.1918C108.293 49.9254 108.058 49.5963 107.884 49.2202C107.711 48.8441 107.633 48.4367 107.633 47.9665C107.633 47.5121 107.711 47.1046 107.869 46.7285C108.026 46.3524 108.262 46.0233 108.545 45.7569C108.828 45.4905 109.174 45.2711 109.568 45.1144C109.961 44.9577 110.386 44.895 110.842 44.895C111.329 44.895 111.754 44.9734 112.132 45.1144C112.509 45.2711 112.824 45.4748 113.091 45.7413C113.343 46.0077 113.548 46.3211 113.689 46.6815C113.846 47.0576 113.909 47.4494 113.909 47.8725ZM112.73 47.4807C112.714 46.9949 112.541 46.5875 112.226 46.2741C111.912 45.9606 111.455 45.8039 110.873 45.8039C110.606 45.8039 110.354 45.851 110.118 45.945C109.882 46.039 109.678 46.1644 109.505 46.3211C109.332 46.4778 109.19 46.6502 109.08 46.8539C108.97 47.0576 108.907 47.277 108.891 47.4964H112.73V47.4807Z" fill="white"/>
<path d="M115.892 52.59H114.791V49.9572H115.797L117.952 45.0679H119.211L121.209 49.9572H122.263V52.59H121.161V50.8975H115.892V52.59ZM118.204 47.1364L117.056 49.9572H119.997L118.613 46.3842L118.204 47.1364Z" fill="white"/>
<path d="M128.224 46.5253L124.685 50.8818H123.458V45.0679H124.685V49.3147L128.224 45.0679H129.451V50.8818H128.224V46.5253Z" fill="white"/>
<path d="M131.088 45.0679H132.299V45.8984C132.299 46.2589 132.315 46.5723 132.331 46.8387C132.362 47.1051 132.425 47.3088 132.535 47.4812C132.645 47.6379 132.818 47.7633 133.038 47.8416C133.259 47.92 133.573 47.9513 133.982 47.9513H135.272V45.0679H136.483V50.8818H135.272V48.9229L133.888 48.9073C133.322 48.9073 132.85 48.8446 132.488 48.7349C132.126 48.6252 131.843 48.4685 131.623 48.2648C131.418 48.061 131.277 47.7946 131.198 47.4969C131.119 47.1835 131.088 46.8387 131.088 46.4469V45.0679Z" fill="white"/>
<path d="M144.396 47.8725C144.396 47.9352 144.396 47.9979 144.396 48.0762C144.396 48.1389 144.396 48.2173 144.38 48.2956H139.378C139.394 48.562 139.441 48.7971 139.551 49.0165C139.661 49.2359 139.803 49.4396 139.992 49.5963C140.18 49.753 140.385 49.8941 140.637 49.9881C140.888 50.0821 141.156 50.1291 141.423 50.1291C141.864 50.1291 142.241 50.0351 142.54 49.8471C142.855 49.659 143.09 49.4553 143.248 49.2202L144.129 49.8001C143.783 50.2388 143.374 50.5523 142.917 50.7403C142.461 50.9284 141.958 51.0381 141.407 51.0381C140.935 51.0381 140.511 50.9597 140.102 50.8187C139.693 50.6776 139.347 50.4582 139.063 50.1918C138.78 49.9254 138.544 49.5963 138.371 49.2202C138.198 48.8441 138.12 48.4367 138.12 47.9665C138.12 47.5121 138.198 47.1046 138.356 46.7285C138.513 46.3524 138.749 46.0233 139.032 45.7569C139.315 45.4905 139.661 45.2711 140.054 45.1144C140.448 44.9577 140.872 44.895 141.329 44.895C141.816 44.895 142.241 44.9734 142.619 45.1144C142.996 45.2711 143.311 45.4748 143.578 45.7413C143.83 46.0077 144.034 46.3211 144.176 46.6815C144.333 47.0576 144.396 47.4494 144.396 47.8725ZM143.216 47.4807C143.201 46.9949 143.028 46.5875 142.713 46.2741C142.398 45.9606 141.942 45.8039 141.36 45.8039C141.093 45.8039 140.841 45.851 140.605 45.945C140.369 46.039 140.165 46.1644 139.992 46.3211C139.819 46.4778 139.677 46.6502 139.567 46.8539C139.457 47.0576 139.394 47.277 139.378 47.4964H143.216V47.4807Z" fill="white"/>
<path d="M150.563 46.5562C150.421 46.3524 150.217 46.18 149.95 46.0547C149.682 45.9293 149.399 45.8666 149.084 45.8666C148.754 45.8666 148.471 45.9293 148.203 46.0233C147.936 46.133 147.716 46.2741 147.527 46.4621C147.338 46.6502 147.197 46.8696 147.102 47.136C147.008 47.4024 146.945 47.6688 146.945 47.9665C146.945 48.2643 146.992 48.5307 147.102 48.7971C147.197 49.0635 147.338 49.2829 147.527 49.471C147.716 49.659 147.936 49.8001 148.203 49.9098C148.471 50.0195 148.754 50.0665 149.084 50.0665C149.43 50.0665 149.729 50.0038 149.981 49.8784C150.233 49.753 150.453 49.5963 150.61 49.3926L151.428 50.0821C151.161 50.3642 150.83 50.5993 150.437 50.7717C150.044 50.944 149.588 51.0381 149.069 51.0381C148.565 51.0381 148.109 50.9597 147.7 50.8187C147.291 50.662 146.929 50.4582 146.63 50.1762C146.331 49.9098 146.111 49.5807 145.938 49.2046C145.765 48.8285 145.687 48.421 145.687 47.9665C145.687 47.5121 145.765 47.1046 145.938 46.7285C146.111 46.3524 146.331 46.0233 146.63 45.7569C146.929 45.4905 147.275 45.2711 147.7 45.1144C148.109 44.9577 148.581 44.895 149.069 44.895C149.493 44.895 149.934 44.9734 150.359 45.1458C150.783 45.3181 151.129 45.5532 151.397 45.8666L150.563 46.5562Z" fill="white"/>
<path d="M153.928 47.3872C154.227 47.3872 154.526 47.4185 154.809 47.4655L156.838 45.0679H158.191L155.879 47.7633C156.225 47.8887 156.524 48.0454 156.791 48.2334C157.058 48.4215 157.279 48.6409 157.483 48.9073C157.688 49.1737 157.861 49.4558 158.002 49.8005C158.144 50.1296 158.27 50.5057 158.396 50.9132H157.043C156.933 50.4274 156.791 50.0199 156.602 49.6908C156.429 49.3617 156.209 49.111 155.973 48.9073C155.721 48.7036 155.422 48.5625 155.092 48.4842C154.762 48.4058 154.369 48.3431 153.944 48.3274V50.9132H152.717V45.0992H153.944V47.3872H153.928Z" fill="white"/>
<path d="M164.594 46.5253L161.055 50.8818H159.828V45.0679H161.055V49.3147L164.594 45.0679H165.821V50.8818H164.594V46.5253Z" fill="white"/>
<path d="M173.748 47.8725C173.748 47.9352 173.748 47.9979 173.748 48.0762C173.748 48.1389 173.748 48.2173 173.732 48.2956H168.73C168.746 48.562 168.793 48.7971 168.903 49.0165C169.013 49.2359 169.155 49.4396 169.344 49.5963C169.532 49.753 169.737 49.8941 169.989 49.9881C170.24 50.0821 170.508 50.1291 170.775 50.1291C171.216 50.1291 171.593 50.0351 171.892 49.8471C172.207 49.659 172.443 49.4553 172.6 49.2202L173.481 49.8001C173.135 50.2388 172.726 50.5523 172.27 50.7403C171.813 50.9284 171.31 51.0381 170.759 51.0381C170.287 51.0381 169.863 50.9597 169.454 50.8187C169.045 50.6776 168.699 50.4582 168.416 50.1918C168.132 49.9254 167.896 49.5963 167.723 49.2202C167.55 48.8441 167.472 48.4367 167.472 47.9665C167.472 47.5121 167.55 47.1046 167.708 46.7285C167.865 46.3524 168.101 46.0233 168.384 45.7569C168.667 45.4905 169.013 45.2711 169.407 45.1144C169.8 44.9577 170.225 44.895 170.681 44.895C171.168 44.895 171.593 44.9734 171.971 45.1144C172.348 45.2711 172.663 45.4748 172.93 45.7413C173.182 46.0077 173.386 46.3211 173.528 46.6815C173.685 47.0576 173.748 47.4494 173.748 47.8725ZM172.568 47.4807C172.553 46.9949 172.38 46.5875 172.065 46.2741C171.75 45.9606 171.294 45.8039 170.712 45.8039C170.445 45.8039 170.193 45.851 169.957 45.945C169.721 46.039 169.517 46.1644 169.344 46.3211C169.171 46.4778 169.029 46.6502 168.919 46.8539C168.809 47.0576 168.746 47.277 168.73 47.4964H172.568V47.4807Z" fill="white"/>
<path d="M183.737 46.5562C183.596 46.3524 183.391 46.18 183.124 46.0547C182.856 45.9293 182.573 45.8666 182.259 45.8666C181.928 45.8666 181.645 45.9293 181.378 46.0233C181.11 46.133 180.89 46.2741 180.701 46.4621C180.513 46.6502 180.371 46.8696 180.277 47.136C180.182 47.4024 180.119 47.6688 180.119 47.9665C180.119 48.2643 180.166 48.5307 180.277 48.7971C180.371 49.0635 180.513 49.2829 180.701 49.471C180.89 49.659 181.11 49.8001 181.378 49.9098C181.645 50.0195 181.928 50.0665 182.259 50.0665C182.605 50.0665 182.904 50.0038 183.155 49.8784C183.407 49.753 183.627 49.5963 183.785 49.3926L184.603 50.0821C184.335 50.3642 184.005 50.5993 183.611 50.7717C183.218 50.944 182.762 51.0381 182.243 51.0381C181.74 51.0381 181.283 50.9597 180.874 50.8187C180.465 50.662 180.104 50.4582 179.805 50.1762C179.506 49.9098 179.286 49.5807 179.113 49.2046C178.939 48.8285 178.861 48.421 178.861 47.9665C178.861 47.5121 178.939 47.1046 179.113 46.7285C179.286 46.3524 179.506 46.0233 179.805 45.7569C180.104 45.4905 180.45 45.2711 180.874 45.1144C181.283 44.9577 181.755 44.895 182.243 44.895C182.668 44.895 183.108 44.9734 183.533 45.1458C183.958 45.3181 184.304 45.5532 184.571 45.8666L183.737 46.5562Z" fill="white"/>
<path d="M185.453 45.0679H190.943V45.9925H188.757V50.8975H187.53V45.9925H185.453V45.0679Z" fill="white"/>
<path d="M197.943 47.8725C197.943 47.9352 197.943 47.9979 197.943 48.0762C197.943 48.1389 197.943 48.2173 197.927 48.2956H192.925C192.941 48.562 192.988 48.7971 193.098 49.0165C193.208 49.2359 193.35 49.4396 193.538 49.5963C193.727 49.753 193.932 49.8941 194.183 49.9881C194.435 50.0821 194.703 50.1291 194.97 50.1291C195.41 50.1291 195.788 50.0351 196.087 49.8471C196.401 49.659 196.637 49.4553 196.795 49.2202L197.676 49.8001C197.33 50.2388 196.921 50.5523 196.464 50.7403C196.008 50.9284 195.505 51.0381 194.954 51.0381C194.482 51.0381 194.058 50.9597 193.649 50.8187C193.24 50.6776 192.893 50.4582 192.61 50.1918C192.327 49.9254 192.091 49.5963 191.918 49.2202C191.745 48.8441 191.667 48.4367 191.667 47.9665C191.667 47.5121 191.745 47.1046 191.902 46.7285C192.06 46.3524 192.296 46.0233 192.579 45.7569C192.862 45.4905 193.208 45.2711 193.601 45.1144C193.995 44.9577 194.419 44.895 194.876 44.895C195.363 44.895 195.788 44.9734 196.165 45.1144C196.543 45.2711 196.858 45.4748 197.125 45.7413C197.377 46.0077 197.581 46.3211 197.723 46.6815C197.88 47.0576 197.943 47.4494 197.943 47.8725ZM196.763 47.4807C196.747 46.9949 196.574 46.5875 196.26 46.2741C195.945 45.9606 195.489 45.8039 194.907 45.8039C194.64 45.8039 194.388 45.851 194.152 45.945C193.916 46.039 193.711 46.1644 193.538 46.3211C193.365 46.4778 193.224 46.6502 193.114 46.8539C193.004 47.0576 192.941 47.277 192.925 47.4964H196.763V47.4807Z" fill="white"/>
<path d="M203.826 50.8818L201.954 46.4156L200.003 50.8818H198.698L201.356 45.0679H202.599L205.1 50.8818H203.826Z" fill="white"/>
<path d="M207.601 45.0679V47.0268H209.112C209.568 47.0268 209.961 47.0738 210.291 47.1678C210.622 47.2618 210.873 47.4029 211.078 47.5752C211.282 47.7476 211.424 47.9513 211.518 48.1864C211.613 48.4215 211.66 48.6722 211.66 48.9386C211.66 49.205 211.613 49.4558 211.503 49.6908C211.392 49.9259 211.235 50.1296 211.031 50.302C210.826 50.4744 210.559 50.6154 210.244 50.7251C209.93 50.8348 209.583 50.8818 209.174 50.8818H206.39V45.0679H207.601ZM207.601 50.0356H208.891C209.332 50.0356 209.709 49.9572 209.992 49.8162C210.276 49.6595 210.417 49.3774 210.417 48.9543C210.417 48.7349 210.386 48.5625 210.291 48.4215C210.213 48.2804 210.103 48.1707 209.961 48.0924C209.819 48.014 209.662 47.9513 209.458 47.92C209.269 47.8887 209.064 47.873 208.844 47.873H207.601V50.0356Z" fill="white"/>
<path d="M214.349 47.3872C214.648 47.3872 214.947 47.4185 215.23 47.4655L217.259 45.0679H218.612L216.3 47.7633C216.646 47.8887 216.945 48.0454 217.212 48.2334C217.479 48.4215 217.7 48.6409 217.904 48.9073C218.109 49.1737 218.282 49.4558 218.423 49.8005C218.565 50.1296 218.691 50.5057 218.816 50.9132H217.464C217.353 50.4274 217.212 50.0199 217.023 49.6908C216.85 49.3617 216.63 49.111 216.394 48.9073C216.142 48.7036 215.843 48.5625 215.513 48.4842C215.183 48.4058 214.789 48.3431 214.365 48.3274V50.9132H213.138V45.0992H214.365V47.3872H214.349Z" fill="white"/>
<path d="M225.014 46.5253L221.475 50.8818H220.248V45.0679H221.475V49.3147L225.014 45.0679H226.241V50.8818H225.014V46.5253Z" fill="white"/>
<path fill-rule="evenodd" clip-rule="evenodd" d="M260 11.0993C260 11.8611 259.813 12.5763 259.423 13.2292C259.032 13.8822 258.517 14.4108 257.862 14.784C257.206 15.1571 256.489 15.3592 255.724 15.3592C254.959 15.3592 254.257 15.1726 253.586 14.784C252.93 14.4108 252.4 13.8822 252.025 13.2292C251.651 12.5763 251.448 11.8611 251.448 11.0993C251.448 10.3375 251.635 9.63784 252.025 8.96932C252.415 8.31634 252.93 7.78773 253.586 7.4146C254.241 7.04147 254.959 6.83936 255.724 6.83936C256.489 6.83936 257.206 7.02592 257.862 7.4146C258.517 7.78773 259.048 8.31634 259.423 8.96932C259.813 9.63784 260 10.353 260 11.0993ZM259.173 11.0993C259.173 10.1509 258.829 9.34245 258.158 8.67392C257.487 8.00539 256.676 7.66335 255.724 7.66335C254.772 7.66335 253.96 8.00539 253.289 8.67392C252.618 9.34245 252.275 10.1509 252.275 11.0993C252.275 12.0477 252.618 12.8561 253.289 13.5246C253.96 14.1932 254.772 14.5352 255.724 14.5352C256.676 14.5352 257.487 14.1932 258.158 13.5246C258.845 12.8561 259.173 12.0477 259.173 11.0993ZM253.789 8.82939H255.833C256.411 8.82939 256.832 8.93822 257.082 9.17143C257.347 9.40464 257.472 9.71558 257.472 10.1043C257.472 10.4152 257.378 10.6795 257.175 10.8972C256.972 11.1148 256.66 11.2858 256.239 11.3791C256.411 11.4413 256.535 11.519 256.629 11.5968C256.738 11.7056 256.863 11.8611 256.988 12.0632C256.988 12.0787 257.238 12.5141 257.721 13.3847H256.379C255.942 12.5141 255.646 12.001 255.505 11.83C255.349 11.659 255.209 11.5812 255.053 11.5812C255.022 11.5812 254.975 11.5812 254.912 11.5968V13.3847H253.773V8.82939H253.789ZM254.928 10.7572H255.427C255.755 10.7572 255.989 10.7106 256.114 10.6018C256.254 10.4929 256.317 10.353 256.317 10.1975C256.317 10.0265 256.254 9.8866 256.13 9.79331C256.005 9.68448 255.786 9.63784 255.474 9.63784H254.944V10.7572H254.928Z" fill="white"/>
<path d="M90.0774 5.87379V13.5839H87.2617C87.2302 13.1608 87.1673 12.722 87.0572 12.2519C86.9471 11.7818 86.7583 11.3273 86.4909 10.8729C86.3336 10.5438 86.1291 10.2147 85.8459 9.90125C85.5785 9.58782 85.2481 9.2744 84.8863 8.97665C84.2728 8.49085 83.6122 8.11475 82.8886 7.817C82.165 7.53492 81.4099 7.36254 80.6548 7.29985C80.5604 7.29985 80.4818 7.29985 80.4031 7.29985C80.3245 7.29985 80.2458 7.29985 80.1514 7.29985C79.8526 7.29985 79.5065 7.31552 79.1289 7.36254C78.7514 7.40955 78.3581 7.48791 77.9649 7.61327C77.084 7.84834 76.266 8.28713 75.5266 8.92964C74.7873 9.57215 74.4098 10.4497 74.4098 11.6094C74.4098 12.9414 74.803 13.8817 75.5738 14.4145C76.3446 14.9473 77.2098 15.4331 78.1379 15.8249C78.1694 15.8249 78.2008 15.8406 78.2323 15.8719C78.2952 15.8719 78.3424 15.8719 78.3896 15.8876C78.4368 15.9033 78.4683 15.9189 78.4997 15.9503L85.4212 18.7554C85.7515 18.8808 86.1133 19.0218 86.4909 19.2098C86.8684 19.3979 87.2617 19.6173 87.6549 19.8837C88.6302 20.4949 89.5111 21.3568 90.3134 22.4851C91.1157 23.6134 91.5247 25.1492 91.5247 27.0924C91.5247 29.8818 90.4078 32.1698 88.1583 33.9563C85.9088 35.7585 83.1245 36.6517 79.7896 36.6517C78.9402 36.6517 77.839 36.5107 76.4862 36.2443C75.1334 35.9779 73.7491 35.2256 72.3176 34.019L71.5468 36.1973H69.376V28.2207H71.9715C72.0344 28.7378 72.1603 29.2863 72.3333 29.8975C72.5221 30.5087 72.8367 31.0885 73.2929 31.6683C73.4502 31.8877 73.6075 32.0914 73.7963 32.2795C73.985 32.4832 74.1738 32.6869 74.394 32.8907C75.0862 33.5332 75.8727 34.0033 76.7536 34.3167C77.6345 34.6301 78.6098 34.7869 79.6638 34.7869C81.52 34.7869 83.0459 34.3011 84.2571 33.3138C85.4684 32.3265 86.0819 31.1512 86.0819 29.7565C86.0819 28.3304 85.6571 27.2961 84.8077 26.6536C83.9582 26.0111 83.0144 25.4469 81.9919 24.9925C81.929 24.9611 81.8661 24.9298 81.7874 24.8984C81.7088 24.8671 81.6301 24.8357 81.5357 24.8044L76.1559 22.5634C74.8817 22.015 73.8435 21.4038 73.0412 20.6986C72.2389 20.0091 71.6097 19.2882 71.1535 18.5673C70.5715 17.6584 70.2097 16.7808 70.0681 15.9189C69.9108 15.057 69.8479 14.3518 69.8479 13.8033C69.8479 11.5937 70.776 9.63484 72.6322 7.92669C74.4884 6.21855 76.8795 5.37231 79.8211 5.37231C80.2144 5.37231 80.6233 5.38799 81.0323 5.435C81.4413 5.48201 81.8661 5.5447 82.2908 5.63872C83.0773 5.82677 83.8481 6.07751 84.6189 6.43795C85.374 6.78271 86.0819 7.20583 86.7111 7.69163L87.7178 5.87379H90.0774Z" fill="white"/>
<path d="M116.615 33.9409V36.2132H108.01V34.4423C107.35 35.1005 106.548 35.649 105.619 36.0564C104.691 36.4639 103.527 36.6676 102.143 36.6676C100.255 36.6676 98.5249 36.0251 96.9519 34.7244C95.3788 33.4237 94.5923 31.6529 94.5923 29.4119C94.5923 27.4217 95.3159 25.7136 96.7474 24.2875C98.1946 22.8614 99.9879 22.1562 102.143 22.1562C103.622 22.1562 104.833 22.3756 105.761 22.8301C106.689 23.2845 107.444 23.8174 108.01 24.4129V19.9309C108.01 18.6616 107.712 17.7683 107.13 17.2355C106.532 16.7027 105.84 16.4363 105.053 16.4363C105.022 16.4363 104.959 16.4363 104.864 16.4363C104.77 16.4363 104.644 16.4363 104.503 16.4363C104.078 16.4363 103.496 16.499 102.756 16.64C102.017 16.7811 101.231 17.1102 100.413 17.6586C100.114 17.8467 99.7991 18.0661 99.5002 18.3325C99.2014 18.5989 98.9025 18.9123 98.635 19.2414L96.2283 16.4363C97.471 15.7154 98.7924 15.1826 100.192 14.8535C101.592 14.5244 103.181 14.3521 104.974 14.3521C107.979 14.3521 110.103 14.7438 111.345 15.5117C112.588 16.2796 113.375 17.1258 113.705 18.0347C113.831 18.3638 113.909 18.6929 113.957 19.0064C114.004 19.3198 114.02 19.6332 114.02 19.9309V33.9409H116.615ZM108.01 26.5911C107.68 26.0113 107.24 25.5725 106.721 25.2591C106.186 24.9457 105.619 24.789 105.006 24.789C104.817 24.789 104.644 24.8046 104.487 24.8046C104.314 24.8203 104.141 24.8517 103.968 24.9143C103.181 25.1337 102.458 25.5725 101.813 26.2777C101.152 26.9672 100.837 28.0172 100.837 29.4119C100.837 30.744 101.12 31.7469 101.703 32.4208C102.285 33.0946 102.914 33.5647 103.622 33.7998C103.858 33.8938 104.109 33.9565 104.345 34.0035C104.581 34.0506 104.817 34.0662 105.022 34.0662C105.635 34.0662 106.201 33.9095 106.736 33.5961C107.271 33.2827 107.696 32.8282 108.026 32.2641V26.5911H108.01Z" fill="white"/>
<path d="M128.036 17.9721H128.303C128.822 17.0005 129.593 16.1542 130.647 15.4334C131.701 14.7125 133.133 14.3521 134.942 14.3521C137.065 14.3521 138.56 14.8379 139.441 15.8095C140.321 16.7811 140.888 17.8467 141.124 19.022C141.25 19.6019 141.313 20.166 141.328 20.7302C141.344 21.2943 141.344 21.7958 141.344 22.2503V33.9565H143.892V36.2288H132.787V33.9565H135.335V23.4413C135.335 23.4099 135.335 23.3786 135.335 23.3472C135.335 23.1122 135.335 22.8614 135.335 22.6264C135.335 22.3913 135.335 22.1406 135.335 21.9055C135.272 20.8712 135.052 19.9466 134.658 19.1004C134.265 18.2541 133.416 17.831 132.11 17.831C131.953 17.831 131.811 17.8467 131.654 17.8467C131.497 17.8624 131.355 17.8937 131.198 17.9564C130.443 18.1444 129.751 18.6459 129.121 19.4765C128.492 20.307 128.193 21.6234 128.193 23.4413V33.9565H130.742V36.2288H119.636V33.9565H122.184V17.1572H119.636V14.9005H128.193V17.1728L128.036 17.9721Z" fill="white"/>
<path d="M169.14 33.9409V36.2132H160.535V34.4423C159.875 35.1005 159.072 35.649 158.144 36.0564C157.216 36.4639 156.052 36.6676 154.668 36.6676C152.78 36.6676 151.05 36.0251 149.477 34.7244C147.904 33.4237 147.117 31.6529 147.117 29.4119C147.117 27.4217 147.841 25.7136 149.272 24.2875C150.719 22.8614 152.513 22.1562 154.668 22.1562C156.147 22.1562 157.358 22.3756 158.286 22.8301C159.214 23.2845 159.969 23.8174 160.535 24.4129V19.9309C160.535 18.6616 160.237 17.7683 159.654 17.2355C159.057 16.7027 158.365 16.4363 157.578 16.4363C157.547 16.4363 157.484 16.4363 157.389 16.4363C157.295 16.4363 157.169 16.4363 157.027 16.4363C156.603 16.4363 156.021 16.499 155.281 16.64C154.542 16.7811 153.755 17.1102 152.938 17.6586C152.639 17.8467 152.324 18.0661 152.025 18.3325C151.726 18.5989 151.427 18.9123 151.16 19.2414L148.753 16.4363C149.996 15.7154 151.317 15.1826 152.717 14.8535C154.117 14.5244 155.706 14.3521 157.499 14.3521C160.504 14.3521 162.628 14.7438 163.87 15.5117C165.113 16.2796 165.9 17.1258 166.23 18.0347C166.356 18.3638 166.434 18.6929 166.482 19.0064C166.529 19.3198 166.544 19.6332 166.544 19.9309V33.9409H169.14ZM160.535 26.5911C160.205 26.0113 159.765 25.5725 159.245 25.2591C158.711 24.9457 158.144 24.789 157.531 24.789C157.342 24.789 157.169 24.8046 157.012 24.8046C156.839 24.8203 156.666 24.8517 156.493 24.9143C155.706 25.1337 154.982 25.5725 154.338 26.2777C153.677 26.9672 153.362 28.0172 153.362 29.4119C153.362 30.744 153.645 31.7469 154.227 32.4208C154.809 33.0946 155.439 33.5647 156.147 33.7998C156.383 33.8938 156.634 33.9565 156.87 34.0035C157.106 34.0506 157.342 34.0662 157.547 34.0662C158.16 34.0662 158.726 33.9095 159.261 33.5961C159.796 33.2827 160.221 32.8282 160.551 32.2641V26.5911H160.535Z" fill="white"/>
<path d="M181.016 6.64209V14.9007H184.744V17.173H181.016V31.7784C181.016 31.8098 181.016 31.8255 181.016 31.8411C181.016 31.8568 181.016 31.8725 181.016 31.9038C181.016 31.9352 181.016 31.9665 181.016 32.0135C181.016 32.0605 181.016 32.0919 181.016 32.1232C181.016 32.7344 181.048 33.2672 181.126 33.7373C181.205 34.2075 181.52 34.4425 182.054 34.4425C182.668 34.4425 183.061 34.1291 183.266 33.5179C183.47 32.8911 183.596 32.2172 183.659 31.4493L186.113 33.0321C185.814 34.0037 185.342 34.7403 184.729 35.2574C184.099 35.7746 183.439 36.1193 182.747 36.3074C182.29 36.4641 181.85 36.5581 181.41 36.6051C180.969 36.6521 180.576 36.6678 180.245 36.6678C178.515 36.6678 177.288 36.2917 176.58 35.5395C175.872 34.7873 175.4 33.9567 175.196 33.0478C175.133 32.6874 175.086 32.3269 175.054 31.9665C175.023 31.6061 175.007 31.277 175.007 30.9636V17.173H172.191V14.9007H175.007V8.77335L181.016 6.64209Z" fill="white"/>
<path d="M195.048 25.776C195.048 28.8946 195.709 31.0885 197.046 32.3579C198.383 33.6272 199.846 34.3011 201.466 34.3951C201.529 34.3951 201.592 34.3951 201.655 34.3951C201.718 34.3951 201.781 34.3951 201.844 34.3951C202.206 34.3951 202.583 34.3481 202.976 34.2384C203.37 34.1287 203.747 33.9563 204.109 33.7213C204.66 33.4235 205.194 32.9847 205.745 32.4362C206.296 31.8721 206.815 31.1669 207.287 30.3206L209.206 32.2639C209.143 32.3579 209.08 32.4362 209.001 32.4832C208.923 32.5459 208.86 32.6243 208.797 32.7026C207.522 34.066 206.185 35.0533 204.785 35.6958C203.385 36.3383 201.655 36.6517 199.594 36.6517C196.134 36.6517 193.444 35.4764 191.54 33.1414C189.621 30.8064 188.677 28.158 188.677 25.2276C188.677 22.1404 189.653 19.5546 191.619 17.4704C193.585 15.3861 196.165 14.3362 199.374 14.3362C202.615 14.3362 205.084 15.3861 206.767 17.4861C208.451 19.586 209.3 21.9366 209.3 24.538C209.3 24.7574 209.3 24.9611 209.3 25.1492C209.3 25.3529 209.284 25.5566 209.253 25.7604H195.048V25.776ZM203.322 23.4724C203.322 23.3157 203.322 23.1746 203.322 23.0179C203.322 22.8612 203.322 22.7359 203.322 22.6105C203.322 20.6986 203.071 19.3039 202.552 18.4107C202.033 17.5174 201.482 16.9219 200.868 16.6242C200.601 16.4674 200.318 16.3734 200.05 16.3264C199.783 16.2794 199.531 16.2637 199.327 16.2637C199.17 16.2637 199.012 16.2637 198.855 16.2794C198.682 16.2951 198.509 16.3264 198.336 16.3891C197.518 16.6242 196.763 17.2667 196.055 18.3166C195.363 19.3666 195.017 21.0747 195.048 23.4567H203.322V23.4724Z" fill="white"/>
<path d="M220.894 18.301C221.35 17.2981 222.058 16.4048 223.017 15.6056C223.977 14.8064 224.999 14.3989 226.085 14.3989C226.242 14.3989 226.415 14.4146 226.604 14.4459C226.808 14.4773 226.997 14.5243 227.17 14.587C227.438 14.6497 227.705 14.728 227.973 14.8377C228.224 14.9474 228.444 15.0571 228.633 15.1825C228.665 15.1825 228.696 15.1981 228.728 15.1981C228.759 15.2138 228.791 15.2295 228.822 15.2608L226.541 20.1189H225.896C225.77 19.3666 225.487 18.8338 225.047 18.5047C224.606 18.1913 224.15 18.0033 223.662 17.9406C223.599 17.9406 223.552 17.9406 223.505 17.9406C223.458 17.9406 223.411 17.9406 223.348 17.9406C222.593 17.9406 222.042 18.2697 221.712 18.9122C221.381 19.5704 221.145 20.2599 221.035 21.0278C220.972 21.5136 220.941 21.9837 220.925 22.4538C220.909 22.924 220.909 23.3158 220.909 23.6135C220.909 23.6448 220.909 23.6762 220.909 23.7075C220.909 23.7389 220.909 23.7702 220.909 23.8016V33.9564H223.82V36.2287H212.352V33.9564H214.9V17.157H212.352V14.9004H220.909V17.4861L220.689 18.301H220.894Z" fill="white"/>
<path d="M251.615 33.9409V36.2132H243.01V34.4423C242.35 35.1005 241.548 35.649 240.619 36.0564C239.691 36.4639 238.527 36.6676 237.143 36.6676C235.255 36.6676 233.525 36.0251 231.952 34.7244C230.379 33.4237 229.592 31.6529 229.592 29.4119C229.592 27.4217 230.316 25.7136 231.747 24.2875C233.195 22.8614 234.988 22.1562 237.143 22.1562C238.622 22.1562 239.833 22.3756 240.761 22.8301C241.689 23.2845 242.444 23.8174 243.01 24.4129V19.9309C243.01 18.6616 242.712 17.7683 242.13 17.2355C241.532 16.7027 240.84 16.4363 240.053 16.4363C240.022 16.4363 239.959 16.4363 239.864 16.4363C239.77 16.4363 239.644 16.4363 239.503 16.4363C239.078 16.4363 238.496 16.499 237.756 16.64C237.017 16.7811 236.231 17.1102 235.413 17.6586C235.114 17.8467 234.799 18.0661 234.5 18.3325C234.201 18.5989 233.902 18.9123 233.635 19.2414L231.228 16.4363C232.471 15.7154 233.792 15.1826 235.192 14.8535C236.592 14.5244 238.181 14.3521 239.974 14.3521C242.979 14.3521 245.103 14.7438 246.345 15.5117C247.588 16.2796 248.375 17.1258 248.705 18.0347C248.831 18.3638 248.909 18.6929 248.957 19.0064C249.004 19.3198 249.02 19.6332 249.02 19.9309V33.9409H251.615ZM243.01 26.5911C242.68 26.0113 242.24 25.5725 241.721 25.2591C241.186 24.9457 240.619 24.789 240.006 24.789C239.817 24.789 239.644 24.8046 239.487 24.8046C239.314 24.8203 239.141 24.8517 238.968 24.9143C238.181 25.1337 237.458 25.5725 236.813 26.2777C236.152 26.9672 235.837 28.0172 235.837 29.4119C235.837 30.744 236.12 31.7469 236.703 32.4208C237.285 33.0946 237.914 33.5647 238.622 33.7998C238.858 33.8938 239.109 33.9565 239.345 34.0035C239.581 34.0506 239.817 34.0662 240.022 34.0662C240.635 34.0662 241.201 33.9095 241.736 33.5961C242.271 33.2827 242.696 32.8282 243.026 32.2641V26.5911H243.01Z" fill="white"/>
<path d="M46.6301 8.50669C46.6301 8.82011 46.3784 9.07085 46.0638 9.07085C45.9222 9.07085 45.7964 9.02384 45.702 8.92981C45.6863 8.91414 45.6705 8.89847 45.6705 8.89847C45.5132 8.7731 45.3716 8.64773 45.2143 8.52236C44.8997 8.27163 44.6008 8.00522 44.2705 7.77015L43.2952 7.08063C42.9649 6.84556 42.6188 6.65751 42.2727 6.43811L41.7536 6.12469C41.5806 6.03067 41.4075 5.93664 41.2188 5.84261L40.1648 5.29413L39.0637 4.80833C37.585 4.21283 36.0906 3.71135 34.5333 3.4136L33.9512 3.28823C33.7625 3.25689 33.558 3.22555 33.3692 3.19421C32.9759 3.1472 32.5984 3.08451 32.2051 3.0375C31.4186 2.99048 30.6478 2.89646 29.8613 2.9278C26.7309 2.88079 23.6634 3.55464 20.8319 4.66729C18.0004 5.82694 15.4363 7.53509 13.3127 9.63501C11.1891 11.7506 9.52162 14.258 8.38902 16.9534C7.25642 19.6645 6.69012 22.5479 6.69012 25.4157C6.69012 28.2679 7.27215 31.1043 8.35756 33.6901C9.15982 35.6019 8.24745 37.7959 6.32831 38.5794C4.40918 39.3943 2.2069 38.5011 1.42037 36.5892C1.37318 36.4795 1.32598 36.3698 1.29452 36.2601L1.27879 36.1974C0.16192 32.5931 -0.231345 28.785 0.130459 25.071C0.492263 21.3569 1.57767 17.7683 3.30804 14.54C5.0384 11.3275 7.38226 8.45968 10.1823 6.17171C12.9666 3.88373 16.1914 2.19126 19.5735 1.15697C22.9713 0.169697 26.5264 -0.23775 30.0029 0.138355C30.868 0.201039 31.7332 0.37342 32.5827 0.51446C33.0074 0.608486 33.4321 0.718183 33.8568 0.81221C34.0613 0.859223 34.2816 0.906236 34.4861 0.96892L35.1153 1.15697C36.7827 1.64278 38.3558 2.3323 39.8659 3.13152L40.9828 3.75837L42.0525 4.44789C42.2255 4.57326 42.4143 4.68296 42.5873 4.80833L43.1064 5.16876C43.4368 5.43517 43.7986 5.67023 44.1132 5.93664L45.0728 6.76721C45.4031 7.03361 45.6863 7.34703 45.9851 7.64478C46.1424 7.78582 46.284 7.94253 46.4256 8.08357C46.4413 8.09925 46.4728 8.13059 46.4885 8.14626C46.5829 8.25596 46.6301 8.36565 46.6301 8.50669ZM10.0565 46.8224C10.0722 46.8381 10.1037 46.8694 10.1194 46.8851C10.261 47.0418 10.4183 47.1828 10.5598 47.3239C10.8587 47.6216 11.1419 47.935 11.4722 48.2015L12.4318 49.032C12.7464 49.3141 13.1082 49.5492 13.4385 49.7999L13.9419 50.176C14.115 50.3014 14.3037 50.4111 14.4768 50.5364L15.5779 51.2416L16.6948 51.8685C18.2049 52.6677 19.7937 53.3572 21.4454 53.843L22.0746 54.0311C22.2791 54.0781 22.4994 54.1251 22.7039 54.1878C23.1286 54.2818 23.5533 54.3915 23.978 54.4855C24.8275 54.6266 25.6927 54.799 26.5579 54.8616C30.0343 55.2378 33.5894 54.8303 36.9872 53.843C40.385 52.8087 43.6098 51.1163 46.3941 48.8126C49.1784 46.5246 51.538 43.6568 53.2527 40.4443C54.983 37.216 56.0684 33.6274 56.4303 29.9133C56.7921 26.215 56.3988 22.4069 55.2819 18.7869L55.2662 18.7399C55.2347 18.6302 55.1875 18.5205 55.1403 18.4108C54.3381 16.4989 52.1515 15.59 50.2324 16.3892C48.3133 17.1885 47.4009 19.3824 48.2031 21.2786C49.2886 23.88 49.8706 26.7008 49.8706 29.5529C49.8706 32.405 49.3043 35.3042 48.1717 38.0153C47.0548 40.7264 45.3716 43.2337 43.248 45.3336C41.1244 47.4492 38.5603 49.1417 35.7288 50.3014C32.8973 51.4297 29.8141 52.0879 26.6994 52.0409C25.9129 52.0722 25.1421 51.9782 24.3556 51.9312C23.9623 51.8841 23.5848 51.8215 23.1915 51.7744C23.0027 51.7431 22.7982 51.7274 22.6095 51.6804L22.0274 51.5551C20.4858 51.2573 18.9757 50.7715 17.497 50.1603L16.3959 49.6745L15.3419 49.126C15.1689 49.032 14.9801 48.9537 14.8071 48.844L14.288 48.5305C13.9577 48.3111 13.5958 48.1231 13.2655 47.888L12.2902 47.1985C11.9599 46.9634 11.661 46.697 11.3464 46.4463C11.1891 46.3209 11.0318 46.1956 10.8902 46.0702C10.8745 46.0545 10.8587 46.0545 10.8587 46.0388C10.7643 45.9605 10.6385 45.8978 10.4969 45.8978C10.1823 45.8978 9.93062 46.1485 9.93062 46.462C9.94635 46.603 9.97781 46.7284 10.0565 46.8224Z" fill="#E72E46"/>
<path d="M29.1687 29.2864C28.2563 28.3618 28.1462 28.5185 26.7777 27.1551C25.2518 25.635 24.7956 24.8358 24.5754 24.4283C24.4024 24.0993 24.2765 23.7858 24.1664 23.4724H17.2292C17.009 23.4724 16.8359 23.6448 16.8359 23.8642V31.1512C16.8359 31.3706 17.009 31.543 17.2292 31.543H24.2293V38.5166C24.2293 38.736 24.4024 38.9084 24.6226 38.9084H27.6271C28.2721 38.9084 28.917 38.7987 29.5148 38.548C30.1912 38.2659 30.9777 37.7644 31.4811 36.8555C32.0002 35.9309 32.0002 35.0063 32.0002 34.6145C31.9845 32.1855 30.1912 30.3363 29.1687 29.2864Z" fill="#E72E46"/>
<path d="M39.74 31.1672V23.8802C39.74 23.6608 39.5669 23.4884 39.3467 23.4884H32.3466V16.5148C32.3466 16.2954 32.1736 16.123 31.9533 16.123H28.9488C28.3038 16.123 27.6589 16.2327 27.0611 16.4835C26.369 16.7656 25.5982 17.267 25.0948 18.176C24.5757 19.1005 24.5757 20.0251 24.5757 20.4169C24.5914 22.8773 26.3847 24.7264 27.4072 25.7764C28.3196 26.701 28.4297 26.5443 29.7982 27.9077C31.3241 29.4278 31.7803 30.227 32.0005 30.6344C32.1736 30.9635 32.2994 31.2769 32.4095 31.5904H39.331C39.5512 31.559 39.74 31.3866 39.74 31.1672Z" fill="#E72E46"/>
</svg>
