<svg width="16" height="14" viewBox="0 0 16 14" fill="none" xmlns="http://www.w3.org/2000/svg">
<path d="M0.000976562 10.2842V13.5893H3.91681V10.2842H0.000976562ZM0.862993 10.8678H0.465463V10.2847H0.862993V10.8678ZM1.72501 10.8678H1.32748V10.2847H1.72501V10.8678ZM2.58656 10.8678H2.18903V10.2847H2.58656V10.8678ZM3.44857 10.8678H3.05104V10.2847H3.44857V10.8678Z" fill="#D60723"/>
<path d="M9.7998 10.2842V13.5893H13.7156V10.2842H9.7998ZM10.6618 10.8678H10.2643V10.2847H10.6618V10.8678ZM11.5234 10.8678H11.1258V10.2847H11.5234V10.8678ZM12.3854 10.8678H11.9879V10.2847H12.3854V10.8678ZM13.2474 10.8678H12.8499V10.2847H13.2474V10.8678Z" fill="#D60723"/>
<path d="M7.54363 9.57685L6.86797 8.86861L6.19231 9.57685H4.25195V13.5892H9.48398V9.57685H7.54363Z" fill="#D60723"/>
<path d="M8.35741 7.65851V5.65944L7.74028 6.43737V5.40225L8.15795 4.96445H7.74028H7.62603L6.90449 1.4743L7.33245 1.76142L7.18449 1.2554L7.48791 0.942752L7.06509 0.896615L6.8394 0.412186L6.64977 0.907413C6.64977 0.907413 6.24241 0.907413 6.2293 0.907413C6.21619 0.907413 6.5875 1.2446 6.5875 1.2446L6.4887 1.72314L6.83332 1.46203L6.10943 4.96445H5.99518H5.57752L5.99518 5.40225V6.43737L5.37805 5.65944V7.65704L4.25195 6.78585V9.29929H5.92588L6.86797 8.31178L7.81005 9.29929H9.48398V6.78585L8.35741 7.65851ZM5.99565 8.13459L5.97505 8.11889H5.99565V8.13459ZM6.86797 8.13656C6.41659 8.13656 6.0509 7.75323 6.0509 7.28009C6.0509 6.80695 6.41659 6.42363 6.86797 6.42363C7.31934 6.42363 7.68503 6.80695 7.68503 7.28009C7.68503 7.75323 7.31934 8.13656 6.86797 8.13656ZM7.74028 8.13656V8.11889H7.76323L7.74028 8.13656Z" fill="#D60723"/>
<path d="M6.81176 6.74519L6.66895 7.51773C6.66895 7.51773 7.34086 7.34644 7.32307 7.34349C7.3048 7.34055 6.86888 7.24827 6.86888 7.24827L6.81176 6.74519Z" fill="#D60723"/>
</svg>
