<svg width="16" height="14" viewBox="0 0 16 14" fill="none" xmlns="http://www.w3.org/2000/svg">
<path d="M2.7564 7.30521C2.84088 7.28459 2.97809 6.75478 2.93045 6.65044C2.88281 6.5461 2.74052 6.49987 2.74052 6.43239C2.74052 6.36492 2.87265 6.42177 2.97809 6.3543C3.08354 6.28682 3.10514 6.12563 3.11531 6.05815C3.12547 5.99067 3.36876 5.82448 3.56441 5.73077C3.76007 5.63705 3.71242 5.82448 3.71242 5.82448C3.71242 5.82448 3.438 6.45301 3.48565 6.90473C3.53329 7.35644 4.01352 7.60073 4.1933 7.61635C4.37307 7.63197 4.30954 7.00344 4.32034 7.00344C4.00844 6.96158 3.84519 6.7804 3.84519 6.7804C3.79246 6.73854 4.04592 6.72354 4.051 6.65044C4.05609 6.57797 4.00844 6.24559 4.00336 6.04253C3.99828 5.8401 4.17741 5.8451 4.18821 5.82448C4.3521 6.02191 4.81646 6.07877 4.81646 6.07877C4.81646 6.07877 5.01719 5.99567 5.12264 6.12063C5.22809 6.24559 5.08008 6.38054 5.17028 6.53111C5.25985 6.68168 5.65624 6.55735 5.78837 6.6923C5.92049 6.82726 5.4663 7.07654 5.4663 7.1184C5.05467 7.07154 4.67417 7.1184 4.68497 7.19088C4.79613 7.44016 5.18108 7.44016 5.60415 7.52326C6.02721 7.60636 6.0215 7.0503 6.02658 7.05593C6.41216 6.58297 6.50745 6.7804 6.50745 6.78602C6.89303 7.36769 8.24989 7.65884 8.30833 7.66883C8.55099 7.71069 8.55099 7.76255 8.4881 7.87689C8.42522 7.99122 8.25053 7.91875 8.22957 7.93374C8.10252 8.07931 8.28737 8.51541 8.56243 8.87403C8.83748 9.23266 9.17479 9.76747 9.1119 9.9699C9.04838 10.1723 8.70027 10.1673 8.70027 10.1673C8.70027 10.1673 4.33813 10.1673 4.00018 10.1673C3.66224 10.1673 3.66923 10.4722 3.66923 10.8527C3.66923 11.2338 3.84519 11.4969 3.87314 11.5937C3.85916 12.1341 4.57698 12.3903 4.83806 12.7089C5.05848 12.9782 4.68941 13.7623 4.57062 13.9985H15.9985C15.0634 13.503 14.2871 13.2338 14.0731 13.1038C13.7421 12.9032 13.5554 12.5096 13.3654 12.3072C13.1755 12.1048 13.4131 12.0161 13.5712 12.0217C13.7294 12.0267 13.8457 12.0529 13.8457 12.0529C13.8457 12.0529 13.9778 12.1779 14.0515 12.1098C14.1252 12.0423 14.3475 12.0735 14.3475 12.0735C14.3475 12.0735 14.4529 12.0529 14.4479 11.9336C14.4428 11.8142 14.6975 11.6843 14.6975 11.6843C14.6975 11.6843 14.5749 11.6893 14.5222 11.6218C14.4695 11.5543 14.7178 11.44 14.6962 11.3775C13.8514 10.7646 13.5503 10.1049 13.5554 10.0892C13.5922 9.21641 13.455 8.29236 13.4391 8.28174C13.0326 6.91035 11.9813 6.94159 11.9813 6.94159C11.9813 6.94159 12.034 6.37554 11.1313 5.78825C10.228 5.20158 10.3709 4.85358 10.35 4.84295C10.329 4.83233 10.2972 3.04046 10.3023 2.76556C10.3074 2.49003 9.9593 2.09017 9.96947 2.00208C9.98027 1.91399 10.1861 1.89274 10.2547 1.5085C10.3023 0.823119 9.57372 0.765639 9.568 0.828117C9.56228 0.890595 9.54704 0.978689 9.4886 0.999307C9.43079 1.01992 9.24022 1.25359 9.21926 1.25922C9.1983 1.26484 9.10809 1.43603 9.10809 1.43603C9.10809 1.43603 9.15573 1.48289 9.18178 1.49851C9.20782 1.51413 9.22942 1.57098 9.2453 1.75279C9.26118 1.9346 9.20274 1.87212 9.30883 1.90336C9.41427 1.9346 9.31962 2.12141 9.30883 2.11142C8.91244 2.30385 8.41632 2.8749 8.41632 2.8749C8.41632 2.8749 8.42141 2.53752 8.41124 2.42818C8.40044 2.31884 7.8408 1.75279 7.8408 1.75279C7.8408 1.75279 8.06758 1.67469 8.04154 1.68032C7.58353 1.13488 6.82824 1.14488 6.82824 1.14488L6.36325 0.77626L6.29973 1.17612C6.29973 1.17612 6.15744 1.23297 6.05707 1.2436C5.9567 1.25422 5.20967 1.96334 5.17537 1.9296C4.61573 1.9296 4.58396 2.04394 4.58396 2.27761C4.58396 2.51127 4.64749 2.54751 4.77962 2.56313C4.91174 2.57875 4.93779 2.78118 5.1652 2.78118C5.39198 2.78118 5.41358 2.61999 5.46122 2.55813C5.50886 2.49628 5.90461 2.51627 6.06342 2.51127C6.22223 2.50628 6.11106 2.81742 6.09518 2.85428C5.44979 3.52904 5.44979 4.25129 5.39134 4.28253C5.03244 4.53181 4.96891 5.09786 4.96891 5.09786C4.96891 5.09786 4.00273 5.06663 3.90236 5.14972C3.80199 5.23282 3.6489 5.26905 3.47993 5.27468C3.31096 5.27968 2.92537 5.85135 2.7672 5.96006C2.60902 6.0694 2.40829 6.12125 2.32381 6.17311C2.23932 6.22497 2.31301 6.83788 2.33397 6.96221C2.35493 7.08716 2.67191 7.32583 2.7564 7.30521ZM10.7641 8.51229C11.0106 8.41545 11.468 8.4017 11.6586 8.02059C11.6865 8.00684 11.898 7.69508 12.1019 8.25613C12.3059 8.81718 12.405 8.7597 12.4119 9.13457C12.4189 9.50944 12.7111 10.4841 12.8699 10.8009C13.0281 11.1176 12.9385 11.3775 12.8699 11.45C12.8013 11.5225 12.511 11.8861 12.2735 11.7824C12.0359 11.6787 10.3195 10.9614 10.2877 10.8321C10.256 10.7021 10.6523 10.3473 10.6523 10.3473C10.8709 10.0842 11.2088 9.88993 11.3778 9.72374C11.5468 9.55754 11.4762 9.37761 11.1243 9.01711C11.0386 8.93464 10.5177 8.60913 10.7641 8.51229ZM9.96502 10.0061C10.1022 9.93866 10.0705 9.77247 9.85386 9.51818C9.63724 9.2639 9.48415 8.9159 9.47907 8.90028C9.47907 8.90028 9.68488 8.88965 9.79033 8.90028C9.89578 8.9109 9.89578 8.88466 9.99107 8.90028C10.0864 8.9159 10.1651 9.05585 10.3398 9.1758C10.5139 9.29514 10.6409 9.40947 10.6987 9.56567C10.7565 9.72124 9.85894 10.5528 9.74269 10.6203C9.62644 10.6878 9.33614 10.501 9.22498 10.4385C9.11381 10.376 9.82781 10.0736 9.96502 10.0061Z" fill="white"/>
</svg>
