<svg width="13" height="13" viewBox="0 0 13 13" fill="none" xmlns="http://www.w3.org/2000/svg">
<path d="M6.5 0C2.9159 0 0 2.9159 0 6.5C0 10.0841 2.9159 13 6.5 13C10.0841 13 13 10.0841 13 6.5C13 2.9159 10.0841 0 6.5 0ZM6.5 11.6169C3.67856 11.6169 1.38296 9.32157 1.38296 6.5C1.38296 3.67843 3.67856 1.38309 6.5 1.38309C9.32144 1.38309 11.617 3.67843 11.617 6.5C11.617 9.32157 9.32144 11.6169 6.5 11.6169Z" fill="#D60724"/>
<path d="M9.88849 6.29794H6.96737V2.78569C6.96737 2.49012 6.72774 2.25049 6.43217 2.25049C6.13661 2.25049 5.89697 2.49012 5.89697 2.78569V6.83314C5.89697 7.1287 6.13661 7.36833 6.43217 7.36833H9.88849C10.1841 7.36833 10.4237 7.1287 10.4237 6.83314C10.4237 6.53757 10.1841 6.29794 9.88849 6.29794Z" fill="#D60724"/>
</svg>
