<svg width="212" height="150" viewBox="0 0 212 150" fill="none" xmlns="http://www.w3.org/2000/svg">
<path d="M178 83C178 79.9545 176.415 77.2966 174.024 75.776C172.454 74.7766 171.691 72.9372 172.096 71.1194C172.71 68.3538 171.952 65.3535 169.798 63.1997C167.644 61.0458 164.644 60.2877 161.878 60.9015C160.061 61.3043 158.221 60.544 157.222 58.9738C155.703 56.5852 153.046 55 150 55C146.954 55 144.297 56.5852 142.776 58.9738C141.777 60.544 139.937 61.3065 138.119 60.9015C135.354 60.2877 132.354 61.0458 130.2 63.1997C128.046 65.3535 127.288 68.3538 127.902 71.1194C128.304 72.9372 127.544 74.7745 125.974 75.776C123.585 77.2966 122 79.9545 122 83C122 86.0455 123.585 88.7034 125.976 90.224C127.546 91.2234 128.309 93.0628 127.904 94.8806C127.29 97.644 128.048 100.646 130.202 102.8C132.356 104.954 135.356 105.712 138.122 105.098C139.939 104.696 141.777 105.456 142.778 107.026C144.297 109.415 146.954 111 150 111C153.046 111 155.703 109.415 157.224 107.024C158.223 105.454 160.063 104.691 161.881 105.096C164.646 105.71 167.646 104.952 169.8 102.798C171.954 100.644 172.712 97.644 172.098 94.8785C171.696 93.0606 172.456 91.2234 174.026 90.2218C176.415 88.7034 178 86.0455 178 83Z" fill="#D60623"/>
<path fill-rule="evenodd" clip-rule="evenodd" d="M132.857 93.8142L150 103.609L167.143 93.8142V74.1856L150 64.3906L132.857 74.1856V93.8142ZM150 98.6763L137.143 91.3285V76.6714L150 69.3235L162.857 76.6714V91.3285L150 98.6763Z" fill="black"/>
<path fill-rule="evenodd" clip-rule="evenodd" d="M141.429 84.0002C141.429 88.7273 145.273 92.5716 150 92.5716C154.727 92.5716 158.572 88.7273 158.572 84.0002C158.572 79.273 154.727 75.4287 150 75.4287C145.273 75.4287 141.429 79.273 141.429 84.0002ZM145.714 84C145.714 81.6364 147.637 79.7143 150 79.7143C152.364 79.7143 154.286 81.6364 154.286 84C154.286 86.3636 152.364 88.2857 150 88.2857C147.637 88.2857 145.714 86.3636 145.714 84Z" fill="black"/>
<path fill-rule="evenodd" clip-rule="evenodd" d="M141.004 109.052C142.976 112.151 146.338 114 150 114C153.662 114 157.024 112.151 158.994 109.052C159.504 108.255 160.431 107.869 161.353 108.077C164.936 108.874 168.626 107.805 171.212 105.214C173.801 102.626 174.87 98.94 174.075 95.355C173.867 94.4293 174.253 93.5036 175.052 92.9957C178.151 91.0243 180 87.6621 180 84C180 80.3379 178.151 76.9757 175.052 75.0064C174.255 74.4964 173.869 73.5728 174.077 72.6472C174.872 69.0621 173.803 65.3764 171.214 62.7878C168.628 60.1993 164.938 59.1386 161.355 59.925C160.427 60.1328 159.501 59.7471 158.996 58.9478C157.024 55.8493 153.662 54 150 54C146.338 54 142.976 55.8493 141.006 58.9478C140.499 59.745 139.573 60.1371 138.647 59.9229C135.066 59.1364 131.376 60.1993 128.788 62.7857C126.199 65.3743 125.13 69.06 125.925 72.645C126.133 73.5707 125.747 74.4964 124.948 75.0043C121.849 76.9757 120 80.3379 120 84C120 87.6621 121.849 91.0243 124.948 92.9936C125.745 93.5036 126.131 94.4272 125.923 95.3528C125.128 98.9379 126.197 102.624 128.786 105.212C131.376 107.801 135.058 108.872 138.645 108.075C139.566 107.861 140.496 108.251 141.004 109.052ZM144.619 106.753C143.4 104.833 141.351 103.732 139.164 103.732C138.686 103.732 138.199 103.783 137.717 103.892C135.568 104.372 133.365 103.732 131.818 102.184C130.271 100.637 129.632 98.4323 130.11 96.2852C130.71 93.5787 129.587 90.868 127.249 89.3809C125.394 88.2002 124.286 86.188 124.286 84.0002C124.286 81.8123 125.394 79.8002 127.245 78.6216C129.585 77.1323 130.708 74.4237 130.108 71.7173C129.63 69.5702 130.269 67.3652 131.816 65.818C133.363 64.2709 135.568 63.6302 137.715 64.1102C140.417 64.6995 143.132 63.5894 144.619 61.2495C145.8 59.3937 147.812 58.2859 150 58.2859C152.188 58.2859 154.2 59.3937 155.379 61.2452C156.868 63.5873 159.583 64.7037 162.283 64.108C164.43 63.628 166.633 64.2687 168.182 65.8159C169.729 67.363 170.368 69.568 169.89 71.7152C169.29 74.4216 170.413 77.1323 172.751 78.6194C174.606 79.8002 175.714 81.8123 175.714 84.0002C175.714 86.188 174.606 88.2002 172.755 89.3788C170.415 90.868 169.292 93.5766 169.892 96.283C170.37 98.4302 169.731 100.635 168.184 102.182C166.637 103.729 164.432 104.37 162.285 103.89C159.579 103.294 156.866 104.411 155.381 106.751C154.2 108.607 152.188 109.714 150 109.714C147.812 109.714 145.8 108.607 144.619 106.753Z" fill="black"/>
<path d="M167 150H161.87L150 138.207L138.13 150H133V112H137.25V144.904L150 132.237L162.75 144.904V112H167V150Z" fill="#D60623"/>
<path d="M158.5 134.688L150 126.264L141.5 134.688V116.222H145.75V124.516L150 120.294L154.25 124.516V116.222H158.5V134.688Z" fill="#D60623"/>
<path d="M128.783 150H47V17H146V51.3226H141.696V21.2903H51.3043V145.71H128.783V150Z" fill="black"/>
<path d="M128.782 141.42H62.0649C58.5052 141.42 55.6084 138.532 55.6084 134.984V32.0165C55.6084 28.4684 58.5052 25.5811 62.0649 25.5811H130.934C134.494 25.5811 137.391 28.4684 137.391 32.0165V55.6133H133.087V32.0165C133.087 30.8324 132.122 29.8714 130.934 29.8714H62.0649C60.8769 29.8714 59.9127 30.8324 59.9127 32.0165V134.984C59.9127 136.168 60.8769 137.129 62.0649 137.129H128.782V141.42Z" fill="black"/>
<path fill-rule="evenodd" clip-rule="evenodd" d="M64.2178 64.1934H128.783V34.1611H64.2178V64.1934ZM124.479 59.9032H68.5221V38.4516H124.479V59.9032Z" fill="black"/>
<path d="M64.2178 77.0645H115.87V81.3548H64.2178V77.0645Z" fill="black"/>
<path d="M111.565 85.6455H115.87V89.9358H111.565V85.6455Z" fill="black"/>
<path d="M64.2178 85.6455H107.261V89.9358H64.2178V85.6455Z" fill="black"/>
<path d="M72.8262 68.4844H115.87V72.7747H72.8262V68.4844Z" fill="black"/>
<path d="M64.2178 68.4844H68.5221V72.7747H64.2178V68.4844Z" fill="black"/>
<path d="M128.783 132.838H64.2178V94.2256H120.174V98.5159H68.5221V128.548H124.479V111.387H128.783V132.838Z" fill="black"/>
</svg>
