<svg width="212" height="150" viewBox="0 0 212 150" fill="none" xmlns="http://www.w3.org/2000/svg">
<path d="M149 34H171V126H149V34Z" fill="#D60623"/>
<path fill-rule="evenodd" clip-rule="evenodd" d="M105.865 27.7258H125.806V51.3226H57.1611V27.7258H77.1026C78.9667 21.4147 84.7522 17 91.4837 17C98.2152 17 104.001 21.4147 105.865 27.7258ZM61.4512 32.0158V47.032H121.516V32.0158H102.347L102.046 30.2268C101.175 25.0484 96.7305 21.29 91.4834 21.29C86.2364 21.29 81.7916 25.0484 80.9228 30.2268L80.6203 32.0158H61.4512Z" fill="#3F3A34"/>
<path d="M130.097 36.3059H138.677V145.709H44.2903V36.3059H52.871V32.0156H40V149.999H142.968V32.0156H130.097V36.3059Z" fill="#3F3A34"/>
<path d="M52.8714 40.5967H48.5811V141.419H134.388V40.5967H130.097V137.129H52.8714V40.5967Z" fill="#3F3A34"/>
<path fill-rule="evenodd" clip-rule="evenodd" d="M147.258 33.3846L160.129 17.9395L173 33.3846V137.129C173 144.227 167.227 150 160.129 150C153.03 150 147.258 144.227 147.258 137.129V33.3846ZM160.129 24.6411L153.983 32.0162H166.275L160.129 24.6411ZM157.984 36.3064V124.258H151.548V36.3064H157.984ZM168.709 132.839V128.548H151.548V132.839H168.709ZM162.274 124.258V36.3064H168.709V124.258H162.274ZM151.548 137.129C151.548 141.861 155.396 145.71 160.128 145.71C164.861 145.71 168.709 141.861 168.709 137.129H151.548Z" fill="#3F3A34"/>
<path d="M118.336 71.6035L102.605 81.0424L100.397 77.3634L116.129 67.9246L118.336 71.6035Z" fill="#3F3A34"/>
<path d="M97.3652 77.4941L94.1586 80.3446L81.2885 65.8667L84.4951 63.0162L97.3652 77.4941Z" fill="#3F3A34"/>
<path d="M80.3691 66.2764L67.4979 83.9728L64.0283 81.4492L76.8996 63.7528L80.3691 66.2764Z" fill="#3F3A34"/>
<path d="M93.6289 98.5156H125.806V102.806H93.6289V98.5156Z" fill="#3F3A34"/>
<rect x="57.1611" y="98.5156" width="32.1774" height="4.29032" fill="#3F3A34"/>
<path d="M93.6289 107.097H125.806V111.387H93.6289V107.097Z" fill="#3F3A34"/>
<path d="M65.7422 107.097H89.339V111.387H65.7422V107.097Z" fill="#3F3A34"/>
<path d="M57.1611 107.097H61.4515V111.387H57.1611V107.097Z" fill="#3F3A34"/>
<path d="M93.6289 115.678H125.806V119.968H93.6289V115.678Z" fill="#3F3A34"/>
<rect x="57.1611" y="115.678" width="32.1774" height="4.29032" fill="#3F3A34"/>
<rect x="121.516" y="124.258" width="4.29032" height="4.29032" fill="#3F3A34"/>
<path d="M93.6289 124.258H117.226V128.548H93.6289V124.258Z" fill="#3F3A34"/>
<rect x="57.1611" y="124.258" width="32.1774" height="4.29032" fill="#3F3A34"/>
<path fill-rule="evenodd" clip-rule="evenodd" d="M57 85.6469C57 89.1495 59.9023 91.9998 63.4688 91.9998C67.0352 91.9998 69.9375 89.1495 69.9375 85.6469C69.9375 82.1443 67.0352 79.2939 63.4688 79.2939C59.9023 79.2939 57 82.1443 57 85.6469ZM61.3125 85.6469C61.3125 84.4801 62.2785 83.5293 63.4688 83.5293C64.659 83.5293 65.625 84.4801 65.625 85.6469C65.625 86.8138 64.659 87.7646 63.4688 87.7646C62.2785 87.7646 61.3125 86.8138 61.3125 85.6469Z" fill="#D60623"/>
<path fill-rule="evenodd" clip-rule="evenodd" d="M74.25 62.3529C74.25 65.8555 77.1523 68.7059 80.7188 68.7059C84.2852 68.7059 87.1875 65.8555 87.1875 62.3529C87.1875 58.8504 84.2852 56 80.7188 56C77.1523 56 74.25 58.8504 74.25 62.3529ZM78.5625 62.353C78.5625 61.1862 79.5285 60.2354 80.7188 60.2354C81.909 60.2354 82.875 61.1862 82.875 62.353C82.875 63.5198 81.909 64.4706 80.7188 64.4706C79.5285 64.4706 78.5625 63.5198 78.5625 62.353Z" fill="#D60623"/>
<path fill-rule="evenodd" clip-rule="evenodd" d="M113.062 68.7055C113.062 72.2081 115.965 75.0584 119.531 75.0584C123.098 75.0584 126 72.2081 126 68.7055C126 65.2029 123.098 62.3525 119.531 62.3525C115.965 62.3525 113.062 65.2029 113.062 68.7055ZM117.375 68.7055C117.375 67.5387 118.341 66.5879 119.531 66.5879C120.721 66.5879 121.688 67.5387 121.688 68.7055C121.688 69.8724 120.721 70.8232 119.531 70.8232C118.341 70.8232 117.375 69.8724 117.375 68.7055Z" fill="#D60623"/>
<path fill-rule="evenodd" clip-rule="evenodd" d="M91.5 81.4115C91.5 84.9141 94.4023 87.7645 97.9688 87.7645C101.535 87.7645 104.438 84.9141 104.438 81.4115C104.438 77.909 101.535 75.0586 97.9688 75.0586C94.4023 75.0586 91.5 77.909 91.5 81.4115ZM95.8125 81.4115C95.8125 80.2446 96.7785 79.2938 97.9688 79.2938C99.159 79.2938 100.125 80.2446 100.125 81.4115C100.125 82.5783 99.159 83.5291 97.9688 83.5291C96.7785 83.5291 95.8125 82.5783 95.8125 81.4115Z" fill="#D60623"/>
</svg>
