<svg width="212" height="150" viewBox="0 0 212 150" fill="none" xmlns="http://www.w3.org/2000/svg">
<path fill-rule="evenodd" clip-rule="evenodd" d="M176.286 7.69129C175.362 6.76957 173.849 6.76957 172.897 7.69129L164.047 16.5175H108.425L38.4646 86.8758C36.8682 88.4679 36 90.5906 36 92.8251C36 95.0596 36.8682 97.1824 38.4646 98.7745L87.3644 147.542C89.0168 149.19 91.1733 150 93.3298 150C95.4863 150 97.6709 149.162 99.3233 147.514L167.436 77.7424V19.8972L176.286 11.071C177.238 10.1213 177.238 8.61301 176.286 7.69129ZM162.647 75.8149L95.9064 144.162C94.4781 145.587 92.1535 145.587 90.7532 144.162L41.8254 95.3946C40.3971 93.9701 40.3971 91.6518 41.8254 90.2274L110.414 21.2935H159.286L147.747 32.8011C145.842 31.5442 143.602 30.818 141.165 30.818C134.584 30.818 129.206 36.1528 129.206 42.7446C129.206 49.3363 134.556 54.6711 141.165 54.6711C147.747 54.6711 153.124 49.3363 153.124 42.7446C153.124 40.3146 152.396 38.0801 151.136 36.1808L162.675 24.6732V75.8149H162.647ZM141.137 49.8949C145.086 49.8949 148.307 46.6828 148.307 42.7445C148.307 41.6552 148.055 40.6218 147.579 39.7001L142.818 44.4483C142.37 44.9232 141.754 45.1466 141.137 45.1466C140.521 45.1466 139.933 44.9232 139.457 44.4483C138.533 43.4987 138.533 41.9904 139.457 41.0687L144.218 36.3204C143.266 35.8735 142.23 35.5942 141.137 35.5942C137.188 35.5942 133.968 38.8063 133.968 42.7445C133.968 46.6828 137.188 49.8949 141.137 49.8949Z" fill="black"/>
<path d="M134.959 80.7091L109.691 106.796C108.77 107.746 108.77 109.301 109.691 110.28C110.166 110.77 110.752 111 111.366 111C111.98 111 112.595 110.77 113.041 110.28L138.309 84.2219C139.23 83.2717 139.23 81.7169 138.309 80.7379C137.388 79.7589 135.88 79.7589 134.959 80.7091Z" fill="black"/>
<path d="M144.727 73.6828C144.291 74.1527 144 74.7988 144 75.4743C144 76.1498 144.262 76.7959 144.727 77.2658C145.192 77.7357 145.831 78 146.5 78C147.14 78 147.779 77.7357 148.244 77.2658C148.709 76.8253 149 76.1498 149 75.4743C149 74.8282 148.738 74.1821 148.244 73.6828C147.285 72.7724 145.657 72.7724 144.727 73.6828Z" fill="black"/>
<path d="M123.31 53.2001C124.23 52.2491 124.23 50.693 123.31 49.7132C122.389 48.7623 120.883 48.7623 119.934 49.7132L94.6904 75.7927C93.7699 76.7437 93.7699 78.2998 94.6904 79.2796C95.1646 79.7695 95.7503 80 96.364 80C96.9777 80 97.5914 79.7695 98.0377 79.2796L123.31 53.2001Z" fill="black"/>
<path d="M115.708 81.2892C116.192 81.7725 116.79 82 117.417 82C118.043 82 118.67 81.7725 119.125 81.2892L136.295 64.1441C137.235 63.2058 137.235 61.6704 136.295 60.7037C135.356 59.7654 133.818 59.7654 132.85 60.7037L115.68 77.8488C114.769 78.8155 114.769 80.3509 115.708 81.2892Z" fill="black"/>
<path d="M102.515 91.7635L98.7668 95.4961C97.7444 96.5141 97.7444 98.1799 98.7668 99.2288C99.2935 99.7532 99.9441 100 100.626 100C101.307 100 101.989 99.7532 102.485 99.2288L106.233 95.4961C107.256 94.4781 107.256 92.8123 106.233 91.7635C105.242 90.7455 103.569 90.7455 102.515 91.7635Z" fill="black"/>
<path d="M76.3919 76C77.0056 76 77.6192 75.7695 78.0656 75.2796L103.31 49.2001C104.23 48.2491 104.23 46.693 103.31 45.7132C102.389 44.7623 100.883 44.7623 99.9344 45.7132L74.6904 71.7927C73.7699 72.7437 73.7699 74.2998 74.6904 75.2796C75.1646 75.7695 75.7782 76 76.3919 76Z" fill="black"/>
<path d="M110.485 42C111.129 42 111.772 41.7367 112.269 41.2685C112.708 40.8003 113 40.1858 113 39.4836C113 38.8398 112.737 38.1961 112.24 37.6986C111.304 36.7623 109.667 36.7623 108.731 37.7279C108.292 38.1668 108 38.8398 108 39.4836C108 40.1273 108.263 40.771 108.731 41.2685C109.199 41.7367 109.842 42 110.485 42Z" fill="black"/>
<path d="M87.7267 81.6828C87.2616 82.1527 87 82.7695 87 83.4743C87 84.1498 87.2616 84.7665 87.7267 85.2364C88.1628 85.7063 88.8023 86 89.5 86C90.1395 86 90.7791 85.7357 91.2442 85.2658C91.7093 84.7959 92 84.1498 92 83.4743C92 82.8282 91.7384 82.1821 91.2442 81.6828C90.2849 80.7724 88.6279 80.7724 87.7267 81.6828Z" fill="black"/>
<path d="M112.269 88.269C112.708 87.8304 113 87.1871 113 86.4854C113 85.8421 112.737 85.1988 112.269 84.7018C111.333 83.7661 109.667 83.7661 108.731 84.7018C108.292 85.1696 108 85.8129 108 86.4854C108 87.1579 108.263 87.7719 108.731 88.269C109.199 88.7368 109.842 89 110.515 89C111.187 89 111.772 88.7368 112.269 88.269Z" fill="black"/>
<path fill-rule="evenodd" clip-rule="evenodd" d="M93.8325 120.435C95.2822 118.236 96.007 115.593 95.7561 112.893C95.5609 110.639 94.5016 108.636 92.7174 107.189C90.9054 105.714 88.508 105.046 86.1941 105.324L79.5315 106.159L70.3877 97.0316C73.036 95.7794 76.2977 96.2246 78.5 98.3951C79.42 99.3135 80.9253 99.3135 81.8732 98.3951C82.7931 97.4768 82.7931 95.9742 81.8732 95.028C77.8031 90.9652 71.5307 90.4643 66.903 93.5253L65.0631 91.6887C64.1432 90.7704 62.6378 90.7704 61.69 91.6887C60.77 92.607 60.77 94.1097 61.69 95.0559L63.5577 96.9203C62.1081 99.1187 61.4112 101.762 61.6342 104.462C61.8294 106.688 62.8887 108.719 64.6728 110.166C66.4849 111.641 68.8544 112.309 71.1961 112.031L77.8588 111.196L86.9747 120.295C84.3264 121.492 81.009 121.047 78.8903 118.96C77.9703 118.041 76.465 118.041 75.5171 118.96C74.5972 119.878 74.5972 121.381 75.5171 122.327C77.7473 124.581 80.7581 125.805 83.9361 125.805C86.3057 125.805 88.5637 125.11 90.4873 123.829L91.9648 125.304C92.4387 125.777 93.0241 126 93.6374 126C94.2507 126 94.864 125.777 95.31 125.304C96.23 124.386 96.23 122.883 95.31 121.937L93.8325 120.435ZM70.5549 107.3C69.5235 107.439 68.4363 107.133 67.6278 106.465C66.8751 105.853 66.4012 104.99 66.3176 104.044C66.2061 102.764 66.4849 101.54 67.0145 100.399L73.5378 106.91L70.5549 107.3ZM89.7067 110.89C88.8982 110.222 87.811 109.916 86.7796 110.055L83.7967 110.444L90.32 116.956C90.8497 115.815 91.1284 114.591 91.0169 113.311C90.9333 112.365 90.4594 111.502 89.7067 110.89Z" fill="#D60623"/>
</svg>
