<svg width="212" height="150" viewBox="0 0 212 150" fill="none" xmlns="http://www.w3.org/2000/svg">
<path d="M149.308 108.677C148.412 107.774 146.947 107.774 146.024 108.677L142.088 112.671H68.9415C68.3172 112.671 67.7472 112.917 67.313 113.355L62.6718 118.006C61.7761 118.909 61.7761 120.386 62.6718 121.316C63.1332 121.781 63.7031 122 64.3003 122C64.8974 122 65.4945 121.781 65.9288 121.316L69.8914 117.322H143.038C143.662 117.322 144.232 117.076 144.667 116.638L149.308 111.96C150.231 111.057 150.231 109.58 149.308 108.677Z" fill="#080101"/>
<path d="M149.308 127.677C148.412 126.774 146.947 126.774 146.024 127.677L142.088 131.644H68.9415C68.3172 131.644 67.7472 131.89 67.313 132.328L62.6718 137.006C61.7761 137.909 61.7761 139.386 62.6718 140.316C63.1332 140.781 63.7031 141 64.3003 141C64.8974 141 65.4945 140.781 65.9288 140.316L69.8914 136.322H143.038C143.662 136.322 144.232 136.076 144.667 135.638L149.308 130.96C150.231 130.057 150.231 128.58 149.308 127.677Z" fill="#080101"/>
<path d="M75.7566 122H71.2434C70.0029 122 69 123.118 69 124.5C69 125.882 70.0029 127 71.2434 127H75.7566C76.9971 127 78 125.882 78 124.5C78 123.118 76.9971 122 75.7566 122Z" fill="#080101"/>
<path d="M99.6712 122H90.3288C89.0411 122 88 123.118 88 124.5C88 125.882 89.0411 127 90.3288 127H99.6712C100.959 127 102 125.882 102 124.5C102 123.118 100.959 122 99.6712 122Z" fill="#080101"/>
<path d="M122.671 122H113.329C112.041 122 111 123.118 111 124.5C111 125.882 112.041 127 113.329 127H122.671C123.959 127 125 125.882 125 124.5C125 123.118 123.959 122 122.671 122Z" fill="#080101"/>
<path d="M140.757 122H136.243C135.003 122 134 123.118 134 124.5C134 125.882 135.003 127 136.243 127H140.757C141.997 127 143 125.882 143 124.5C143 123.118 141.997 122 140.757 122Z" fill="#080101"/>
<path fill-rule="evenodd" clip-rule="evenodd" d="M111.302 14L128.831 22.501L137 39.097L134.403 54.8266L125.26 70.9894L111.951 86.9626L106.703 93L101.455 86.9626L88.1459 70.9894L79.0027 54.8266L76 46.0548L79.0027 32.4099L84.8727 22.853L102.077 14H111.302ZM91.6355 43.2665C91.6355 51.4698 98.29 58.1298 106.486 58.1298C114.71 58.1298 121.337 51.4698 121.337 43.2665C121.337 35.0633 114.683 28.4033 106.486 28.4033C98.29 28.4033 91.6355 35.0633 91.6355 43.2665Z" fill="#D60623"/>
<path fill-rule="evenodd" clip-rule="evenodd" d="M74 46.6559C74 27.0099 88.5774 11 106.5 11C124.423 11 139 27.0099 139 46.6559C139 65.7863 109.437 96.9648 108.186 98.2673C107.751 98.7286 107.126 99 106.5 99C105.847 99 105.249 98.7286 104.814 98.2673L104.762 98.2128C102.917 96.255 74 65.5762 74 46.6559ZM78.6506 46.6557C78.6506 61.4987 100.245 86.3547 106.5 93.2471C112.755 86.3547 134.349 61.4987 134.349 46.6557C134.349 29.5604 121.866 15.64 106.5 15.64C91.1339 15.64 78.6506 29.5604 78.6506 46.6557Z" fill="#080101"/>
<path fill-rule="evenodd" clip-rule="evenodd" d="M88 43.5C88 33.2884 96.3155 25 106.5 25C116.684 25 125 33.2884 125 43.5C125 53.7116 116.712 62 106.5 62C96.2884 62 88 53.7116 88 43.5ZM92.6318 43.5001C92.6318 51.1384 98.8616 57.3683 106.5 57.3683C114.138 57.3683 120.368 51.1384 120.368 43.5001C120.368 35.8617 114.138 29.6318 106.5 29.6318C98.8616 29.6318 92.6318 35.8617 92.6318 43.5001Z" fill="#080101"/>
<path fill-rule="evenodd" clip-rule="evenodd" d="M152.733 72.6334L175.891 146.978C176.109 147.686 176 148.448 175.566 149.047C175.131 149.646 174.425 150 173.692 150H39.3282C38.5951 150 37.8892 149.646 37.4548 149.047C37.0204 148.448 36.8847 147.686 37.1019 146.978L60.2878 72.6334C60.5864 71.6534 61.4824 71 62.4869 71H87.8448C88.6321 71 89.338 71.3811 89.7724 72.0072C96.044 81.2629 103.293 89.5658 106.497 93.1048C109.7 89.5658 116.949 81.2629 123.221 72.0072C123.655 71.3811 124.388 71 125.149 71H150.534C151.538 71 152.434 71.6534 152.733 72.6334ZM64.1702 75.6552L42.4504 145.345H170.543L148.823 75.6552H126.37C118.195 87.4984 109.008 97.2861 108.221 98.1249L108.18 98.1683C107.284 99.0939 105.682 99.0939 104.813 98.1683L104.773 98.1249C103.985 97.2861 94.7982 87.4984 86.623 75.6552H64.1702Z" fill="#080101"/>
<path fill-rule="evenodd" clip-rule="evenodd" d="M111.199 86.8263C111.843 86.0623 112.888 85.8167 113.799 86.1714C118.864 88.2179 122 92.1197 122 96.349C122 102.898 114.978 108 106 108C97.0218 108 90 102.87 90 96.349C90 92.1197 93.1357 88.1906 98.201 86.1714C99.139 85.7894 100.157 86.0623 100.801 86.8263C102.918 89.4184 104.767 91.5194 106 92.911C107.233 91.5194 109.055 89.4184 111.199 86.8263ZM94.5561 96.349C94.5561 100.142 99.809 103.334 106 103.334C112.191 103.334 117.444 100.142 117.444 96.349C117.444 94.4117 115.997 92.529 113.585 91.192C110.154 95.2849 107.769 97.8497 107.662 97.9589C106.777 98.8866 105.196 98.8866 104.338 97.9589C104.231 97.8497 101.846 95.2849 98.4154 91.192C96.0033 92.529 94.5561 94.4117 94.5561 96.349Z" fill="#080101"/>
</svg>
