<?xml version="1.0" encoding="utf-8"?>
<!-- Generator: Adobe Illustrator 21.0.2, SVG Export Plug-In . SVG Version: 6.00 Build 0)  -->
<svg version="1.1"
	 id="Слой_1" xmlns:cc="http://creativecommons.org/ns#" xmlns:dc="http://purl.org/dc/elements/1.1/" xmlns:inkscape="http://www.inkscape.org/namespaces/inkscape" xmlns:rdf="http://www.w3.org/1999/02/22-rdf-syntax-ns#" xmlns:sodipodi="http://sodipodi.sourceforge.net/DTD/sodipodi-0.dtd" xmlns:svg="http://www.w3.org/2000/svg"
	 xmlns="http://www.w3.org/2000/svg" xmlns:xlink="http://www.w3.org/1999/xlink" x="0px" y="0px" viewBox="0 0 583.8 420.5"
	 style="enable-background:new 0 0 583.8 420.5;" xml:space="preserve">
<style type="text/css">
	.st0{fill:#262B30;}
	.st1{fill:#BA122B;}
</style>
<path class="st0" d="M168,0C112.5,0,67.4,45.1,67.4,100.7c0,29.3,12.6,55.6,32.7,74C39.7,201.4,8,261.6,8,328.5
	c0,4.2,3.3,7.7,7.6,7.7h75.7c4.3,0,7.6-3.5,7.6-7.7c0-4.2-3.3-7.7-7.6-7.7H23.5c3-60.4,33.8-113.7,90.6-135.2
	c15.6,10,34.1,15.9,54,15.9c4.2,0,7.7-3.5,7.7-7.7c0-4.2-3.5-7.6-7.7-7.6c-47.1,0-85.4-38.3-85.4-85.4c0-47.1,38.3-85.4,85.4-85.4
	c9.7,0,19.3,1.5,28.3,4.7c4,1.5,8.3-0.6,9.7-4.6c1.4-4-0.8-8.4-4.7-9.8C190.7,1.9,179.5,0,168,0L168,0z"/>
<path class="st0" d="M415.7,0.1c-11.4,0-22.6,1.9-33.3,5.7c-4,1.4-6.1,5.7-4.7,9.7c1.4,4,5.9,6.1,9.8,4.7c9.1-3.1,18.5-4.8,28.2-4.8
	c47.1,0,85.4,38.3,85.4,85.4c0,47.1-38.3,85.4-85.4,85.4c-4.2,0-7.7,3.5-7.7,7.7c0,4.2,3.5,7.7,7.7,7.7c19.8,0,38.3-5.9,54-15.9
	c56.9,21.5,85.6,74.8,88.6,135.3h-65.7c-4.3,0-7.7,3.5-7.7,7.7c0,4.2,3.4,7.7,7.7,7.7h73.7c4.2,0,7.6-3.5,7.6-7.7
	c0-67-29.7-127.2-90.1-153.9c20-18.4,32.6-44.7,32.6-74C516.4,45.3,471.3,0.1,415.7,0.1z"/>
<path class="st1" d="M359.9,174.8c20-18.4,32.7-44.7,32.7-74c0-45.1-29.8-83.4-70.8-96.2c-9.5-2.9-19.5-4.5-29.9-4.5l0,0
	c-8.7,0-17,1.2-25.1,3.3c-43.4,11.2-75.6,50.5-75.6,97.4c0,29.3,12.7,55.6,32.7,74c-60.4,26.7-100.1,86.9-100.1,153.8
	c0,4.2,3.4,7.7,7.6,7.7l24.8,6.3c92.7,23.4,189.8,22.6,282-2.4l14.2-3.8c1,0,2.1-0.3,3-0.6c2.7-1.2,4.6-3.8,4.6-7
	C460,261.7,420.3,201.5,359.9,174.8z M206.5,100.8c0-45.4,35.5-82.5,80.2-85.2c1.7-0.1,3.5-0.3,5.3-0.3c1.7,0,3.4,0.1,5.2,0.3
	c44.7,2.7,80.3,39.8,80.3,85.2c0,45.3-35.6,82.4-80.3,85.1c-1.7,0.1-3.4,0.3-5.2,0.3c-1.8,0-3.5-0.2-5.3-0.3
	C242,183.2,206.5,146.1,206.5,100.8z M139.2,321c3-60.5,41.8-113.9,98.7-135.4h0c7.8,5,16.3,9,25.3,11.7c1,0.3,2.2,0.4,3.2,0.7
	c6.4,1.7,13,2.7,19.8,3.1c1.9,0.1,3.6,0.4,5.5,0.4c1.9,0,3.7-0.3,5.5-0.4c6.3-0.3,12.5-1.3,18.4-2.7c1.5-0.4,3.1-0.6,4.6-1.1
	c9.1-2.7,17.5-6.7,25.3-11.7c56.9,21.5,95.7,74.8,98.7,135.4l0,0c-96.5,27.5-198.6,28.3-295.6,2.6L139.2,321z"/>
</svg>
