<svg xmlns="http://www.w3.org/2000/svg" xmlns:xlink="http://www.w3.org/1999/xlink" width="20" height="32" viewBox="0 0 20 32"><defs><path id="4s8aa" d="M309.457 4375.751l-15.15-14.24a1.91 1.91 0 0 0-1.316-.511 1.91 1.91 0 0 0-1.317.511l-1.116 1.049a1.68 1.68 0 0 0 0 2.475l12.721 11.958-12.735 11.972c-.35.33-.544.769-.544 1.237 0 .47.193.909.544 1.239l1.116 1.048c.35.33.818.511 1.316.511a1.91 1.91 0 0 0 1.317-.511l15.164-14.253a1.688 1.688 0 0 0 0-2.485z"/></defs><g><g transform="translate(-290 -4361)"><use fill="#d60724" xlink:href="#4s8aa"/></g></g></svg>