<?xml version="1.0" encoding="utf-8"?>
<!-- Generator: Adobe Illustrator 21.0.2, SVG Export Plug-In . SVG Version: 6.00 Build 0)  -->
<svg version="1.1" id="Layer_1" xmlns="http://www.w3.org/2000/svg" xmlns:xlink="http://www.w3.org/1999/xlink" x="0px" y="0px"
	 viewBox="0 0 500 500" style="enable-background:new 0 0 500 500;" xml:space="preserve">
<style type="text/css">
	.st0{fill:#262B30;}
</style>
<g>
	<g>
		<path class="st0" d="M250,0c-53.9,0-97.7,43.8-97.7,97.7v50.6c0,53.9,43.8,97.7,97.7,97.7c53.9,0,97.7-43.8,97.7-97.7V97.7
			C347.7,43.8,303.9,0,250,0z"/>
	</g>
</g>
<g>
	<g>
		<path class="st0" d="M458.5,373.4c-31.3-53.3-81.3-92.8-140.8-111.3c-1.4-0.4-2.9-0.1-3.9,1c-27.7,27.3-62.1,48.6-70.7,53.7
			c-9.2-5.9-47.8-31.1-70.8-53.7c-1-1-2.5-1.4-3.9-1c-59.5,18.5-109.5,58-140.8,111.3c-0.7,1.2-0.7,2.7,0,4
			C72,453,154.5,500,243,500c88.5,0,171.1-47,215.5-122.7C459.2,376.1,459.2,374.6,458.5,373.4z M375.9,402.5c0,2.2-2.1,3.8-4.2,3.8
			h-26.5c-2.2,0-4.5,1.9-4.5,4v27.4c0,2.2-1.2,3.8-3.3,3.8h-23.8c-2.2,0-4.2-1.6-4.2-3.8v-27.4c0-2.2-1.5-4-3.6-4h-27.6
			c-2.2,0-3.9-1.7-3.9-3.8v-23.6c0-2.2,1.8-3.9,3.9-3.9h27.6c2.2,0,3.6-1.8,3.6-3.9v-27.4c0-2.2,2-3.9,4.2-3.9h23.5
			c2.2,0,3.6,1.7,3.6,3.9v27.5c0,2.2,2.1,3.8,4.2,3.8h26.7c2.2,0,4.2,1.8,4.2,4L375.9,402.5L375.9,402.5z"/>
	</g>
</g>
</svg>
