<?xml version="1.0" encoding="utf-8"?>
<!-- Generator: Adobe Illustrator 21.1.0, SVG Export Plug-In . SVG Version: 6.00 Build 0)  -->
<svg version="1.1" id="Слой_1" xmlns="http://www.w3.org/2000/svg" xmlns:xlink="http://www.w3.org/1999/xlink" x="0px" y="0px"
	 viewBox="0 0 100 87.2" style="enable-background:new 0 0 100 87.2;" xml:space="preserve">
<style type="text/css">
	.st0{fill:#262B30;}
</style>
<path class="st0" d="M67.8,60.7c-0.3,0.5-0.7,1-1,1.5C67.1,61.7,67.5,61.2,67.8,60.7z"/>
<path class="st0" d="M72.2,69.7c-0.2,0.2-0.4,0.5-0.6,0.7C71.8,70.2,72,69.9,72.2,69.7z"/>
<path class="st0" d="M66,63.2c0,0.1-0.1,0.1-0.1,0.2C65.9,63.4,66,63.3,66,63.2z"/>
<path class="st0" d="M68,60.3c2.1-3.4,3.5-7.1,4.2-11l0,0C71.5,53.2,70,57,68,60.3z"/>
<path class="st0" d="M66.8,62.2c-0.3,0.4-0.5,0.7-0.8,1.1C66.3,62.9,66.5,62.5,66.8,62.2z"/>
<path class="st0" d="M71.6,70.4c-0.2,0.2-0.4,0.4-0.6,0.6C71.2,70.8,71.4,70.6,71.6,70.4z"/>
<path class="st0" d="M68,60.3c-0.1,0.1-0.1,0.2-0.2,0.3C67.9,60.6,67.9,60.5,68,60.3z"/>
<path class="st0" d="M7.6,20.3c0.2-0.3,0.5-0.7,0.7-1C8.1,19.6,7.8,20,7.6,20.3z"/>
<path class="st0" d="M74,67.4c-0.2,0.3-0.5,0.7-0.7,1C73.5,68,73.8,67.7,74,67.4z"/>
<path class="st0" d="M73.3,68.3c-0.3,0.4-0.7,0.9-1,1.3C72.6,69.2,72.9,68.8,73.3,68.3z"/>
<path class="st0" d="M74.1,67.2c0,0-0.1,0.1-0.1,0.1C74,67.3,74.1,67.3,74.1,67.2z"/>
<path class="st0" d="M68.9,14.3c0.2,0.2,0.5,0.5,0.7,0.7C69.4,14.8,69.1,14.5,68.9,14.3z"/>
<path class="st0" d="M8.3,19.3c0.3-0.4,0.7-0.9,1-1.3C9,18.4,8.7,18.9,8.3,19.3z"/>
<path class="st0" d="M7.5,20.4c0,0,0.1-0.1,0.1-0.1C7.6,20.4,7.5,20.4,7.5,20.4z"/>
<path class="st0" d="M69.6,15c0.2,0.2,0.4,0.4,0.6,0.6C70,15.4,69.8,15.2,69.6,15z"/>
<path class="st0" d="M68.8,14.2L68.8,14.2c0,0,0.1,0.1,0.1,0.1C68.9,14.3,68.8,14.2,68.8,14.2z"/>
<path class="st0" d="M72.2,49.3c-0.7,3.9-2.1,7.7-4.2,11c-0.1,0.1-0.1,0.2-0.2,0.3c-0.3,0.5-0.7,1-1,1.5c-0.3,0.4-0.5,0.7-0.8,1.1
	c0,0.1-0.1,0.1-0.1,0.2c-4.7,6-11.5,10.3-19.6,11.7C32.6,77.5,19.5,70.9,13,59.5l0,0c-1.7-3.1-3-6.5-3.6-10.2
	C6.4,32,18,15.5,35.4,12.5c13.6-2.3,26.7,4.3,33.2,15.7l0,0l9.2-1.6c-1.9-4.1-4.5-7.8-7.5-11c-0.2-0.2-0.4-0.4-0.6-0.6
	c-0.2-0.2-0.5-0.5-0.7-0.7c0,0-0.1-0.1-0.1-0.1C59.9,5.9,47.4,1.6,34.5,3.6l-0.2,0c0,0-0.2,0-0.4,0.1c0,0-0.1,0-0.1,0
	c-3.6,0.6-7,1.7-10.2,3.2c-0.3,0.1-0.6,0.2-0.8,0.4l-0.1,0c-4,2-7.7,4.6-10.8,7.8l0,0c0,0,0,0-0.1,0.1c-0.5,0.5-0.9,1-1.4,1.5
	c-0.2,0.2-0.4,0.4-0.5,0.6c-0.2,0.2-0.4,0.5-0.6,0.7c-0.4,0.4-0.7,0.9-1,1.3c-0.2,0.3-0.5,0.7-0.7,1c0,0-0.1,0.1-0.1,0.1
	c-6,8.5-8.8,19.4-6.8,30.4C2.1,59.2,6,66.4,11.4,72c0.4,0.5,0.9,0.9,1.3,1.3c0,0,0,0,0,0c0,0,0.1,0.1,0.1,0.1l0,0l0,0l10.6,7.1
	l-10.6-7.1c8.9,8.3,21.3,12.6,34.2,10.6l0.2,0c0,0,0.2,0,0.4-0.1c0,0,0.1,0,0.1,0c3.6-0.6,7-1.7,10.2-3.2c0.3-0.1,0.6-0.2,0.8-0.4
	l0.1,0c4-2,7.7-4.6,10.8-7.8l0,0c0,0,0,0,0.1-0.1c0.5-0.5,0.9-1,1.4-1.5c0.2-0.2,0.4-0.4,0.6-0.6c0.2-0.2,0.4-0.5,0.6-0.7
	c5.1-6.2,8.3-13.8,9.1-22L72.2,49.3z"/>
<path class="st0" d="M50.7,31.3l9.5-1.7c-5.3-7.2-14.3-11.2-23.6-9.5C23.5,22.4,14.7,34.9,17,48c2.2,13.1,14.8,21.9,27.9,19.6
	c9.4-1.7,16.6-8.4,19-17l-9.5,1.7c-2.3,3.7-6.2,6.5-10.8,7.4c-8.7,1.6-17-4.4-18.6-13.1c-1.6-8.7,4.4-17,13.1-18.6
	C42.7,27.3,47.2,28.6,50.7,31.3L50.7,31.3z"/>
<path class="st0" d="M47.2,38.6c-0.4-0.6-1-1.1-1.7-1.6c-3.8-2.7-8.9-1.8-11.6,2s-1.8,8.9,2,11.6c3.8,2.7,8.9,1.8,11.6-2
	c0.4-0.7,0.8-1.3,1-2L80.9,41l2.8,2.6l16.3-2.8l-6.6-6l4.1-7.9l-16.3,2.8L79.4,33L47.2,38.6z"/>
</svg>
