<svg width="50" height="46" viewBox="0 0 50 46" fill="none" xmlns="http://www.w3.org/2000/svg">
<path d="M24.85 8.126C26.868 3.343 31.478 0.001 36.84 0.001C44.063 0.001 49.265 6.18 49.919 13.544C49.919 13.544 50.272 15.372 49.495 18.663C48.437 23.145 45.95 27.127 42.597 30.166L24.85 46L7.402 30.165C4.049 27.127 1.562 23.144 0.504002 18.662C-0.272998 15.371 0.0800022 13.543 0.0800022 13.543C0.734002 6.179 5.936 0 13.159 0C18.522 0 22.832 3.343 24.85 8.126Z" fill="url(#paint0_radial)"/>
<path d="M6 16.0781C5.447 16.0781 5 15.6311 5 15.0781C5 9.56413 9.486 5.07812 15 5.07812C15.553 5.07812 16 5.52513 16 6.07812C16 6.63112 15.553 7.07812 15 7.07812C10.589 7.07812 7 10.6671 7 15.0781C7 15.6311 6.553 16.0781 6 16.0781Z" fill="white"/>
<defs>
<radialGradient id="paint0_radial" cx="0" cy="0" r="1" gradientUnits="userSpaceOnUse" gradientTransform="translate(52.568 9.8934) rotate(146.851) scale(41.0326 39.7987)">
<stop stop-color="#FFE6E9" stop-opacity="0.01"/>
<stop offset="1" stop-color="#D60623"/>
</radialGradient>
</defs>
</svg>
