<svg xmlns="http://www.w3.org/2000/svg" xmlns:xlink="http://www.w3.org/1999/xlink" width="32" height="32" viewBox="0 0 32 32"><defs><path id="yk03a" d="M122.382 6888.821c.237-.24.568-.376.905-.376a1.284 1.284 0 0 1 1.281 1.286c0 .338-.136.67-.375.91a1.291 1.291 0 0 1-.906.376 1.289 1.289 0 0 1-1.282-1.286c0-.34.138-.671.377-.91zm-1.045 6.184a3.336 3.336 0 0 0-3.332-3.332 3.336 3.336 0 0 0-3.332 3.332 3.336 3.336 0 0 0 3.332 3.332 3.336 3.336 0 0 0 3.332-3.332zm1.727-.01a5.075 5.075 0 0 1-5.07 5.07 5.075 5.075 0 0 1-5.068-5.07 5.075 5.075 0 0 1 5.069-5.069 5.075 5.075 0 0 1 5.069 5.07zm-.652 8.104a3.691 3.691 0 0 0 3.687-3.687v-8.824a3.691 3.691 0 0 0-3.687-3.687h-8.824a3.691 3.691 0 0 0-3.687 3.687v8.824a3.691 3.691 0 0 0 3.687 3.687zm-8.821-17.945h8.828a5.443 5.443 0 0 1 5.437 5.437v8.828a5.443 5.443 0 0 1-5.437 5.437h-8.828a5.443 5.443 0 0 1-5.437-5.437v-8.828a5.443 5.443 0 0 1 5.437-5.437zM118 6879c-8.837 0-16 7.163-16 16s7.163 16 16 16 16-7.163 16-16-7.163-16-16-16z"/></defs><g><g transform="translate(-102 -6879)"><use fill="#fff" xlink:href="#yk03a"/></g></g></svg>