<svg xmlns="http://www.w3.org/2000/svg" xmlns:xlink="http://www.w3.org/1999/xlink" width="20" height="20" viewBox="0 0 20 20"><defs><path id="tk0qa" d="M82 5078c0-5.523 4.477-10 10-10s10 4.477 10 10-4.477 10-10 10-10-4.477-10-10z"/><path id="tk0qc" d="M134.664 5035.33H49.33v85.334h85.334z"/><path id="tk0qd" d="M123.543 5061.21H78.09v45.453h45.453z"/><path id="tk0qf" d="M115.045 5061.18H66.19v47.625h48.855z"/><path id="tk0qh" d="M104.424 5069.88H68.25v35.473h36.174z"/><path id="tk0qj" d="M99.245 5082.02H77.53v20.342h21.715z"/><path id="tk0ql" d="M105.288 5042.09H62.46v35.473h42.828z"/><path id="tk0qn" d="M97.077 5080.77a2.31 2.31 0 0 1-2.308 2.307h-5.52a2.31 2.31 0 0 1-2.308-2.308v-5.52a2.31 2.31 0 0 1 2.307-2.308h5.521a2.31 2.31 0 0 1 2.308 2.307v5.521zm-2.316-8.92h-5.515a3.4 3.4 0 0 0-3.396 3.396v5.515a3.4 3.4 0 0 0 3.396 3.397h5.515a3.4 3.4 0 0 0 3.397-3.397v-5.515a3.4 3.4 0 0 0-3.397-3.396z"/><path id="tk0qo" d="M92.001 5080.08a2.082 2.082 0 0 1-2.079-2.079c0-1.146.933-2.08 2.08-2.08 1.146 0 2.079.934 2.079 2.08 0 1.147-.933 2.08-2.08 2.08zm0-5.25a3.175 3.175 0 0 0-3.171 3.171 3.175 3.175 0 0 0 3.171 3.172 3.175 3.175 0 0 0 3.172-3.172A3.175 3.175 0 0 0 92 5074.83z"/><path id="tk0qp" d="M95.3 5073.9a.804.804 0 0 0-.8.8c0 .211.086.418.235.567a.807.807 0 0 0 .566.235.809.809 0 0 0 .566-.235.804.804 0 0 0-.566-1.367z"/><radialGradient id="tk0qe" cx="100.81" cy="5083.93" r="22.72" gradientUnits="userSpaceOnUse"><stop offset="0" stop-color="#b039db"/><stop offset="1" stop-color="#b039db" stop-opacity="0"/></radialGradient><radialGradient id="tk0qg" cx="90.61" cy="5084.99" r="23.86" gradientUnits="userSpaceOnUse"><stop offset="0" stop-color="#f1224d"/><stop offset=".9" stop-color="#f1224d" stop-opacity="0"/></radialGradient><radialGradient id="tk0qi" cx="86.33" cy="5087.62" r="18.09" gradientUnits="userSpaceOnUse"><stop offset="0" stop-color="#ffa915"/><stop offset=".7" stop-color="#ffa915" stop-opacity="0"/></radialGradient><radialGradient id="tk0qk" cx="88.39" cy="5092.19" r="10.86" gradientUnits="userSpaceOnUse"><stop offset=".29" stop-color="#fff2bd"/><stop offset=".36" stop-color="#ffea87"/><stop offset="1" stop-color="#ffea87" stop-opacity="0"/></radialGradient><radialGradient id="tk0qm" cx="83.88" cy="5057.89" r="23.2" gradientUnits="userSpaceOnUse"><stop offset="0" stop-color="#00fffc"/><stop offset="1" stop-color="#00fffc" stop-opacity="0"/></radialGradient><clipPath id="tk0qb"><use xlink:href="#tk0qa"/></clipPath></defs><g><g transform="translate(-82 -5068)"><g><g/><g clip-path="url(#tk0qb)"><g><use fill="#204bff" xlink:href="#tk0qc"/></g><g><use fill="url(#tk0qe)" xlink:href="#tk0qd"/></g><g><use fill="url(#tk0qg)" xlink:href="#tk0qf"/></g><g><use fill="url(#tk0qi)" xlink:href="#tk0qh"/></g><g><use fill="url(#tk0qk)" xlink:href="#tk0qj"/></g><g><use fill="url(#tk0qm)" xlink:href="#tk0ql"/></g></g></g><g><use fill="#fff" xlink:href="#tk0qn"/></g><g><use fill="#fff" xlink:href="#tk0qo"/></g><g><use fill="#fff" xlink:href="#tk0qp"/></g></g></g></svg>