<svg xmlns="http://www.w3.org/2000/svg" xmlns:xlink="http://www.w3.org/1999/xlink" width="35" height="35" viewBox="0 0 35 35"><defs><path id="fs42a" d="M251.288 6591.748a9.988 9.988 0 0 1-6.86-2.73l-.446-.446a9.99 9.99 0 0 1-2.73-6.86c0-5.534 4.502-10.036 10.036-10.036s10.036 4.502 10.036 10.036-4.502 10.036-10.036 10.036zm0-22.748c-7.01 0-12.712 5.702-12.712 12.712 0 3.024 1.065 5.8 2.834 7.985l-9.41 9.41 1.892 1.893 9.41-9.41a12.646 12.646 0 0 0 7.986 2.834c7.01 0 12.712-5.702 12.712-12.712S258.298 6569 251.288 6569z"/></defs><g><g clip-path="url(#clip-DFC53139-70B9-45A1-B940-F4EE794FB4C8)" transform="translate(-230 -6568)"><use fill="#fff" xlink:href="#fs42a"/><use fill="#fff" fill-opacity="0" stroke="#fff" stroke-miterlimit="50" stroke-width="2" xlink:href="#fs42a"/></g></g></svg>