<svg xmlns="http://www.w3.org/2000/svg" xmlns:xlink="http://www.w3.org/1999/xlink" xmlns:a="http://ns.adobe.com/AdobeSVGViewerExtensions/3.0/" version="1.1" x="0px" y="0px" viewBox="-14.031 -15.784 100 125" overflow="visible" enable-background="new -14.031 -15.784 100 100" xml:space="preserve"><path d="M67.75,15.708H50.037c3.809-1.271,7.911-3.246,7.91-5.865c0-0.047-0.003-0.092-0.009-0.137  c0.032-0.238-0.022-0.484-0.159-0.689c-0.019-0.028-1.913-2.892-2.528-5.354c-0.068-0.271-0.121-0.521-0.17-0.749  c-0.624-2.917-1.613-3.265-7.567-2.671c-6.282,0.629-9.23,8.814-9.997,11.352c-0.078-0.009-0.155-0.023-0.236-0.023h-4.446  c-0.778-2.564-3.727-10.701-9.99-11.328c-5.953-0.594-6.944-0.245-7.567,2.671c-0.049,0.229-0.102,0.478-0.17,0.749  c-0.615,2.462-2.509,5.325-2.528,5.354c-0.137,0.205-0.191,0.451-0.159,0.689c-0.006,0.045-0.009,0.09-0.009,0.137  c0,2.619,4.102,4.594,7.91,5.865H2c-1.103,0-2,0.897-2,2v8.957c0,1.103,0.897,2,2,2h4.564v38.574c0,0.553,0.448,1,1,1h55.231  c0.552,0,1-0.447,1-1V28.665h3.954c1.103,0,2-0.897,2-2v-8.957C69.75,16.605,68.853,15.708,67.75,15.708z M54.467,11.519  c-3.537,2.37-10.768,4.013-13.819,4.189c-0.007,0-0.017,0.002-0.024,0.002c0.001-0.001,0.002-0.001,0.003-0.002  c2.757-1.773,9.513-3.654,14.582-4.757C55,11.137,54.751,11.328,54.467,11.519z M39.519,18.149  c7.992,1.052,11.588,5.288,13.188,8.516c0.367,0.74,0.621,1.416,0.806,2c0.181,0.566,0.298,1.048,0.361,1.372l-4.401,4.101  l-1.169,1.09c-0.138-0.775-0.331-1.749-0.579-2.837c-0.262-1.146-0.585-2.418-0.98-3.726c-0.2-0.663-0.413-1.332-0.651-2  c-0.175-0.493-0.36-0.985-0.557-1.47C44.297,22.138,41.688,19.732,39.519,18.149z M44.938,29.603l-0.938-0.938h0.654  C44.754,28.979,44.848,29.291,44.938,29.603z M39.251,12.813c0.025-0.1,2.563-9.99,8.462-10.58c5.067-0.506,5.102-0.355,5.412,1.099  c0.053,0.249,0.111,0.521,0.185,0.815c0.433,1.731,1.368,3.557,2.041,4.729c-3.581,0.759-12.381,2.812-16.07,5.352v-0.656  c0-0.212-0.042-0.412-0.103-0.604C39.201,12.915,39.237,12.871,39.251,12.813z M43.686,25.947c0.096,0.236,0.187,0.478,0.278,0.718  H26.396c0.091-0.24,0.182-0.481,0.278-0.718c1.806-4.444,7.253-7.482,8.317-8.042h0.378C36.433,18.465,41.88,21.503,43.686,25.947z   M24.822,25.195c-0.197,0.484-0.381,0.977-0.557,1.47c-0.238,0.668-0.451,1.337-0.651,2c-0.769,2.548-1.274,4.971-1.559,6.562  l-5.57-5.19c0.063-0.325,0.181-0.806,0.361-1.372c0.186-0.584,0.44-1.26,0.807-2c1.6-3.229,5.197-7.465,13.188-8.516  C28.672,19.732,26.063,22.138,24.822,25.195z M32.748,15.708v-2.137h4.533l0.001,2.137v0.197h-4.535V15.708z M17.049,4.147  c0.074-0.295,0.132-0.566,0.185-0.815c0.311-1.454,0.344-1.606,5.412-1.099c5.344,0.535,7.939,8.738,8.39,10.318  c-0.179,0.3-0.289,0.646-0.289,1.02v0.444c-3.857-2.441-12.259-4.402-15.739-5.14C15.681,7.704,16.617,5.879,17.049,4.147z   M15.893,11.519c-0.284-0.19-0.533-0.382-0.742-0.567c5.064,1.102,11.815,2.98,14.578,4.757c0.001,0.001,0.002,0.001,0.003,0.002  c-0.007,0-0.017-0.002-0.024-0.002C26.656,15.53,19.429,13.888,15.893,11.519z M2,26.665v-8.957h22.769  c-5.38,2.234-8.003,6.092-9.249,8.957H7.564H2z M8.564,60.137l6.837,6.103H8.564V60.137z M18.356,66.239l-9.792-8.78v-9.878  l18.658,18.658H18.356z M29.897,66.239L8.564,44.753V34.699l31.539,31.54H29.897z M42.932,66.239L8.564,31.871v-3.206h6.222  c-0.283,0.974-0.363,1.601-0.366,1.63c-0.035,0.314,0.081,0.626,0.312,0.842l7.332,6.833c0.188,0.176,0.433,0.269,0.682,0.269  c0.113,0,0.228-0.02,0.338-0.059c0.352-0.127,0.604-0.439,0.653-0.811c0.001-0.008,0.018-0.13,0.048-0.329l29.2,29.199H42.932z   M61.796,66.239l-5.874,0.108L24.207,34.634c0.318-1.62,0.808-3.779,1.499-5.969h2.584l33.506,33.506V66.239z M61.796,59.343  L31.118,28.665h10.055l4.723,4.723c0.499,2.296,0.723,3.949,0.728,3.981c0.049,0.371,0.301,0.684,0.653,0.811  c0.11,0.039,0.225,0.059,0.338,0.059c0.249,0,0.494-0.093,0.682-0.269l1.129-1.052l12.371,12.371V59.343z M61.796,46.461  L50.889,35.554l4.739-4.417c0.001-0.001,0.002-0.004,0.003-0.005l6.165,6.166V46.461z M61.796,34.469l-5.803-5.804h5.803V34.469z   M62.796,26.665h-7.955c-1.246-2.865-3.869-6.723-9.249-8.957H67.75l0.001,8.957H62.796z"/><text x="-14.031" y="99.216" fill="#000000" font-size="5px" font-weight="bold" font-family="'Helvetica Neue', Helvetica, Arial-Unicode, Arial, Sans-serif">Created by Forget Me Not</text><text x="-14.031" y="104.216" fill="#000000" font-size="5px" font-weight="bold" font-family="'Helvetica Neue', Helvetica, Arial-Unicode, Arial, Sans-serif">from the Noun Project</text></svg>