<svg width="25" height="26" viewBox="0 0 25 26" fill="none" xmlns="http://www.w3.org/2000/svg">
<g clip-path="url(#clip0)">
<path d="M16.6955 2.97524C12.8817 -0.991095 6.67448 -0.991095 2.86069 2.97524C-0.952262 6.94243 -0.952262 13.3971 2.86069 17.3643C6.25697 20.8955 11.5465 21.2739 15.3578 18.5164C15.438 18.9111 15.6215 19.2877 15.9167 19.5946L21.4708 25.3709C22.2802 26.2109 23.5881 26.2109 24.3933 25.3709C25.2019 24.53 25.2019 23.1698 24.3933 22.3314L18.8392 16.5535C18.5457 16.2491 18.1828 16.0574 17.8033 15.9739C20.4563 12.0093 20.0926 6.50909 16.6955 2.97524ZM14.9419 15.5406C12.0946 18.5018 7.46071 18.5018 4.61422 15.5406C1.76856 12.5794 1.76856 7.76098 4.61422 4.79977C7.46071 1.83942 12.0946 1.83942 14.9419 4.79977C17.7893 7.76098 17.7893 12.5794 14.9419 15.5406Z" fill="#5B5B5B"/>
</g>
<defs>
<clipPath id="clip0">
<rect width="25" height="26" fill="white"/>
</clipPath>
</defs>
</svg>
