<svg xmlns="http://www.w3.org/2000/svg" xmlns:xlink="http://www.w3.org/1999/xlink" width="20" height="20" viewBox="0 0 20 20"><defs><path id="yulqa" d="M102 5574c0 5.523-4.477 10-10 10s-10-4.477-10-10 4.477-10 10-10 10 4.477 10 10zm-3.614-.005c0-.993.002-2.046-.22-3.011a1.61 1.61 0 0 0-1.38-1.252c-1.582-.176-3.184-.177-4.779-.176-1.595-.001-3.197 0-4.78.176a1.61 1.61 0 0 0-1.379 1.252c-.222.964-.225 2.018-.225 3.011 0 .993 0 2.046.223 3.011a1.61 1.61 0 0 0 1.379 1.252c1.583.176 3.185.177 4.78.176 1.595.001 3.196 0 4.779-.176a1.611 1.611 0 0 0 1.38-1.252c.222-.965.222-2.018.222-3.011zm-7.954-2.152l3.9 2.034-3.9 2.022v-4.056z"/></defs><g><g transform="translate(-82 -5564)"><use fill="red" xlink:href="#yulqa"/></g></g></svg>