<?xml version="1.0" encoding="utf-8"?>
<!-- Generator: Adobe Illustrator 21.0.2, SVG Export Plug-In . SVG Version: 6.00 Build 0)  -->
<svg version="1.1" id="Слой_1" xmlns="http://www.w3.org/2000/svg" xmlns:xlink="http://www.w3.org/1999/xlink" x="0px" y="0px"
	 viewBox="0 0 100 125" style="enable-background:new 0 0 100 125;" xml:space="preserve">
<style type="text/css">
	.st0{fill:#262B30;}
	.st1{fill:#BA122B;}
</style>
<g>
	<path class="st0" d="M49.7,95.7V94c-2.4,0.2-4.9,0.2-7.3-0.1v1.8c0,1.6-1.3,2.9-2.9,2.9H27.7c-1.5,0-2.8-1.2-2.9-2.7v-1.1
		c-0.1-1.7-0.6-6.3-4.1-9.8c-2.2-2.3-4.2-5.3-5.9-8.9c-1-1.9-1.8-4-2.3-6.1c-0.9-2.9-0.8-6.4-0.8-6.5c0-1.5,0.1-3,0.4-4.5
		c0.1-0.5,0.6-0.9,1.2-0.8c0.5,0.1,0.9,0.6,0.8,1.2c-0.2,1.4-0.3,2.8-0.3,4.2c0,0.1-0.1,3.3,0.7,5.9v0.1c0.5,2,1.2,3.9,2.1,5.7
		c1.6,3.4,3.4,6.2,5.5,8.4c4,4.1,4.6,9.2,4.7,11.2v0.9c0,0.5,0.4,0.9,0.9,0.9h11.7c0.5,0,0.9-0.4,0.9-0.9v-2.9
		c0-0.3,0.1-0.6,0.3-0.8c0.2-0.2,0.5-0.3,0.8-0.2c3,0.4,6,0.4,9.1,0.1c0.3,0,0.6,0.1,0.8,0.3c0.2,0.2,0.3,0.5,0.3,0.7v2.8
		c0,0.5,0.4,0.9,0.9,0.9h11.7c0.5,0,0.9-0.4,0.9-0.9v-2.9c0-1.2,0.4-5.3,4.3-8.8l0.5-0.4c0.6-0.7,6.9-8.1,8.3-12.7
		c0.1-0.4,0.5-0.7,1-0.7h2.5c1.4,0,2.6-1.1,2.6-2.6v-8.8c0-1.4-1.1-2.6-2.6-2.6h-2.6c-0.5,0-0.8-0.2-1-0.7c-1.6-5-4.9-9.6-9.3-13.1
		c-0.2-0.2-0.4-0.5-0.4-0.7c0-0.1,0-0.2,0-0.3c-0.8-3-0.3-6.2,1.7-9.3c0.2-0.4,0.2-0.8,0-1.2c-0.2-0.4-0.6-0.6-1.1-0.5
		c-5.7,0.7-8.7,3.5-10.2,5.7c-0.2,0.4-0.7,0.5-1.1,0.4c-2.2-0.7-4.4-1.2-6.7-1.4c-0.5-0.1-0.9-0.6-0.9-1.1c0.1-0.5,0.6-0.9,1.1-0.9
		c2.2,0.3,4.3,0.7,6.4,1.3c1.8-2.5,5.2-5.3,11.2-6c1.2-0.2,2.4,0.4,3,1.4c0.7,1,0.7,2.3,0,3.3c-1.7,2.7-2.2,5.3-1.5,7.7
		c0,0.1,0,0.2,0.1,0.3c4.4,3.6,7.6,8.1,9.4,13.1h1.9c2.5,0,4.6,2,4.6,4.6v8.8c0,2.5-2,4.6-4.6,4.6H80c-1.9,5.1-8.2,12.4-8.5,12.7
		l-0.1,0.1l-0.5,0.4c-3.4,3-3.6,6.6-3.6,7.3v2.9c0,1.6-1.3,2.9-2.9,2.9H52.6C51,98.6,49.7,97.3,49.7,95.7z"/>
	<path class="st0" d="M64.4,99.1H52.6c-1.9,0-3.4-1.5-3.4-3.4v-1.2c-2.2,0.2-4.3,0.1-6.3-0.1v1.2c0,1.9-1.5,3.4-3.4,3.4H27.7
		c-1.8,0-3.3-1.4-3.4-3.2l0-1.1c-0.1-2.2-0.8-6.3-4-9.4c-2.3-2.4-4.3-5.4-6-9c-1-1.9-1.8-4.1-2.3-6.2c-0.8-2.6-0.8-5.7-0.8-6.6
		c0-1.7,0.1-3.2,0.4-4.6c0.2-0.8,0.9-1.3,1.8-1.2c0.8,0.2,1.3,0.9,1.2,1.8c-0.2,1.4-0.3,2.7-0.3,4.1c0,0.8,0,3.5,0.7,5.8l0,0.2
		c0.5,1.9,1.2,3.8,2,5.5c1.6,3.5,3.4,6.2,5.4,8.3c3.9,4,4.7,8.9,4.8,11.5l0,0.9c0,0.2,0.2,0.4,0.4,0.4h11.7c0.2,0,0.4-0.2,0.4-0.4
		v-2.9c0-0.5,0.2-0.9,0.4-1.2c0.4-0.4,0.9-0.5,1.3-0.3c2.7,0.4,5.7,0.4,8.9,0.1c0.5,0,0.9,0.2,1.2,0.4c0.3,0.3,0.4,0.8,0.4,1.1v2.8
		c0,0.2,0.2,0.4,0.4,0.4h11.7c0.2,0,0.4-0.2,0.4-0.4v-2.9c0-0.9,0.2-5.4,4.5-9.2l0.5-0.4c0.6-0.7,6.8-8,8.1-12.5
		c0.2-0.6,0.8-1.1,1.5-1.1h2.5c1.2,0,2.1-0.9,2.1-2.1v-8.8c0-1.2-0.9-2.1-2.1-2.1h-2.6c-0.7,0-1.2-0.3-1.5-1
		c-1.6-4.9-4.8-9.4-9.1-12.9c-0.2-0.2-0.6-0.6-0.6-1.1v-0.2c-0.8-3.2-0.2-6.5,1.8-9.6c0.1-0.2,0.1-0.4,0-0.7
		c-0.1-0.2-0.3-0.3-0.6-0.2c-5.5,0.7-8.4,3.4-9.9,5.5c-0.3,0.6-1.1,0.7-1.6,0.6c-2.4-0.8-4.5-1.2-6.6-1.4c-0.8-0.2-1.4-0.9-1.4-1.6
		c0.2-0.8,0.9-1.4,1.6-1.4c2.4,0.3,4.3,0.7,6.2,1.2c1.8-2.4,5.2-5.2,11.3-5.9c1.3-0.2,2.8,0.4,3.5,1.6c0.8,1.1,0.8,2.7,0,3.8
		c-1.6,2.6-2.1,5-1.4,7.3l0,0.1c4.3,3.5,7.5,8,9.3,12.9h1.6c2.8,0,5.1,2.3,5.1,5.1v8.8c0,2.8-2.3,5.1-5.1,5.1h-1.4
		c-2,5.1-8,12.1-8.5,12.6l-0.1,0.1l-0.5,0.4c-3.3,2.9-3.4,6.5-3.4,6.9v2.9C67.8,97.6,66.3,99.1,64.4,99.1z M50.2,93.5v2.2
		c0,1.3,1.1,2.4,2.4,2.4h11.8c1.3,0,2.4-1.1,2.4-2.4v-2.9c0-0.7,0.2-4.5,3.8-7.7l0.6-0.5c0.1-0.1,6.5-7.4,8.4-12.5l0.1-0.3h2
		c2.3,0,4.1-1.8,4.1-4.1v-8.8c0-2.3-1.8-4.1-4.1-4.1h-2.3l-0.1-0.3c-1.8-4.9-5-9.4-9.2-12.9c-0.2-0.2-0.3-0.5-0.3-0.6
		c-0.7-2.5-0.2-5.2,1.6-8c0.6-0.8,0.6-1.9,0-2.7c-0.5-0.9-1.5-1.4-2.5-1.2c-6.1,0.7-9.3,3.5-10.9,5.8l-0.2,0.3L57.5,35
		c-1.9-0.6-3.9-1-6.3-1.3c-0.2,0-0.5,0.2-0.5,0.5c0,0.2,0.2,0.5,0.5,0.5c2.1,0.2,4.3,0.6,6.8,1.4c0.2,0,0.4,0,0.5-0.1
		c1.6-2.4,4.7-5.3,10.6-6c0.7-0.1,1.3,0.2,1.6,0.8c0.3,0.5,0.3,1.1,0,1.6c-1.9,2.9-2.4,6-1.7,8.9l0,0.1v0.3c0,0,0.1,0.2,0.3,0.3
		c4.5,3.5,7.8,8.3,9.4,13.3c0.1,0.3,0.3,0.4,0.5,0.4h2.6c1.7,0,3.1,1.4,3.1,3.1v8.8c0,1.7-1.4,3.1-3.1,3.1h-2.5
		c-0.3,0-0.5,0.2-0.5,0.3C77.3,75.8,71,83.2,70.3,84l-0.6,0.5c-3.9,3.5-4.1,7.6-4.1,8.4v2.9c0,0.8-0.6,1.4-1.4,1.4H52.5
		c-0.8,0-1.4-0.6-1.4-1.4V93c0-0.1-0.1-0.2-0.2-0.3c-0.1-0.1-0.3-0.2-0.4-0.2c-3.2,0.3-6.3,0.3-9.2-0.1c-0.2-0.1-0.3,0-0.4,0.1
		c-0.1,0.1-0.2,0.3-0.2,0.4v2.9c0,0.8-0.6,1.4-1.4,1.4H27.7c-0.8,0-1.4-0.6-1.4-1.4v-0.9c-0.1-2.4-0.9-7.1-4.6-10.9
		c-2.1-2.2-3.9-5-5.6-8.5c-0.9-1.8-1.6-3.8-2.1-5.8l0-0.1c-0.7-2.4-0.7-5.1-0.7-6c0-1.4,0.1-2.9,0.3-4.3c0.1-0.3-0.2-0.6-0.4-0.6
		c-0.3-0.1-0.6,0.2-0.6,0.4c-0.3,1.3-0.4,2.8-0.4,4.4c0,0.6,0,3.8,0.8,6.4c0.5,2.1,1.3,4.1,2.3,6c1.7,3.6,3.6,6.5,5.8,8.8
		c3.4,3.4,4.1,7.8,4.2,10.1l0,1.1c0.1,1.2,1.2,2.2,2.4,2.2h11.8c1.3,0,2.4-1.1,2.4-2.4v-2.4l0.6,0.1c2.2,0.3,4.6,0.3,7.2,0.1
		L50.2,93.5z"/>
</g>
<g>
	<path class="st1" d="M27.4,23.6c-8.6,0-15.5,7-15.5,15.5s7,15.5,15.5,15.5s15.5-7,15.5-15.5S35.9,23.6,27.4,23.6z M27.4,52.6
		c-7.4,0-13.5-6.1-13.5-13.5c0-7.4,6.1-13.5,13.5-13.5c7.4,0,13.5,6.1,13.5,13.5S34.8,52.6,27.4,52.6z"/>
	<path class="st1" d="M27.4,55.1c-8.8,0-16-7.2-16-16s7.2-16,16-16s16,7.2,16,16S36.2,55.1,27.4,55.1z M27.4,24.1
		c-8.3,0-15,6.7-15,15s6.7,15,15,15s15-6.7,15-15S35.7,24.1,27.4,24.1z M27.4,53.1c-7.7,0-14-6.3-14-14s6.3-14,14-14s14,6.3,14,14
		S35.1,53.1,27.4,53.1z M27.4,26.1c-7.2,0-13,5.8-13,13s5.8,13,13,13s13-5.8,13-13S34.6,26.1,27.4,26.1z"/>
</g>
<g>
	<path class="st1" d="M46.2,1.4c-5.8,0-10.5,4.7-10.5,10.5s4.7,10.5,10.5,10.5s10.5-4.7,10.5-10.5S52,1.4,46.2,1.4z M46.2,20.4
		c-4.7,0-8.5-3.8-8.5-8.5s3.8-8.5,8.5-8.5s8.5,3.8,8.5,8.5S50.9,20.4,46.2,20.4z"/>
	<path class="st1" d="M46.2,22.9c-6.1,0-11-4.9-11-11s4.9-11,11-11c6.1,0,11,4.9,11,11S52.3,22.9,46.2,22.9z M46.2,1.9
		c-5.5,0-10,4.5-10,10s4.5,10,10,10s10-4.5,10-10S51.7,1.9,46.2,1.9z M46.2,20.9c-5,0-9-4-9-9s4-9,9-9s9,4,9,9S51.2,20.9,46.2,20.9z
		 M46.2,3.9c-4.4,0-8,3.6-8,8s3.6,8,8,8c4.4,0,8-3.6,8-8S50.6,3.9,46.2,3.9z"/>
</g>
</svg>
