<svg width="12" height="12" viewBox="0 0 12 12" fill="none" xmlns="http://www.w3.org/2000/svg">
<path fill-rule="evenodd" clip-rule="evenodd" d="M0 6C0 2.6916 2.69139 0 5.99988 0C9.30837 0 12 2.6916 12 6C12 9.3084 9.30837 12 5.99988 12C2.69139 12 0 9.3084 0 6ZM0.7869 6C0.7869 8.87448 3.1254 11.2131 5.99988 11.2131C8.87436 11.2131 11.213 8.87448 11.213 6C11.213 3.12552 8.87439 0.78693 5.99988 0.78693C3.12537 0.78693 0.7869 3.12549 0.7869 6Z" fill="black"/>
<path d="M8.06145 4.3159L4.93965 7.42078L3.67771 6.1659C3.52264 6.01183 3.27143 6.01174 3.11635 6.16599C2.96122 6.32029 2.96122 6.57018 3.11635 6.72442L4.65901 8.25856C4.73654 8.33557 4.83809 8.37411 4.93965 8.37411C5.04121 8.37411 5.14303 8.33557 5.22053 8.25843C5.22077 8.2581 5.22095 8.25777 5.22134 8.25738L8.62278 4.87425C8.77791 4.7201 8.77791 4.47002 8.62278 4.31587C8.46774 4.16163 8.21634 4.16163 8.06145 4.3159Z" fill="#D60623"/>
</svg>
