<?xml version="1.0" encoding="utf-8"?>
<!-- Generator: Adobe Illustrator 21.0.2, SVG Export Plug-In . SVG Version: 6.00 Build 0)  -->
<svg version="1.1" id="Слой_1" xmlns="http://www.w3.org/2000/svg" xmlns:xlink="http://www.w3.org/1999/xlink" x="0px" y="0px"
	 viewBox="0 0 500 465" style="enable-background:new 0 0 500 465;" xml:space="preserve">
<style type="text/css">
	.st0{fill:#BA122B;}
	.st1{fill:#1E272C;}
</style>
<path class="st0" d="M487.8,6.1c-1.2,0.2-2.4,0.8-3.2,1.8c-62.3,65.1-209.8,223.6-274.2,291L118,217.4c-2.2-2.3-5.8-2.3-8-0.1
	c-2.3,2.2-2.3,5.8-0.1,8c0.2,0.2,0.5,0.4,0.7,0.6L207,311c2.3,2,5.7,1.8,7.8-0.4c63.1-66,215-229.1,277.9-294.9
	c2.2-2.2,2.2-5.8-0.1-8C491.4,6.4,489.6,5.8,487.8,6.1L487.8,6.1z"/>
<path class="st1" d="M230.2,17.6c-27.2-0.3-54.6,4.5-80.8,14.4C35.2,75.1-22.3,202.8,20.9,317c43.2,114.2,170.8,171.9,285,128.7
	c114.2-43.2,171.9-170.8,128.7-285c-0.8-3-3.9-4.9-6.9-4.1c-3,0.8-4.9,3.9-4.1,6.9c0.1,0.4,0.2,0.7,0.4,1
	C465,273,410.3,394,301.8,435c-108.4,41-229.3-13.5-270.3-122C-9.5,204.6,45,83.6,153.5,42.6c66.2-25.1,140.6-15.2,197.8,26.6
	c2.7,1.5,6.2,0.6,7.7-2.2c1.3-2.3,0.9-5.1-1-6.9C320.3,32.6,275.6,18.1,230.2,17.6z"/>
</svg>
