<?xml version="1.0" encoding="utf-8"?>
<!-- Generator: Adobe Illustrator 21.0.2, SVG Export Plug-In . SVG Version: 6.00 Build 0)  -->
<svg version="1.1" id="Слой_1" xmlns="http://www.w3.org/2000/svg" xmlns:xlink="http://www.w3.org/1999/xlink" x="0px" y="0px"
	 viewBox="0 0 500 500" style="enable-background:new 0 0 500 500;" xml:space="preserve">
<style type="text/css">
	.st0{fill:#262B30;}
</style>
<g>
	<path class="st0" d="M409.2,171.2l14.1-14.1c12.1-12.1,12.1-31.7,0-43.8c-12.1-12.1-31.7-12.1-43.8,0l-13.7,13.7
		c-26.6-20-58-33.7-92.4-38.9V65.3h7.3c17.1,0,31-13.9,31-31s-13.9-31-31-31h-76.6c-17.1,0-31,13.9-31,31s13.9,31,31,31h7.4V88
		C112.9,103,37,188.2,37,290.9c0,113.3,92.2,205.5,205.5,205.5S448,404.2,448,290.9C448,246.2,433.5,204.9,409.2,171.2z
		 M242.5,434.5c-79.2,0-143.6-64.4-143.6-143.6s64.4-143.6,143.6-143.6c79.2,0,143.5,64.4,143.5,143.6S321.7,434.5,242.5,434.5z"/>
	<path class="st0" d="M322,291.7L261.9,276v-80.5c0-13.7-11.1-24.8-24.8-24.8c-13.7,0-24.8,11.1-24.8,24.8v99.7
		c0,11.3,7.6,21.1,18.5,24l78.6,20.5c2.1,0.5,4.2,0.8,6.3,0.8c11,0,21-7.4,24-18.5C343.2,308.8,335.2,295.2,322,291.7z"/>
</g>
</svg>
