<?xml version="1.0" encoding="iso-8859-1"?>
<!-- Generator: Adobe Illustrator 19.0.0, SVG Export Plug-In . SVG Version: 6.00 Build 0)  -->
<svg version="1.1" id="Capa_1" xmlns="http://www.w3.org/2000/svg" xmlns:xlink="http://www.w3.org/1999/xlink" x="0px" y="0px"
	 viewBox="0 0 512 512" style="enable-background:new 0 0 512 512;" xml:space="preserve">
<polygon style="fill:#E8A44D;" points="76.255,209.702 76.255,275.064 403.064,503.83 435.745,503.83 435.745,209.702 "/>
<rect x="76.255" y="275.064" style="fill:#FFCB61;" width="326.809" height="228.766"/>
<polygon style="fill:#FFDB92;" points="419.404,160.681 386.723,201.532 419.404,242.383 452.085,242.383 452.085,160.681 "/>
<polygon style="fill:#FFEBC2;" points="59.915,160.681 59.915,242.383 419.404,242.383 419.404,160.681 363.876,160.681 
	256,106.213 148.124,160.681 "/>
<polygon style="fill:#992A2A;" points="223.319,138.894 256.511,375.722 305.532,403.734 305.532,138.894 "/>
<polygon style="fill:#DF3333;" points="256.511,138.894 207.49,138.894 207.49,403.734 256.511,375.722 "/>
<path style="fill:#992A2A;" d="M395.406,84.404c-12.953-12.953-31.875-16.275-47.899-9.979l-16.308,86.256h32.681
	c11.417,0,22.811-4.445,31.526-13.159C412.835,130.092,412.835,101.834,395.406,84.404z"/>
<path style="fill:#DF3333;" d="M362.725,84.404c17.43,17.43,17.43,45.688,0,63.118c-8.715,8.715-20.11,13.159-31.526,13.159H256
	l43.596-76.277h32.681c4.477-4.477,9.684-7.811,15.229-9.979C353.051,76.593,358.247,79.926,362.725,84.404z"/>
<path style="fill:#992A2A;" d="M345.273,52.801c0,12.332-4.913,23.519-12.996,31.602L256,160.681L223.319,52.801H256
	c0-24.652,19.979-44.631,44.631-44.631S345.273,28.149,345.273,52.801z"/>
<path style="fill:#DF3333;" d="M256,52.801v107.879l-76.277-43.596V84.404c-8.083-8.083-12.996-19.271-12.996-31.602
	c0-24.652,19.99-44.631,44.642-44.631S256,28.149,256,52.801z"/>
<path style="fill:#E55C5C;" d="M256,160.681H148.121c-11.417,0-22.811-4.445-31.526-13.159c-17.43-17.43-17.43-45.688,0-63.118
	s45.699-17.43,63.129,0L256,160.681z"/>
<path d="M452.085,152.511h-50.154c9.489-9.879,14.715-22.809,14.715-36.549c0-14.105-5.493-27.365-15.467-37.338
	c-9.973-9.973-23.234-15.466-37.338-15.466c-3.982,0-7.892,0.453-11.685,1.306c0.837-3.78,1.282-7.682,1.282-11.659
	C353.438,23.688,329.751,0,300.634,0C281.867,0,265.367,9.849,256,24.641C246.633,9.849,230.133,0,211.366,0
	c-29.116,0-52.805,23.688-52.805,52.805c0,3.977,0.444,7.878,1.282,11.659c-3.792-0.853-7.703-1.306-11.684-1.306
	c-14.104,0-27.365,5.493-37.338,15.466s-15.467,23.234-15.467,37.338c0,13.74,5.226,26.67,14.715,36.549H59.915
	c-4.512,0-8.17,3.658-8.17,8.17v81.702c0,4.512,3.658,8.17,8.17,8.17h8.17V503.83c0,4.512,3.658,8.17,8.17,8.17h359.489
	c4.512,0,8.17-3.658,8.17-8.17V250.553h8.17c4.512,0,8.17-3.658,8.17-8.17v-81.702C460.255,156.169,456.597,152.511,452.085,152.511
	z M363.841,79.498c9.74,0,18.896,3.792,25.783,10.68s10.68,16.044,10.68,25.784s-3.793,18.896-10.68,25.783
	c-6.942,6.943-16.087,10.765-25.748,10.765h-88.152l62.333-62.333C344.944,83.29,354.101,79.498,363.841,79.498z M215.66,168.851
	h32.681v174.19c0,4.512,3.658,8.17,8.17,8.17c4.512,0,8.17-3.658,8.17-8.17v-174.19h32.681v220.804l-36.798-21.027
	c-2.512-1.435-5.596-1.435-8.107,0l-36.798,21.027V168.851z M300.634,16.34c20.106,0,36.464,16.358,36.464,36.464
	c0,9.817-3.763,18.986-10.595,25.819l-62.333,62.333V52.805C264.17,32.698,280.528,16.34,300.634,16.34z M122.375,141.746
	c-6.887-6.887-10.68-16.044-10.68-25.783s3.793-18.897,10.68-25.784c6.887-6.887,16.044-10.68,25.783-10.68
	c9.739,0,18.897,3.792,25.784,10.68c3.191,3.191,8.364,3.191,11.554,0c3.191-3.191,3.191-8.364,0-11.554
	c-6.831-6.832-10.595-16.002-10.595-25.819c0.002-20.107,16.359-36.465,36.465-36.465s36.464,16.358,36.464,36.464v88.152
	l-39.227-39.227c-3.191-3.191-8.364-3.191-11.554,0c-3.191,3.191-3.191,8.364,0,11.554l39.227,39.227h-88.152
	C138.461,152.511,129.317,148.687,122.375,141.746z M443.915,234.213H338.213c-4.512,0-8.17,3.658-8.17,8.17
	c0,4.512,3.658,8.17,8.17,8.17h89.361V495.66H84.426V250.553h90.383c4.512,0,8.17-3.658,8.17-8.17c0-4.512-3.658-8.17-8.17-8.17
	H68.085v-65.362h131.234v234.883c0,2.912,1.55,5.605,4.069,7.067c2.52,1.462,5.625,1.473,8.155,0.027l44.968-25.696l44.968,25.696
	c1.256,0.718,2.655,1.076,4.054,1.076c1.416,0,2.833-0.368,4.101-1.104c2.519-1.462,4.069-4.154,4.069-7.067V168.851h130.212
	V234.213z"/>
<g>
</g>
<g>
</g>
<g>
</g>
<g>
</g>
<g>
</g>
<g>
</g>
<g>
</g>
<g>
</g>
<g>
</g>
<g>
</g>
<g>
</g>
<g>
</g>
<g>
</g>
<g>
</g>
<g>
</g>
</svg>
