<?xml version="1.0" encoding="utf-8"?>
<!-- Generator: Adobe Illustrator 21.0.2, SVG Export Plug-In . SVG Version: 6.00 Build 0)  -->
<svg version="1.1" id="Capa_1" xmlns="http://www.w3.org/2000/svg" xmlns:xlink="http://www.w3.org/1999/xlink" x="0px" y="0px"
	 viewBox="0 0 487.6 487.6" style="enable-background:new 0 0 487.6 487.6;" xml:space="preserve">
<style type="text/css">
	.st0{fill:#262B30;}
</style>
<g>
	<g>
		<path class="st0" d="M137.5,253.8c0.7-2,1.5-4.2,2.4-6.5l0,0l0,0c3.8-9.4,10.1-20.9,19.9-31.2c46-35.3,94.2-168,94.2-168
			S246.5,0,269,0s76,15,43.9,112.3c-32.1,97.4,0,82.4,0,82.4c7.4-1.7,14.2-3.1,20.7-4.2l0,0c0,0,92.7-20.8,126.9,10.5
			c27.4,25,6.1,58,6.1,58s38.5,34.3-0.7,75.3c0,0,25.1,41.5-19,74.6c0,0,20.5,57.1-61.4,74.5c-24.1,5.1-54.4,4.9-83,2.7
			c-71.5,1.5-142.6-7.8-142.6-7.8l-46-200.1C127.8,269.8,134.4,260.1,137.5,253.8z M4.2,281L4.1,481h108.7c9.7,0,16-7.7,14-17.2
			L92,298.2c-2-9.5-11.5-17.2-21.2-17.2L4.2,281L4.2,281z"/>
	</g>
</g>
</svg>
