<?xml version="1.0" encoding="utf-8"?>
<!-- Generator: Adobe Illustrator 21.0.2, SVG Export Plug-In . SVG Version: 6.00 Build 0)  -->
<svg version="1.1" id="Capa_1" xmlns="http://www.w3.org/2000/svg" xmlns:xlink="http://www.w3.org/1999/xlink" x="0px" y="0px"
	 viewBox="0 0 32 32" style="enable-background:new 0 0 32 32;" xml:space="preserve">
<style type="text/css">
	.st0{fill:#1E272C;}
</style>
<g>
	<g>
		<g>
			<path class="st0" d="M21.9,6.1V5.4c0-0.8-0.6-1.4-1.4-1.4h-2.4c0.2-0.4,0.3-0.8,0.3-1.2c0-1.5-1.2-2.7-2.7-2.7s-2.7,1.2-2.7,2.7
				c0,0.4,0.1,0.9,0.3,1.2h-1.9c-0.8,0-1.4,0.6-1.4,1.4v0.7H6.8c-1.2,0-2.2,1-2.2,2.2v21.5c0,1.2,1,2.2,2.2,2.2h18.3
				c1.2,0,2.2-1,2.2-2.2V8.2c0-1.2-1-2.2-2.2-2.2C25.2,6.1,21.9,6.1,21.9,6.1z M14.2,2.7c0-0.9,0.7-1.6,1.6-1.6
				c0.9,0,1.6,0.7,1.6,1.6c0,0.5-0.2,0.9-0.6,1.2h-2C14.4,3.6,14.2,3.2,14.2,2.7z M25.2,28.5c0,0.7-0.6,1.3-1.3,1.3H8.2
				c-0.7,0-1.3-0.6-1.3-1.3V9.6c0-0.7,0.6-1.3,1.3-1.3H10c0,0.6,0.5,1.1,1.1,1.1h9.8c0.6,0,1.1-0.5,1.1-1.1h1.9
				c0.7,0,1.3,0.6,1.3,1.3V28.5L25.2,28.5z"/>
			<circle class="st0" cx="10.9" cy="13.1" r="1.9"/>
			<path class="st0" d="M21.7,12h-6.5c-0.6,0-1.1,0.5-1.1,1.1s0.5,1.1,1.1,1.1h6.5c0.6,0,1.1-0.5,1.1-1.1C22.7,12.5,22.3,12,21.7,12
				z"/>
			<circle class="st0" cx="10.9" cy="18.5" r="1.9"/>
			<path class="st0" d="M21.7,17.4h-6.5c-0.6,0-1.1,0.5-1.1,1.1s0.5,1.1,1.1,1.1h6.5c0.6,0,1.1-0.5,1.1-1.1S22.3,17.4,21.7,17.4z"/>
			<circle class="st0" cx="10.9" cy="24.2" r="1.9"/>
			<path class="st0" d="M21.7,23.1h-6.5c-0.6,0-1.1,0.5-1.1,1.1s0.5,1.1,1.1,1.1h6.5c0.6,0,1.1-0.5,1.1-1.1
				C22.7,23.6,22.3,23.1,21.7,23.1z"/>
		</g>
	</g>
</g>
</svg>
