<?xml version="1.0" encoding="utf-8"?>
<!-- Generator: Adobe Illustrator 21.0.2, SVG Export Plug-In . SVG Version: 6.00 Build 0)  -->
<svg version="1.1" id="Capa_1" xmlns="http://www.w3.org/2000/svg" xmlns:xlink="http://www.w3.org/1999/xlink" x="0px" y="0px"
	 viewBox="0 0 483.2 483.2" style="enable-background:new 0 0 483.2 483.2;" xml:space="preserve">
<style type="text/css">
	.st0{fill:#262B30;}
</style>
<path class="st0" d="M465.3,344.2c-9.2-0.7-28.3,9.7-33.6,12.3c-18.7,9.4-44.5,24.1-61.5,35.8c-1.2,0.8-2.8,1.9-4,2.6
	c-7.6,4.9-15.7,8.2-24.7,10.1c-49.4,10.5-121.4,11.7-121.4,11.7l-4.2,0.2c-3.2,0.2-6-2-6.4-5.1c-0.5-3.4,2-6.5,5.5-6.8l107.1-10.2
	c11.8-1.3,21.2-12.3,19.9-24.7c-1.3-12.4-12.7-21.5-24.5-20.2l-95.2-1.2c-6.5-0.1-16.9-1.7-23.1-3.5c-61.4-17.9-96-1.1-114.4,6.7
	c-4.1-6.8-11.9-11.2-20.6-10.6L23.1,344c-13.7,0.9-24,12.3-23,25.5l6.6,91.2c0.9,13.2,12.8,23.1,26.4,22.2l41.1-2.7
	c8.7-0.6,15.7-5.9,18.8-13.2l180.4,7.8c20.1,2.1,38.9-0.3,56.6-9.6l5.2-2.7l136.3-79.8c6.7-3.9,11.5-10.7,11.7-18.3
	C483.6,355.3,478.3,345.1,465.3,344.2z M48.2,461.3c-7.7,0-14-6-14-13.5s6.3-13.5,14-13.5s14,6,14,13.5S55.9,461.3,48.2,461.3z"/>
<path class="st0" d="M368.2,372.6c13.9-9.7,42.4-25.2,58.5-33.3c4.9-2.4,10-4.9,15.5-6.8c-7-4.7-14.5-4.9-22.3-1.9
	c-15.3,6.1-43.5,19.7-57.9,27.5c-0.1,0.2-0.2,0.4-0.2,0.6c1,3,1.8,6.1,2.1,9.3c0.3,2.6,0.2,5.1,0.1,7.6
	C365.3,374.6,366.7,373.6,368.2,372.6z"/>
<path class="st0" d="M405,321.5c-7-4.5-14.4-4.7-22-1.7c-9.5,3.7-30.6,10.6-40,15.6c4,2.5,7.6,5.6,10.7,9.2c0.6-0.4,1.2-0.9,1.9-1.3
	l6.9-3.8C372.5,334,394,326.4,405,321.5z"/>
<path class="st0" d="M273.6,318.8c60.1,0,108.8-48.7,108.8-108.8s-48.7-108.8-108.8-108.8S164.8,149.9,164.8,210
	S213.5,318.8,273.6,318.8z M216.1,238.8c0-0.8,0.3-1.5,0.8-2.1c0.5-0.5,1.2-0.8,2.1-0.8h20.1v-10.6H219c-0.8,0-1.5-0.3-2.1-0.8
	c-0.5-0.5-0.8-1.2-0.8-2.1v-13.4c0-0.8,0.3-1.5,0.8-2c0.5-0.6,1.2-0.9,2.1-0.9h20.1v-56.5c0-0.8,0.3-1.5,0.8-2.1
	c0.5-0.5,1.2-0.8,2.1-0.8h48.4c12,0,21.8,3.7,29.3,11c7.6,7.3,11.4,16.7,11.4,28.3c0,11.6-3.8,21-11.4,28.3
	c-7.6,7.3-17.4,11-29.3,11h-30.5v10.6h45.4c0.8,0,1.5,0.3,2.1,0.8c0.5,0.5,0.8,1.2,0.8,2.1v11.5c0,0.8-0.3,1.5-0.8,2.1
	c-0.5,0.5-1.2,0.8-2.1,0.8h-45.4v17.3c0,0.8-0.3,1.5-0.9,2.1c-0.6,0.5-1.2,0.8-2,0.8h-15c-0.8,0-1.5-0.3-2.1-0.8
	c-0.5-0.5-0.8-1.2-0.8-2.1v-17.3H219c-0.8,0-1.5-0.3-2.1-0.8c-0.5-0.5-0.8-1.2-0.8-2.1V238.8z"/>
<path class="st0" d="M304,200.6c3.9-3.7,5.8-8.6,5.8-14.6c0-6-1.9-10.8-5.8-14.6c-3.9-3.7-9-5.6-15.4-5.6h-28.8v40.3h28.8
	C295,206.2,300.1,204.3,304,200.6z"/>
</svg>
