<?xml version="1.0" encoding="utf-8"?>
<!-- Generator: Adobe Illustrator 21.0.2, SVG Export Plug-In . SVG Version: 6.00 Build 0)  -->
<svg version="1.1" id="Слой_1" xmlns="http://www.w3.org/2000/svg" xmlns:xlink="http://www.w3.org/1999/xlink" x="0px" y="0px"
	 viewBox="0 0 100 125" style="enable-background:new 0 0 100 125;" xml:space="preserve">
<style type="text/css">
	.st0{fill:#262B30;}
</style>
<g>
	<path class="st0" d="M49.7,26.9c1.9-1.2,4.5-1.2,6.5,0c6.2,3.6,12.6,7.2,18.8,10.8c2,1.2,3.3,3.3,3.3,5.6c0,6.9,0,13.9,0,20.8
		c0,2.2-1.9,4.2-4.2,4.3c-2.5,0.1-4.8-1.9-4.8-4.3c0-5.8,0-11.7,0-17.5c0-1-0.4-2-1.3-2.6c-2.6-1.6-5.3-3.1-8.1-4.6
		c-0.1,1.1,0,1.8,0,2.9c0,6.8,0,13.7,0,20.5c0,1.7-0.6,3.5-1.9,4.8c-7.2,7.2-14.4,14.3-21.5,21.5c-0.9,0.9-1.9,1.6-2.2,2.9
		c-2,8.4-4,16.9-6.2,25.3c-0.3,1.4-1,2.9-2.3,3.9c-2.2,1.7-5.6,1.4-7.7-0.6c-1.4-1.3-1.9-3.5-1.4-5.3c2.6-10.8,5.2-21.5,7.8-32.3
		c0.1-0.7,0.4-1.4,1-2c5.1-5.1,10-10.1,15-15c0-0.4,0.1-0.7,0.1-1.2c0-10.1,0-20.2,0-30.3c-0.1-1.2,0.4-2.5,1.6-3
		C44.8,29.8,47.2,28.4,49.7,26.9z"/>
	<path class="st0" d="M20.7,63.6c5.6-5.6,11.4-11.3,17-17c0,4.2,0,8.4,0,12.4c-0.3,0.7-1,1.2-1.6,1.7c-3,3-6.1,6.1-9.1,9.1
		c-1.7,1.9-4.9,1.6-6.5-0.3C18.9,67.9,19.1,65.2,20.7,63.6z"/>
	<path class="st0" d="M50,79.8c2.7-2.7,5.5-5.5,8.2-8.2c7.7,13.3,15.3,26.6,23.1,39.8c0.7,1.4,1.9,2.7,2,4.5c0.4,3-2,6.2-5.2,6.4
		c-2.2,0.3-4.5-1-5.5-2.9c-7.5-13-15-26-22.5-39C50.1,80.2,50.1,79.9,50,79.8z"/>
	<circle class="st0" cx="49.3" cy="12.8" r="10.1"/>
</g>
</svg>
