<?xml version="1.0" encoding="utf-8"?>
<!-- Generator: Adobe Illustrator 21.0.2, SVG Export Plug-In . SVG Version: 6.00 Build 0)  -->
<svg version="1.1" id="Capa_1" xmlns="http://www.w3.org/2000/svg" xmlns:xlink="http://www.w3.org/1999/xlink" x="0px" y="0px"
	 viewBox="0 0 304.8 304.8" style="enable-background:new 0 0 304.8 304.8;" xml:space="preserve">
<style type="text/css">
	.st0{fill:#262B30;}
</style>
<g>
	<g>
		<g id="Layer_5_9_">
			<g>
				<path class="st0" d="M171.9,238c0-39,31.7-70.7,70.7-70.7c8.2,0,13.5,1,19.1,2.6c3.8,1.6,5.2-1.5,5.6-3c2.6-9.5,4-19.3,4-29.1
					c0-0.7-0.4-84.1-0.4-85.1c0-8.2-4.7-8.2-6.8-8.2c-15.1,0.1-30.5,0.1-46.7-4.6c-33.6-9.7-67.1-36.1-74.9-36.1
					c-7.5,0-33.2,26.4-66.9,36.1c-19,5.5-37.2,4.5-54.2,3.7c-2-0.1-5.2-0.6-6.2,6.3c-0.3,1.7-1.6,87-1.6,87.9
					c0,83.3,103,161.5,128.8,161.5c8.2,0,21.5-6.6,39.4-19.9c2.4-2.1,1.1-3.4,0.4-4.6C175.7,264.1,171.9,251.5,171.9,238z"/>
				<path class="st0" d="M243,274c-2.4,2.6-6.6,3-9.4,0.9l-44.8-33.1c-2.8-2.1-3.4-6.1-1.3-8.9l5.7-7.6c2.1-2.8,6.1-3.4,9-1.3
					l28.7,21.1c2.8,2.1,7.1,1.7,9.5-0.9l40.5-42.4c2.4-2.6,6.4-2.7,9-0.3l7,6.5c2.6,2.4,2.7,6.4,0.3,9L243,274z"/>
			</g>
		</g>
	</g>
</g>
</svg>
