<?xml version="1.0" encoding="utf-8"?>
<!-- Generator: Adobe Illustrator 21.1.0, SVG Export Plug-In . SVG Version: 6.00 Build 0)  -->
<svg version="1.1" id="Слой_1" xmlns="http://www.w3.org/2000/svg" xmlns:xlink="http://www.w3.org/1999/xlink" x="0px" y="0px"
	 viewBox="0 0 141 141" style="enable-background:new 0 0 141 141;" xml:space="preserve">
<style type="text/css">
	.st0{fill:#262B30;}
	.st1{fill:none;stroke:#262B30;stroke-width:4;stroke-miterlimit:10;}
</style>
<g>
	<g>
		<path class="st0" d="M19.5,36c-3.4,1.4-5,5.3-3.7,8.8c2.3,5.8,6.5,14.7,6.3,19.4c-0.5,8.3-5.9,24.2,4.7,28.6
			c11.9,5,22.5-4.3,28-5.9c4.1-1.2,14.8-2.7,24.5,2.8c11.1,6.4,23.7,1,27.6-1.3c0.8-0.4,1.6-0.7,2.5-0.6c2.7,0,5.7,0.1,8.4-0.9
			c5.7-2.2,3.6-6.7,2.2-7.7c-1.1-0.8-7.4-1-13.7-1.6c-2.9-0.3-6.7-2-12-4.5c0,0-37.4-19.3-42.7-24.5c-1.5-1.5-5.1-9.7-7.1-14.6
			c-0.8-1.9-3.6-3-5.7-3.1C35.4,30.6,25.6,33.5,19.5,36z"/>
		<path class="st0" d="M21.6,105.4c-0.1,0.1-0.1,0.4-0.1,0.5c0,0.9,1.3,3.5,1.9,3.9c0.6,0.3,20.8,0.1,39.3,0.3
			c14.7,0.1,25.2,0.9,29.1,0.8c9.7-0.2,25-4.3,34.2-15.2c0.3-0.4-0.1-1-0.6-0.7c-2.8,1.8-7.2,4.4-15.5,7.6c-7.8,3-12.6,4.1-23.5,1
			c-7.9-2.3-13.3-9-24.7-8.2c-7.7,0.6-11.5,5.3-22.4,8C25.7,106.8,22.4,104.5,21.6,105.4z"/>
	</g>
</g>
<circle class="st1" cx="70.7" cy="70.8" r="68.2"/>
</svg>
