<svg xmlns="http://www.w3.org/2000/svg" xmlns:xlink="http://www.w3.org/1999/xlink" width="32" height="32" viewBox="0 0 32 32"><defs><path id="641ba" d="M84.701 6889.483c.667 0 .818.35.667.833-.235 1.104-2.186 4.033-2.79 4.94a5.599 5.599 0 0 0-.178.272c-.236.394-.322.57 0 1.007.117.162.364.41.647.692.29.29.619.618.88.929.947 1.095 1.678 2.015 1.871 2.65.172.635-.129.963-.774.963H82.81c-.587 0-.89-.343-1.535-1.075a27.48 27.48 0 0 0-1.068-1.158c-1.312-1.293-1.892-1.468-2.215-1.468-.451 0-.58.11-.58.767v2.036c0 .548-.173.876-1.592.876-2.344 0-4.947-1.445-6.775-4.139-2.753-3.942-3.506-6.92-3.506-7.511 0-.329.108-.635.753-.635h2.237c.56 0 .774.24.99.875 1.096 3.22 2.924 6.045 3.677 6.045.28 0 .409-.131.409-.854v-3.329c-.053-.946-.377-1.358-.617-1.664-.148-.19-.265-.338-.265-.548 0-.263.215-.525.56-.525h3.483c.474 0 .646.262.646.832v4.49c0 .481.193.656.344.656.28 0 .516-.175 1.032-.7 1.592-1.818 2.732-4.621 2.732-4.621.15-.329.408-.636.967-.636zM76 6879c-8.837 0-16 7.163-16 16s7.163 16 16 16 16-7.163 16-16-7.163-16-16-16z"/></defs><g><g transform="translate(-60 -6879)"><use fill="#fff" xlink:href="#641ba"/></g></g></svg>