<svg xmlns="http://www.w3.org/2000/svg" xmlns:xlink="http://www.w3.org/1999/xlink" width="32" height="32" viewBox="0 0 32 32"><defs><path id="eucva" d="M218 6895c0 8.837-7.164 16-16 16s-16-7.163-16-16 7.164-16 16-16 16 7.163 16 16zm-5.798 0c0-1.59.003-3.278-.353-4.823-.25-1.086-1.137-1.886-2.205-2.005-2.53-.283-5.091-.285-7.64-.283-2.55-.002-5.111 0-7.642.283-1.068.119-1.955.92-2.205 2.005-.355 1.545-.36 3.232-.36 4.823 0 1.59 0 3.278.356 4.823.25 1.085 1.137 1.886 2.205 2.005 2.53.283 5.091.284 7.641.283 2.55.001 5.11 0 7.64-.283 1.069-.12 1.957-.92 2.207-2.005.355-1.545.356-3.232.356-4.823zm-12.711-3.452l6.239 3.255-6.239 3.235v-6.49z"/></defs><g><g transform="translate(-186 -6879)"><use fill="#fff" xlink:href="#eucva"/></g></g></svg>