<svg width="15" height="15" viewBox="0 0 15 15" fill="none" xmlns="http://www.w3.org/2000/svg">
<path fill-rule="evenodd" clip-rule="evenodd" d="M0 7.5C0 3.3645 3.36424 0 7.49985 0C11.6355 0 15 3.3645 15 7.5C15 11.6355 11.6355 15 7.49985 15C3.36424 15 0 11.6355 0 7.5ZM0.983625 7.5C0.983625 11.0931 3.90675 14.0164 7.49985 14.0164C11.0929 14.0164 14.0163 11.0931 14.0163 7.5C14.0163 3.9069 11.093 0.983662 7.49985 0.983662C3.90671 0.983662 0.983625 3.90686 0.983625 7.5Z" fill="white"/>
<path d="M10.2389 5.36241L6.33667 9.24351L4.75925 7.6749C4.56541 7.48232 4.25139 7.48221 4.05755 7.67501C3.86363 7.86789 3.86363 8.18025 4.05755 8.37306L5.98588 10.2907C6.08278 10.387 6.20972 10.4352 6.33667 10.4352C6.46362 10.4352 6.5909 10.387 6.68777 10.2906C6.68807 10.2902 6.6883 10.2897 6.68879 10.2893L10.9406 6.06034C11.1345 5.86765 11.1345 5.55506 10.9406 5.36237C10.7468 5.16957 10.4325 5.16957 10.2389 5.36241Z" fill="white"/>
</svg>
