<svg width="212" height="150" viewBox="0 0 212 150" fill="none" xmlns="http://www.w3.org/2000/svg">
<path d="M126.156 81.653C125.794 86.8267 124.751 91.7734 123.073 96.4479L133.82 100.895C136.042 94.8595 137.448 88.3697 137.811 81.653H126.156ZM71.9208 132.482C58.8607 132.482 46.2087 127.717 36.2775 119.139L38.6356 116.416C36.8217 114.828 35.1439 113.149 33.5567 111.333L30.8358 113.693C22.2198 103.8 17.5036 91.0927 17.5036 78.0224C17.5036 47.9789 41.9007 23.5629 71.9208 23.5629C84.9809 23.5629 97.6329 28.3281 107.564 36.9055L105.206 39.6284C107.02 41.2168 108.698 42.896 110.285 44.7113L113.006 42.3514C115.817 45.619 118.221 49.1588 120.171 52.9256L130.918 48.4781C120.035 26.8758 97.6782 11.9902 71.9208 11.9902C35.552 11.9902 5.98535 41.5799 5.98535 77.977C5.98535 114.374 35.552 143.964 71.9208 143.964C97.6782 143.964 120.035 129.078 130.918 107.476L120.171 103.028C111.056 120.501 92.8714 132.482 71.9208 132.482ZM133.775 55.104L123.073 59.5515C124.796 64.3167 125.839 69.2635 126.156 74.3464H137.765C137.403 67.6297 135.997 61.1853 133.775 55.104Z" fill="#D60623"/>
<path d="M71.9213 96.1756C61.8995 96.1756 53.7823 88.052 53.7823 78.0224C53.7823 67.9928 61.8995 59.8692 71.9213 59.8692C77.7712 59.8692 82.9861 62.6376 86.2965 66.949L99.9915 61.2761C94.2777 51.7457 83.8478 45.3467 71.9667 45.3467C53.9637 45.3467 39.3164 60.0054 39.3164 78.0224C39.3164 96.0394 53.9637 110.698 71.9667 110.698C83.8478 110.698 94.2777 104.299 99.9915 94.7687L86.2965 89.0958C82.9408 93.3618 77.7258 96.1756 71.9213 96.1756ZM89.6522 81.653C89.6069 81.9707 89.5162 82.243 89.4255 82.5607L102.939 88.1428C103.619 86.0552 104.118 83.8768 104.345 81.653H89.6522ZM102.939 67.8566L89.4709 73.4387C89.5616 73.7564 89.6069 74.0287 89.6976 74.3464H104.39C104.118 72.1226 103.619 69.9442 102.939 67.8566Z" fill="#D60623"/>
<path d="M107.519 36.9055L105.161 39.6285L102.757 42.3969C94.1413 34.9087 83.2126 30.8242 71.8757 30.8242C45.8915 30.8242 24.7142 52.018 24.7142 78.0225C24.7142 89.3682 28.8408 100.305 36.2778 108.928L33.557 111.288L30.8361 113.648C22.2201 103.755 17.5039 91.0474 17.5039 77.9771C17.5039 47.9336 41.9009 23.5176 71.921 23.5176C84.9811 23.563 97.6331 28.2828 107.519 36.9055Z" fill="black"/>
<path d="M157.129 81.6533L168.013 96.1759H212L202.93 78.0227L212 59.8695H168.058L157.175 74.3921H143.752C143.389 66.8585 141.847 59.6426 139.308 52.8806L153.184 47.1169L168.784 56.375L209.415 39.5834L194.088 26.2408L195.539 6L154.907 22.7917L150.418 40.3549L136.406 46.1639C124.661 22.4286 100.127 6.04538 71.9213 6.04538C32.2421 6.04538 0 38.3126 0 78.0227C0 117.733 32.2421 150 71.9213 150C100.173 150 124.661 133.617 136.406 109.836L150.418 115.645L154.907 133.208L195.539 150L194.088 129.759L209.415 116.462L168.784 99.6703L153.184 108.928L139.308 103.165C141.847 96.4028 143.389 89.1869 143.752 81.6533H157.129ZM171.641 67.1308H200.255L194.813 78.0227L200.255 88.9146H171.641L163.478 78.0227L171.641 67.1308ZM161.029 28.1469L187.467 17.2096L186.605 29.3722L195.766 37.3142L169.328 48.2515L157.628 41.3079L161.029 28.1469ZM169.373 107.749L195.811 118.686L186.605 126.673L187.467 138.836L161.029 127.899L157.628 114.737L169.373 107.749ZM71.9213 144.009C35.5525 144.009 5.98588 114.42 5.98588 78.0227C5.98588 41.6256 35.5525 12.0359 71.9213 12.0359C97.6787 12.0359 120.035 26.9215 130.919 48.5238L120.171 52.9713C118.221 49.2045 115.818 45.6647 113.006 42.3971L110.285 44.757L107.519 47.1623C109.832 49.7945 111.782 52.699 113.46 55.7397L99.9914 61.3218L86.2965 66.9946C82.9861 62.6833 77.7711 59.9149 71.9213 59.9149C61.8995 59.9149 53.7822 68.0385 53.7822 78.0681C53.7822 88.0977 61.8995 96.2212 71.9213 96.2212C77.7711 96.2212 82.9861 93.4529 86.2965 89.1415L99.9914 94.8144L113.46 100.396C105.479 115.191 89.8789 125.266 71.9666 125.266C60.6751 125.266 49.701 121.136 41.0849 113.694L38.6815 116.462L36.3234 119.185C46.2545 127.808 58.9065 132.528 71.9666 132.528C92.9172 132.528 111.147 120.592 120.216 103.165L130.964 107.612C120.035 129.124 97.6787 144.009 71.9213 144.009ZM89.6522 74.3921C89.6068 74.0744 89.5161 73.7567 89.4255 73.4844L102.894 67.9023L116.317 62.3656C117.677 66.2231 118.539 70.3076 118.856 74.3921H89.6522ZM118.901 81.6533C118.584 85.8286 117.722 89.8676 116.362 93.6798L102.939 88.1431L89.4708 82.561C89.5615 82.2433 89.6068 81.971 89.6975 81.6533H118.901ZM79.0862 86.1009C77.1816 87.8254 74.6421 88.8692 71.8759 88.8692C65.8901 88.8692 60.9925 83.9679 60.9925 77.9773C60.9925 71.9868 65.8901 67.0854 71.8759 67.0854C74.6421 67.0854 77.1816 68.1292 79.0862 69.8538L68.2481 74.3467V81.6079L79.0862 86.1009ZM133.775 100.896L123.028 96.4482C124.706 91.7737 125.794 86.827 126.112 81.6533H137.721C137.403 88.37 135.997 94.8144 133.775 100.896ZM126.157 74.3921C125.794 69.3092 124.751 64.3171 123.073 59.5972L133.775 55.1497C136.043 61.1856 137.403 67.6754 137.766 74.3921H126.157Z" fill="black"/>
</svg>
