<svg width="212" height="150" viewBox="0 0 212 150" fill="none" xmlns="http://www.w3.org/2000/svg">
<path d="M134.967 42.9926H129.158C123.454 42.9926 117.878 41.3117 113.13 38.1624C108.384 41.3117 102.806 42.9926 97.1014 42.9926H76.7345H71.8818V35.7473C71.8818 17.0735 87.0902 1.93555 105.851 1.93555C124.611 1.93555 139.82 17.0735 139.82 35.7473V42.9926H134.967Z" fill="#D60623"/>
<path d="M156.619 81.062C156.735 80.463 156.803 79.8496 156.803 79.2192C156.803 74.7102 153.688 70.9547 149.49 69.8896C149.495 69.7785 149.524 69.6722 149.524 69.5587C149.524 67.1098 148.607 64.871 147.098 63.1683L142.876 58.2197C141.117 60.6904 138.237 62.3134 134.966 62.3134H134.381C133.399 66.7862 131.164 70.9281 127.859 74.2175L125.261 76.8041V86.4646V91.2948L147.797 98.7721C151.805 100.103 155.284 102.445 158.029 105.443C161.69 102.81 164.082 98.5474 164.082 93.71C164.082 88.2711 161.069 83.5399 156.619 81.062Z" fill="#D60623"/>
<path d="M86.4399 86.4651V76.8046L83.8412 74.218C80.5365 70.9286 78.3019 66.7867 77.3192 62.3139H76.7344C73.4637 62.3139 70.5836 60.6909 68.8245 58.2227L64.6027 63.1688C63.0935 64.8715 62.1763 67.1079 62.1763 69.5592C62.1763 69.6728 62.2054 69.779 62.2103 69.8901C58.0151 70.9552 54.8972 74.7107 54.8972 79.2197C54.8972 79.8501 54.9676 80.4635 55.0841 81.0625C50.6341 83.5404 47.6182 88.2716 47.6182 93.7105C47.6182 98.548 50.013 102.811 53.6719 105.443C56.4161 102.446 59.8955 100.103 63.9039 98.7726L86.4399 91.2953V86.4651Z" fill="#D60623"/>
<path fill-rule="evenodd" clip-rule="evenodd" d="M84.1058 94.8389V119.376C88.29 120.457 91.4038 124.212 91.4038 128.71C91.4038 134.047 87.0396 138.387 81.6731 138.387C76.3066 138.387 71.9424 134.047 71.9424 128.71C71.9424 124.212 75.0562 120.457 79.2404 119.376V94.8389H84.1058ZM76.808 128.71C76.808 131.378 78.9901 133.549 81.6733 133.549C84.359 133.549 86.5387 131.378 86.5387 128.71C86.5387 126.041 84.3566 123.871 81.6733 123.871C78.9901 123.871 76.808 126.041 76.808 128.71Z" fill="#D60623"/>
<path fill-rule="evenodd" clip-rule="evenodd" d="M172 150H40L45.3542 118.002C46.0754 113.693 47.865 109.764 50.3976 106.408C47.1754 103.256 45.2959 98.9493 45.2959 94.355C45.2959 88.788 48.0592 83.6009 52.5976 80.4534C52.5854 80.2477 52.5806 80.0421 52.5806 79.8389C52.5806 74.9542 55.5308 70.6235 59.9502 68.7509C60.2367 66.3147 61.259 64.0163 62.9029 62.1606L66.5428 65.3638C65.3675 66.6872 64.7216 68.3905 64.7216 70.1614C64.7386 70.1469 64.7532 70.2727 64.7556 70.4179L64.8163 72.3582L62.9272 72.8372C59.6952 73.6598 57.437 76.5388 57.437 79.8389C57.437 80.2768 57.4856 80.7292 57.5803 81.2276L57.9105 82.9429L56.3807 83.7969C52.5393 85.938 50.1524 89.9832 50.1524 94.355C50.1524 97.5558 51.4296 100.563 53.6296 102.799C56.354 100.304 59.6054 98.3421 63.255 97.13L84.1473 90.1913V87.0969H89.0037V91.638L92.6266 106.082L102.434 94.355H109.566L119.373 106.082L122.999 91.638V87.0969H127.855V90.1913L148.75 97.1324C152.399 98.3445 155.648 100.304 158.375 102.801C160.575 100.563 161.85 97.5558 161.85 94.355C161.85 89.9832 159.466 85.938 155.622 83.7969L154.092 82.9429L154.422 81.2276C154.519 80.7292 154.565 80.2768 154.565 79.8389C154.565 76.5388 152.307 73.6574 149.075 72.8421L147.186 72.3606L147.288 69.9969C147.281 68.3905 146.632 66.6872 145.46 65.3638L149.102 62.1582C150.743 64.0138 151.768 66.3122 152.055 68.7485C156.472 70.6235 159.422 74.9542 159.422 79.8389C159.422 80.0421 159.419 80.2477 159.405 80.4534C163.946 83.6009 166.706 88.788 166.706 94.355C166.706 98.9493 164.829 103.256 161.605 106.408C164.137 109.761 165.927 113.693 166.648 118.002L172 150ZM64.7946 101.72C57.0947 104.279 51.4807 110.824 50.1476 118.798L45.7355 145.161H63.2624C62.7233 143.417 62.2935 141.07 62.2935 137.903C62.2935 129.738 67.6331 124.324 67.8614 124.096L69.5781 125.807L71.3022 127.51L71.3002 127.512C71.1907 127.626 67.1499 131.844 67.1499 137.903C67.1499 141.891 67.9415 144.111 68.4684 145.161H103.573V106.452H108.43V145.161H143.544C144.051 144.141 144.853 141.917 144.853 137.903C144.853 131.717 140.751 127.561 140.708 127.517L144.141 124.096C144.369 124.324 149.709 129.738 149.709 137.903C149.709 141.07 149.282 143.417 148.74 145.161H166.267L161.86 118.798C160.524 110.824 154.913 104.279 147.213 101.72L127.149 95.0566L121.768 116.499L107.293 99.1937H104.712L90.2398 116.499L84.8589 95.0566L64.7946 101.72Z" fill="#3F3A34"/>
<path fill-rule="evenodd" clip-rule="evenodd" d="M75.5088 65.1871C76.7472 69.4331 79.0345 73.3258 82.2592 76.5387L91.7292 85.9718C94.0215 88.2556 97.0713 89.5161 100.313 89.5161H111.694C114.936 89.5161 117.985 88.2556 120.278 85.9718L129.748 76.5387C132.972 73.3258 135.26 69.4306 136.498 65.1871C142.547 64.5048 147.282 59.4339 147.282 53.2258C147.282 49.2556 145.325 45.7548 142.35 43.5484H142.425V36.2903C142.425 16.2798 126.086 0 106.002 0C85.9185 0 69.5791 16.2798 69.5791 36.2903V43.5484H69.6544C66.6798 45.7548 64.7227 49.2556 64.7227 53.2258C64.7227 59.4339 69.4601 64.5048 75.5088 65.1871ZM132.711 57.7209C132.711 63.5371 130.439 69.0048 126.311 73.1177L116.841 82.5508C115.488 83.9032 113.609 84.6774 111.69 84.6774H100.309C98.3911 84.6774 96.5165 83.9032 95.1591 82.5508L85.6891 73.1177C81.5611 69.0048 79.2883 63.5371 79.2883 57.7209V45.9677H97.245C102.922 45.9677 108.434 44.4532 113.283 41.5693C118.14 44.4532 123.652 45.9677 129.324 45.9677H132.711V57.7209ZM137.569 57.7212C137.569 58.5123 137.522 59.2962 137.454 60.0728C140.334 59.105 142.425 56.4171 142.425 53.226C142.425 50.076 140.388 47.4147 137.569 46.4131V57.7212ZM74.4346 36.2905C74.4346 18.9485 88.596 4.83887 106.001 4.83887C123.407 4.83887 137.568 18.9485 137.568 36.2905V41.3735C136.784 41.2139 135.97 41.1292 135.14 41.1292H132.712H129.324C124.077 41.1292 118.997 39.5977 114.631 36.6969L113.286 35.8018L111.938 36.6969C107.572 39.5977 102.495 41.1292 97.2501 41.1292H76.8628C76.0324 41.1292 75.2189 41.2139 74.4346 41.3735V36.2905ZM74.4353 57.7212V46.4131C71.6186 47.4147 69.5789 50.076 69.5789 53.226C69.5789 56.4171 71.672 59.105 74.5495 60.0752C74.4815 59.2962 74.4353 58.5123 74.4353 57.7212Z" fill="#3F3A34"/>
<path d="M123.237 141.291H125.6V136.403H123.237C120.63 136.403 118.511 134.211 118.511 131.516V128.715C118.511 126.851 119.51 125.177 121.122 124.344L130.326 119.586L139.531 124.344C141.143 125.177 142.142 126.853 142.142 128.715V131.516C142.142 134.211 140.022 136.403 137.416 136.403H135.053V141.291H137.416C142.629 141.291 146.869 136.907 146.869 131.516V128.715C146.869 124.989 144.867 121.639 141.644 119.972L132.69 115.344V97.4366L127.963 95.8066V115.344L119.009 119.974C115.786 121.639 113.784 124.989 113.784 128.715V131.516C113.784 136.907 118.024 141.291 123.237 141.291Z" fill="#D60623"/>
</svg>
