<svg width="212" height="150" viewBox="0 0 212 150" fill="none" xmlns="http://www.w3.org/2000/svg">
<path d="M174.342 100.859L173.569 99.2188C170.732 93.0034 167.895 86.5291 167.981 72.3718V42.8487C167.981 41.3812 166.778 40.1726 165.316 40.1726C163.855 40.1726 162.652 41.3812 162.652 42.8487V72.3718C162.48 87.6513 165.832 94.9889 168.669 101.463L169.357 103.103C174.17 113.98 175.03 122.613 171.849 128.138C168.583 133.835 161.878 134.785 161.964 134.785H54.2573C41.1915 134.439 37.8391 126.756 37.8391 122.354C37.8391 119.85 38.8706 118.21 39.6442 118.21C46.2631 118.21 57.6956 116.915 63.197 115.879C80.045 112.599 112.967 95.0752 122.165 78.6735C124.916 73.753 126.033 62.3581 125.517 43.8846V42.6761C125.517 41.2085 124.314 40 122.853 40C121.391 40 120.188 41.2085 120.188 42.6761V44.0573C120.876 66.6744 118.813 73.8393 117.523 76.0838C109.271 90.759 78.1539 107.506 62.1655 110.614C56.922 111.65 45.9192 112.858 39.6442 112.858C35.6041 112.858 32.5956 116.829 32.5096 122.354C32.4236 130.727 39.1285 139.878 54.1713 140.309H162.394C162.824 140.223 171.935 139.187 176.577 131.073C180.703 123.562 179.93 113.549 174.342 100.859Z" fill="black"/>
<path d="M131.448 111.649C134.027 111.995 136.348 112.254 138.583 112.254C145.632 112.254 150.703 110.268 153.798 106.297C160.331 97.8373 154.743 84.198 154.485 83.5937C153.884 82.2125 152.336 81.6082 150.961 82.1262C149.586 82.7304 148.984 84.2843 149.5 85.6655C150.789 88.7732 153.368 98.0099 149.5 102.93C146.749 106.47 140.904 107.592 132.222 106.297C130.761 106.038 129.385 107.074 129.213 108.542C128.956 110.009 129.987 111.39 131.448 111.649Z" fill="black"/>
<path fill-rule="evenodd" clip-rule="evenodd" d="M32.434 138.916C31.5633 137.853 29.9964 137.691 28.9271 138.557C27.8539 139.426 27.6882 141 28.557 142.073L30.5001 140.5C28.557 142.073 28.5578 142.074 28.5586 142.075L28.5603 142.077L28.5642 142.082L28.5733 142.093L28.5977 142.123C28.6167 142.145 28.641 142.174 28.6706 142.208C28.73 142.277 28.811 142.368 28.9138 142.479C29.1194 142.7 29.4128 143.001 29.7956 143.354C30.5606 144.06 31.6874 144.982 33.1888 145.913C36.2015 147.782 40.7052 149.674 46.7612 149.934L46.7869 149.935C51.7388 150.096 153.175 149.936 168.598 149.696L168.602 149.696C173.929 149.606 177.685 147.721 180.12 145.786C181.326 144.828 182.194 143.87 182.771 143.134C183.06 142.766 183.278 142.451 183.429 142.216C183.505 142.099 183.565 142.001 183.609 141.926C183.631 141.889 183.65 141.858 183.664 141.832L183.683 141.799L183.69 141.785L183.693 141.78L183.695 141.777C183.695 141.776 183.696 141.775 181.522 140.592L183.696 141.775C184.356 140.562 183.908 139.044 182.695 138.384C181.488 137.727 179.979 138.168 179.314 139.366C179.313 139.369 179.311 139.373 179.307 139.378C179.295 139.398 179.27 139.44 179.232 139.499C179.155 139.618 179.024 139.809 178.837 140.049C178.46 140.529 177.861 141.195 177.01 141.871C175.332 143.204 172.618 144.627 168.519 144.697C153.099 144.936 51.9388 145.094 46.9624 144.938C41.8845 144.717 38.2084 143.143 35.8241 141.664C34.626 140.921 33.7496 140.199 33.1864 139.679C32.905 139.42 32.7029 139.212 32.5791 139.078C32.5172 139.011 32.475 138.963 32.4524 138.937C32.4426 138.926 32.4364 138.919 32.434 138.916Z" fill="#D60623"/>
</svg>
