<svg width="212" height="150" viewBox="0 0 212 150" fill="none" xmlns="http://www.w3.org/2000/svg">
<g clip-path="url(#clip0)">
<path d="M172.226 81.1851C170.817 77.6681 168.233 74.6971 164.947 72.8182L153.688 67.7832H148.877C148.8 68.0117 147.01 72.5945 141.66 72.5945C136.31 72.5945 134.518 67.9997 134.443 67.7832H129.632L115.672 74.3627L117.301 77.211C123.307 81.5845 127.226 88.6523 127.226 96.6511V99.0567V103.868H180.151L172.226 81.1851Z" fill="#D60623"/>
<path d="M74.3018 96.6511C74.3018 87.0838 79.8998 78.8468 87.9852 74.9713L88.0839 74.7596C86.9532 73.5568 85.6806 72.4815 84.3022 71.5601L76.7075 67.7832H71.8962L64.6792 74.0042L57.4622 67.7832H52.6509L45.0563 71.5601C40.8728 74.3458 37.7719 78.5341 36.3261 83.3526L31 103.868H74.3018V96.6511Z" fill="#D60623"/>
<path d="M120.01 135.142V126.677L110.387 125.52C109.273 129.77 105.432 132.737 101.036 132.737H100.493C96.0976 132.737 92.2558 129.77 91.142 125.52L81.5193 126.677V135.142L79.1137 137.548L76.708 147.17H100.765H124.821L122.416 137.548L120.01 135.142Z" fill="#D60623"/>
<path d="M57.4622 67.7832V64.2685C59.7428 64.9854 62.1653 65.3776 64.6792 65.3776C67.1931 65.3776 69.6156 64.9854 71.8962 64.2685V67.7832H76.7075V62.1227C80.3425 60.0129 83.3712 56.9842 85.4809 53.3493H88.7358C94.0427 53.3493 98.3584 49.0335 98.3584 43.7266V26.887C98.3584 12.2967 86.4865 0.424805 71.8962 0.424805H57.4622C42.8719 0.424805 31 12.2967 31 26.887V43.7266C31 49.0335 35.3158 53.3493 40.6226 53.3493H43.8775C45.9872 56.9842 49.016 60.0129 52.6509 62.1227V67.7832H57.4622ZM88.7358 48.538H87.6268C88.3461 46.2574 88.7358 43.8349 88.7358 41.321V38.9153C91.3892 38.9153 93.5471 41.0732 93.5471 43.7266C93.5471 46.3801 91.3892 48.538 88.7358 48.538ZM40.6226 48.538C37.9692 48.538 35.8113 46.3801 35.8113 43.7266C35.8113 41.0732 37.9692 38.9153 40.6226 38.9153V41.321C40.6226 43.8349 41.0148 46.2574 41.7316 48.538H40.6226ZM45.4339 41.321V29.2927H74.3018V24.4814H45.4339C42.7805 24.4814 40.6226 26.6393 40.6226 29.2927V34.104C38.8617 34.104 37.2331 34.614 35.8113 35.4416V26.887C35.8113 14.9502 45.523 5.23612 57.4622 5.23612H71.8962C83.8355 5.23612 93.5471 14.9502 93.5471 26.887V35.4416C92.1254 34.614 90.4967 34.104 88.7358 34.104V29.2927C88.7358 26.6393 86.5779 24.4814 83.9245 24.4814H79.1132V29.2927H83.9245V41.321C83.9245 51.9323 75.2906 60.5662 64.6792 60.5662C54.0679 60.5662 45.4339 51.9323 45.4339 41.321Z" fill="#333333"/>
<path d="M179.447 66.082C175.246 61.8818 172.934 56.2982 172.934 50.3587V46.1319V24.481C172.934 17.8486 167.539 12.4527 160.906 12.4527H160.663C159.547 6.97022 154.687 2.83008 148.878 2.83008H132.038C120.099 2.83008 110.387 12.5441 110.387 24.481V46.1319V50.3587C110.387 56.2982 108.075 61.8818 103.875 66.082L102.321 67.6361L103.726 69.3249C103.769 69.3754 104.058 69.717 104.587 70.2631C104.116 70.2342 103.649 70.1885 103.17 70.1885H98.359C83.7687 70.1885 71.8968 82.0604 71.8968 96.6507V108.679C71.8968 113.986 76.2125 118.302 81.5194 118.302H85.7654C86.6459 119.396 87.6418 120.392 88.7364 121.273V123.385L76.8813 124.809C72.2937 125.36 68.3797 128.55 66.9074 132.933L61.3359 149.575H140.193L134.622 132.93C133.152 128.55 129.238 125.362 124.648 124.809L112.793 123.385V121.273C113.888 120.392 114.883 119.396 115.764 118.302H120.01C125.317 118.302 129.633 113.986 129.633 108.679V96.6507C129.633 86.9776 124.4 78.5265 116.635 73.91L117.13 73.6767C113.195 71.4827 110.426 69.1829 108.884 67.7323C112.134 63.8664 114.186 59.2235 114.898 54.2534C116.382 55.1916 118.126 55.7546 120.01 55.7546H123.671C125.247 58.1025 127.287 60.104 129.633 61.6821V67.7828H134.444V64.1022C136.705 64.9057 139.125 65.3772 141.661 65.3772C144.196 65.3772 146.617 64.9081 148.878 64.1022V67.7828H153.689V61.6821C156.037 60.104 158.075 58.1025 159.65 55.7546H163.312C165.195 55.7546 166.94 55.1916 168.424 54.2534C169.138 59.2259 171.188 63.8712 174.443 67.7371C172.908 69.1829 170.153 71.4731 166.191 73.6767C167.577 74.6438 168.801 75.8009 169.838 77.1312C176.196 73.3399 179.442 69.5053 179.596 69.3225L181.001 67.6337L179.447 66.082ZM81.5194 113.49C78.866 113.49 76.7081 111.332 76.7081 108.679C76.7081 106.026 78.866 103.868 81.5194 103.868V106.273C81.5194 108.826 82.0294 111.26 82.9363 113.49H81.5194ZM107.982 125.129C107.072 128.199 104.258 130.33 101.037 130.33H100.49C97.2717 130.33 94.4546 128.199 93.5453 125.129V124.102C95.7777 125.009 98.2123 125.519 100.765 125.519C103.317 125.519 105.752 125.009 107.982 124.102V125.129ZM71.471 134.463C72.3514 131.831 74.7018 129.919 77.4538 129.589L89.5327 128.136C91.1805 131.704 94.4883 134.234 98.3566 134.93V144.764H79.7849L81.4424 138.129L76.7779 136.965L74.8317 144.764H68.0237L71.471 134.463ZM130.058 134.46L133.506 144.764H126.698L124.747 136.965L120.082 138.129L121.742 144.764H103.17V134.93C107.039 134.234 110.346 131.704 111.994 128.136L124.073 129.589C126.828 129.919 129.178 131.831 130.058 134.46ZM100.765 120.707C92.8043 120.707 86.3307 114.234 86.3307 106.273V99.297C86.3307 97.969 87.4085 96.8913 88.7364 96.8913H101.835C106.132 96.8913 110.171 95.2194 113.207 92.181C113.873 91.5074 115.199 92.0559 115.199 93.0062V106.273C115.199 114.234 108.725 120.707 100.765 120.707ZM120.01 113.49H118.593C119.5 111.26 120.01 108.826 120.01 106.273V103.868C122.663 103.868 124.821 106.026 124.821 108.679C124.821 111.332 122.663 113.49 120.01 113.49ZM124.821 96.6507V100.394C123.4 99.5664 121.771 99.0564 120.01 99.0564V93.0062C120.01 89.7104 117.328 87.0281 114.032 87.0281C112.459 87.0281 110.917 87.668 109.805 88.7794C107.679 90.9084 104.847 92.08 101.838 92.08H88.7364C84.8392 92.08 81.6734 95.1905 81.5435 99.0564H81.5194C79.7585 99.0564 78.1298 99.5664 76.7081 100.394V96.6507C76.7081 84.7115 86.4197 74.9998 98.359 74.9998H103.17C115.11 74.9998 124.821 84.7115 124.821 96.6507ZM120.01 50.9432C117.356 50.9432 115.199 48.7854 115.199 46.1319C115.199 43.4785 117.356 41.3206 120.01 41.3206V43.7263C120.01 46.2594 120.469 48.6819 121.273 50.9432H120.01ZM158.5 43.7263C158.5 53.0121 150.944 60.5659 141.661 60.5659C132.377 60.5659 124.821 53.0121 124.821 43.7263V34.1036C124.821 32.7781 125.899 31.698 127.227 31.698H134.687C141.194 31.698 147.711 30.1584 153.533 27.2499C154.007 27.0118 154.538 26.8867 155.068 26.8867C156.961 26.8867 158.5 28.4263 158.5 30.3195V43.7263ZM163.312 50.9432H162.049C162.852 48.6819 163.312 46.2594 163.312 43.7263V41.3206C165.965 41.3206 168.123 43.4785 168.123 46.1319C168.123 48.7854 165.965 50.9432 163.312 50.9432ZM168.123 37.8468C166.701 37.0193 165.073 36.5093 163.312 36.5093V30.3195C163.312 25.7752 159.614 22.0753 155.068 22.0753C153.795 22.0753 152.518 22.376 151.38 22.9462C146.222 25.5251 140.451 26.8867 134.687 26.8867H127.227C123.248 26.8867 120.01 30.1247 120.01 34.1036V36.5093C118.249 36.5093 116.62 37.0193 115.199 37.8468V24.481C115.199 15.1952 122.755 7.64139 132.038 7.64139H148.878C152.857 7.64139 156.095 10.8794 156.095 14.8584V17.264H160.906C164.885 17.264 168.123 20.502 168.123 24.481V37.8468Z" fill="#333333"/>
<path d="M141.661 50.9441C139.007 50.9441 136.849 48.7863 136.849 46.1328H132.038C132.038 51.4397 136.354 55.7554 141.661 55.7554C146.968 55.7554 151.283 51.4397 151.283 46.1328H146.472C146.472 48.7863 144.314 50.9441 141.661 50.9441Z" fill="#3F3A34"/>
<path d="M136.849 36.5098H132.038V41.3211H136.849V36.5098Z" fill="#3F3A34"/>
<path d="M151.283 36.5098H146.472V41.3211H151.283V36.5098Z" fill="#3F3A34"/>
<path d="M50.2449 89.4346H45.4336V103.869H50.2449V89.4346Z" fill="#333333"/>
<path d="M64.6793 84.623H55.0566V89.4344H64.6793V84.623Z" fill="#333333"/>
<path d="M144.066 75H139.255V79.8113H134.443V84.6226H139.255V89.4339H134.443V94.2453H139.255V103.868H144.066V94.2453H148.877V89.4339H144.066V84.6226H148.877V79.8113H144.066V75Z" fill="#333333"/>
<path d="M165.717 89.4346H160.905V103.869H165.717V89.4346Z" fill="#333333"/>
<path d="M100.764 113.491C99.4359 113.491 98.3582 112.413 98.3582 111.085H93.5469C93.5469 115.064 96.7849 118.302 100.764 118.302C104.743 118.302 107.981 115.064 107.981 111.085H103.169C103.169 112.413 102.092 113.491 100.764 113.491Z" fill="#333333"/>
<path d="M74.3019 46.1328H69.4906C69.4906 48.7863 67.3327 50.9441 64.6793 50.9441C62.0258 50.9441 59.868 48.7863 59.868 46.1328H55.0566C55.0566 51.4397 59.3724 55.7554 64.6793 55.7554C69.9862 55.7554 74.3019 51.4397 74.3019 46.1328Z" fill="#3F3A34"/>
<path d="M57.4627 34.1045H52.6514V38.9158H57.4627V34.1045Z" fill="#3F3A34"/>
<path d="M76.7078 34.1045H71.8965V38.9158H76.7078V34.1045Z" fill="#3F3A34"/>
<path d="M95.9529 101.463H91.1416V106.274H95.9529V101.463Z" fill="#3F3A34"/>
<path d="M110.387 101.463H105.575V106.274H110.387V101.463Z" fill="#333333"/>
</g>
<defs>
<clipPath id="clip0">
<rect width="150" height="150" fill="white" transform="translate(31)"/>
</clipPath>
</defs>
</svg>
